M48
; DRILL file {KiCad 6.0.4+dfsg-1+b1} date Thu 14 Apr 2022 14:18:03 BST
; FORMAT={-:-/ absolute / inch / decimal}
; #@! TF.CreationDate,2022-04-14T14:18:03+01:00
; #@! TF.GenerationSoftware,Kicad,Pcbnew,6.0.4+dfsg-1+b1
; #@! TF.FileFunction,Plated,1,2,PTH
FMAT,2
INCH
; #@! TA.AperFunction,Plated,PTH,ViaDrill
T1C0.0157
; #@! TA.AperFunction,Plated,PTH,ComponentDrill
T2C0.0320
; #@! TA.AperFunction,Plated,PTH,ComponentDrill
T3C0.0354
; #@! TA.AperFunction,Plated,PTH,ComponentDrill
T4C0.0472
; #@! TA.AperFunction,Plated,PTH,ComponentDrill
T5C0.0630
; #@! TA.AperFunction,Plated,PTH,ComponentDrill
T6C0.0866
%
G90
G05
T1
X4.23Y-3.22
X5.2015Y-4.6115
X5.38Y-4.15
X5.4455Y-4.2167
X5.4469Y-3.4453
X5.506Y-3.4462
X6.3035Y-3.4667
X6.3235Y-3.5167
X6.5635Y-4.1267
X6.8405Y-4.5198
T2
X5.216Y-3.3767
X5.216Y-3.4767
X5.216Y-3.5767
X5.216Y-3.6767
X5.216Y-3.7767
X5.216Y-3.8767
X5.216Y-3.9767
X5.216Y-4.0767
X5.216Y-4.1767
X5.216Y-4.2767
X5.216Y-4.3767
X5.216Y-4.4767
X5.3055Y-3.2967
X5.7555Y-3.2967
X5.8152Y-3.3767
X5.8152Y-3.4767
X5.8152Y-3.5767
X5.8152Y-3.6767
X5.8152Y-3.7767
X5.8152Y-3.8767
X5.8152Y-3.9767
X5.8152Y-4.0767
X5.8152Y-4.1767
X5.8152Y-4.2767
X5.8152Y-4.3767
X5.8152Y-4.4767
X6.02Y-3.3767
X6.02Y-3.4767
X6.02Y-3.5767
X6.02Y-3.6767
X6.02Y-3.7767
X6.02Y-3.8767
X6.02Y-3.9767
X6.02Y-4.0767
X6.02Y-4.1767
X6.02Y-4.2767
X6.02Y-4.3767
X6.02Y-4.4767
X6.1035Y-3.2867
X6.5535Y-3.2867
X6.6193Y-3.3767
X6.6193Y-3.4767
X6.6193Y-3.5767
X6.6193Y-3.6767
X6.6193Y-3.7767
X6.6193Y-3.8767
X6.6193Y-3.9767
X6.6193Y-4.0767
X6.6193Y-4.1767
X6.6193Y-4.2767
X6.6193Y-4.3767
X6.6193Y-4.4767
T4
X1.5748Y-3.1811
X1.5748Y-3.9291
X1.5748Y-4.6772
X1.5984Y-3.2165
X1.5984Y-3.9646
X1.5984Y-4.7126
X1.7717Y-3.2697
X1.7717Y-4.0177
X1.7717Y-4.7657
X1.874Y-3.2579
X1.874Y-4.0059
X1.874Y-4.7539
X1.9343Y-3.1614
X1.9343Y-3.9094
X1.9343Y-4.6575
X2.3228Y-2.7087
X2.3228Y-3.4596
X2.3231Y-4.2096
X2.3465Y-2.7441
X2.3465Y-3.495
X2.3468Y-4.245
X2.5197Y-2.7972
X2.5197Y-3.5482
X2.52Y-4.2982
X2.622Y-2.7854
X2.622Y-3.5364
X2.6224Y-4.2864
X2.6823Y-2.689
X2.6823Y-3.4399
X2.6826Y-4.1899
X3.0709Y-2.4669
X3.0709Y-3.2157
X3.0709Y-3.9644
X3.0945Y-2.5024
X3.0945Y-3.2511
X3.0945Y-3.9998
X3.2677Y-2.5555
X3.2677Y-3.3043
X3.2677Y-4.053
X3.3701Y-2.5437
X3.3701Y-3.2924
X3.3701Y-4.0412
X3.4303Y-2.4472
X3.4303Y-3.196
X3.4303Y-3.9447
X3.8187Y-2.6469
X3.8189Y-3.3957
X3.8189Y-4.1444
X3.8423Y-2.6824
X3.8425Y-3.4311
X3.8425Y-4.1798
X4.0155Y-2.7355
X4.0157Y-3.4843
X4.0157Y-4.233
X4.1179Y-2.7237
X4.1181Y-3.4724
X4.1181Y-4.2212
X4.1519Y-4.9868
X4.1656Y-5.0271
X4.1781Y-2.6272
X4.1783Y-3.376
X4.1783Y-4.1247
X4.3191Y-5.1233
X4.4211Y-5.1384
X4.5042Y-5.0608
X4.5661Y-3.4957
X4.5661Y-4.2444
X4.5669Y-2.748
X4.5898Y-3.5311
X4.5898Y-4.2798
X4.5906Y-2.7835
X4.763Y-3.5843
X4.763Y-4.333
X4.7638Y-2.8366
X4.8654Y-3.5724
X4.8654Y-4.3212
X4.8661Y-2.8248
X4.9102Y-5.2478
X4.913Y-5.2903
X4.9256Y-3.476
X4.9256Y-4.2247
X4.9264Y-2.7283
X5.0364Y-5.423
X5.131Y-5.4639
X5.2314Y-5.4105
X6.5678Y-5.4462
X6.6059Y-5.4651
X6.7825Y-5.4245
X6.8653Y-5.3631
X6.8692Y-5.2494
X6.8735Y-2.748
X6.8735Y-3.4957
X6.8735Y-4.2444
X6.8971Y-2.7835
X6.8971Y-3.5311
X6.8971Y-4.2798
X7.0703Y-2.8366
X7.0703Y-3.5843
X7.0703Y-4.333
X7.1727Y-2.8248
X7.1727Y-3.5724
X7.1727Y-4.3212
X7.2329Y-2.7283
X7.2329Y-3.476
X7.2329Y-4.2247
X7.2966Y-5.0935
X7.3286Y-5.1216
X7.5097Y-5.1281
X7.6055Y-5.0902
X7.6215Y-2.6444
X7.6215Y-3.3944
X7.6215Y-4.1444
X7.6387Y-4.9814
X7.6451Y-2.6798
X7.6451Y-3.4298
X7.6451Y-4.1798
X7.8183Y-2.733
X7.8183Y-3.483
X7.8183Y-4.233
X7.9207Y-2.7212
X7.9207Y-3.4712
X7.9207Y-4.2212
X7.9809Y-2.6247
X7.9809Y-3.3747
X7.9809Y-4.1247
X8.3696Y-2.4669
X8.3696Y-3.2157
X8.3696Y-3.9644
X8.3932Y-2.5024
X8.3932Y-3.2511
X8.3932Y-3.9998
X8.5665Y-2.5555
X8.5665Y-3.3043
X8.5665Y-4.053
X8.6688Y-2.5437
X8.6688Y-3.2924
X8.6688Y-4.0412
X8.729Y-2.4472
X8.729Y-3.196
X8.729Y-3.9447
X9.1187Y-2.7087
X9.1187Y-3.4557
X9.1187Y-4.2044
X9.1423Y-2.7441
X9.1423Y-3.4911
X9.1423Y-4.2398
X9.3155Y-2.7972
X9.3155Y-3.5443
X9.3155Y-4.293
X9.4179Y-2.7854
X9.4179Y-3.5324
X9.4179Y-4.2812
X9.4781Y-2.689
X9.4781Y-3.436
X9.4781Y-4.1847
X9.8674Y-3.1811
X9.8674Y-3.9291
X9.8674Y-4.6772
X9.891Y-3.2165
X9.891Y-3.9646
X9.891Y-4.7126
X10.0642Y-3.2697
X10.0642Y-4.0177
X10.0642Y-4.7657
X10.1666Y-3.2579
X10.1666Y-4.0059
X10.1666Y-4.7539
X10.2268Y-3.1614
X10.2268Y-3.9094
X10.2268Y-4.6575
T5
X1.9685Y-2.8287
X1.9685Y-3.5768
X1.9685Y-4.3248
X2.7165Y-2.3563
X2.7165Y-3.1072
X2.7169Y-3.8572
X3.4646Y-2.1146
X3.4646Y-2.8633
X3.4646Y-3.612
X4.2124Y-2.2946
X4.2126Y-3.0433
X4.2126Y-3.792
X4.6234Y-4.7483
X4.9598Y-3.1433
X4.9598Y-3.892
X4.9606Y-2.3957
X5.4274Y-5.1395
X6.7325Y-4.9442
X7.2672Y-2.3957
X7.2672Y-3.1433
X7.2672Y-3.892
X7.5857Y-4.6512
X8.0152Y-2.292
X8.0152Y-3.042
X8.0152Y-3.792
X8.7633Y-2.1146
X8.7633Y-2.8633
X8.7633Y-3.612
X9.5124Y-2.3563
X9.5124Y-3.1033
X9.5124Y-3.852
X10.2611Y-2.8287
X10.2611Y-3.5768
X10.2611Y-4.3248
T6
X2.89Y-3.425
X3.64Y-2.675
X3.64Y-4.175
X4.39Y-3.425
X7.45Y-3.425
X8.2Y-2.675
X8.2Y-4.175
X8.95Y-3.425
T3
G00X5.302Y-4.7639
M15
G01X5.3177Y-4.7639
M16
G05
G00X5.3185Y-4.584
M15
G01X5.3028Y-4.584
M16
G05
G00X5.3453Y-4.5828
M15
G01X5.361Y-4.5828
M16
G05
G00X5.3618Y-4.7651
M15
G01X5.3461Y-4.7651
M16
G05
G00X5.5028Y-4.5828
M15
G01X5.5185Y-4.5828
M16
G05
G00X5.5193Y-4.7651
M15
G01X5.5035Y-4.7651
M16
G05
G00X5.6209Y-4.5828
M15
G01X5.6366Y-4.5828
M16
G05
G00X5.6374Y-4.7651
M15
G01X5.6217Y-4.7651
M16
G05
G00X6.1916Y-4.584
M15
G01X6.2074Y-4.584
M16
G05
G00X6.2082Y-4.7663
M15
G01X6.1924Y-4.7663
M16
G05
G00X6.3098Y-4.584
M15
G01X6.3255Y-4.584
M16
G05
G00X6.3263Y-4.7663
M15
G01X6.3105Y-4.7663
M16
G05
G00X6.4672Y-4.584
M15
G01X6.483Y-4.584
M16
G05
G00X6.4838Y-4.7663
M15
G01X6.468Y-4.7663
M16
G05
G00X6.5105Y-4.7651
M15
G01X6.5263Y-4.7651
M16
G05
G00X6.5271Y-4.5852
M15
G01X6.5113Y-4.5852
M16
G05
T0
M30
