M48
; DRILL file {KiCad 6.0.4+dfsg-1+b1} date Sat 16 Apr 2022 20:30:25 BST
; FORMAT={-:-/ absolute / inch / decimal}
; #@! TF.CreationDate,2022-04-16T20:30:25+01:00
; #@! TF.GenerationSoftware,Kicad,Pcbnew,6.0.4+dfsg-1+b1
; #@! TF.FileFunction,Plated,1,2,PTH
FMAT,2
INCH
; #@! TA.AperFunction,Plated,PTH,ViaDrill
T1C0.0157
; #@! TA.AperFunction,Plated,PTH,ComponentDrill
T2C0.0320
; #@! TA.AperFunction,Plated,PTH,ComponentDrill
T3C0.0354
; #@! TA.AperFunction,Plated,PTH,ComponentDrill
T4C0.0591
; #@! TA.AperFunction,Plated,PTH,ComponentDrill
T5C0.0866
%
G90
G05
T1
X5.04Y-3.69
X5.2015Y-4.6115
X5.38Y-4.15
X5.4455Y-4.2167
X5.4469Y-3.4453
X5.506Y-3.4462
X6.3035Y-3.4667
X6.3235Y-3.5167
X6.5635Y-4.1267
X6.84Y-4.6
T2
X5.216Y-3.3767
X5.216Y-3.4767
X5.216Y-3.5767
X5.216Y-3.6767
X5.216Y-3.7767
X5.216Y-3.8767
X5.216Y-3.9767
X5.216Y-4.0767
X5.216Y-4.1767
X5.216Y-4.2767
X5.216Y-4.3767
X5.216Y-4.4767
X5.3055Y-3.2967
X5.7555Y-3.2967
X5.8152Y-3.3767
X5.8152Y-3.4767
X5.8152Y-3.5767
X5.8152Y-3.6767
X5.8152Y-3.7767
X5.8152Y-3.8767
X5.8152Y-3.9767
X5.8152Y-4.0767
X5.8152Y-4.1767
X5.8152Y-4.2767
X5.8152Y-4.3767
X5.8152Y-4.4767
X6.02Y-3.3767
X6.02Y-3.4767
X6.02Y-3.5767
X6.02Y-3.6767
X6.02Y-3.7767
X6.02Y-3.8767
X6.02Y-3.9767
X6.02Y-4.0767
X6.02Y-4.1767
X6.02Y-4.2767
X6.02Y-4.3767
X6.02Y-4.4767
X6.1035Y-3.2867
X6.5535Y-3.2867
X6.6193Y-3.3767
X6.6193Y-3.4767
X6.6193Y-3.5767
X6.6193Y-3.6767
X6.6193Y-3.7767
X6.6193Y-3.8767
X6.6193Y-3.9767
X6.6193Y-4.0767
X6.6193Y-4.1767
X6.6193Y-4.2767
X6.6193Y-4.3767
X6.6193Y-4.4767
T4
X1.5748Y-3.1811
X1.5748Y-3.9291
X1.5748Y-4.6772
X1.5984Y-3.2165
X1.5984Y-3.9646
X1.5984Y-4.7126
X1.7717Y-3.2638
X1.7717Y-4.0118
X1.7717Y-4.7598
X1.874Y-3.2579
X1.874Y-4.0059
X1.874Y-4.7539
X2.3228Y-2.7087
X2.3228Y-3.4596
X2.3465Y-2.7441
X2.3465Y-3.495
X2.4931Y-4.1696
X2.5168Y-4.205
X2.5197Y-2.7913
X2.5197Y-3.5423
X2.622Y-2.7854
X2.622Y-3.5364
X2.69Y-4.2523
X2.7924Y-4.2464
X3.0709Y-2.4669
X3.0709Y-3.2157
X3.0709Y-3.9644
X3.0945Y-2.5024
X3.0945Y-3.2511
X3.0945Y-3.9998
X3.2677Y-2.5496
X3.2677Y-3.2983
X3.2677Y-4.0471
X3.3701Y-2.5437
X3.3701Y-3.2924
X3.3701Y-4.0412
X3.8187Y-2.6469
X3.8189Y-3.3957
X3.8189Y-4.1444
X3.8423Y-2.6824
X3.8425Y-3.4311
X3.8425Y-4.1798
X4.0155Y-2.7296
X4.0157Y-3.4783
X4.0157Y-4.2271
X4.1179Y-2.7237
X4.1181Y-3.4724
X4.1181Y-4.2212
X4.1519Y-4.9868
X4.1656Y-5.0271
X4.3207Y-5.1176
X4.4211Y-5.1384
X4.5661Y-3.4957
X4.5661Y-4.2444
X4.5669Y-2.748
X4.5898Y-3.5311
X4.5898Y-4.2798
X4.5906Y-2.7835
X4.763Y-3.5783
X4.763Y-4.3271
X4.7638Y-2.8307
X4.8654Y-3.5724
X4.8654Y-4.3212
X4.8661Y-2.8248
X4.9102Y-5.2478
X4.913Y-5.2903
X5.0394Y-5.4179
X5.131Y-5.4639
X6.5678Y-5.4462
X6.6059Y-5.4651
X6.7796Y-5.4194
X6.8653Y-5.3631
X6.8735Y-2.748
X6.8735Y-3.4957
X6.8735Y-4.2444
X6.8971Y-2.7835
X6.8971Y-3.5311
X6.8971Y-4.2798
X7.0703Y-2.8307
X7.0703Y-3.5783
X7.0703Y-4.3271
X7.1727Y-2.8248
X7.1727Y-3.5724
X7.1727Y-4.3212
X7.2966Y-5.0935
X7.3286Y-5.1216
X7.5081Y-5.1224
X7.6055Y-5.0902
X7.6215Y-2.6444
X7.6215Y-3.3944
X7.6215Y-4.1444
X7.6451Y-2.6798
X7.6451Y-3.4298
X7.6451Y-4.1798
X7.8183Y-2.7271
X7.8183Y-3.4771
X7.8183Y-4.2271
X7.9207Y-2.7212
X7.9207Y-3.4712
X7.9207Y-4.2212
X8.3696Y-2.4669
X8.3696Y-3.2157
X8.3696Y-3.9644
X8.3932Y-2.5024
X8.3932Y-3.2511
X8.3932Y-3.9998
X8.5665Y-2.5496
X8.5665Y-3.2983
X8.5665Y-4.0471
X8.6688Y-2.5437
X8.6688Y-3.2924
X8.6688Y-4.0412
X9.1187Y-2.7087
X9.1187Y-3.4557
X9.1187Y-4.2044
X9.1423Y-2.7441
X9.1423Y-3.4911
X9.1423Y-4.2398
X9.3155Y-2.7913
X9.3155Y-3.5383
X9.3155Y-4.2871
X9.4179Y-2.7854
X9.4179Y-3.5324
X9.4179Y-4.2812
X9.8674Y-3.1811
X9.8674Y-3.9291
X9.8674Y-4.6772
X9.891Y-3.2165
X9.891Y-3.9646
X9.891Y-4.7126
X10.0642Y-3.2638
X10.0642Y-4.0118
X10.0642Y-4.7598
X10.1666Y-3.2579
X10.1666Y-4.0059
X10.1666Y-4.7539
T5
X2.89Y-3.425
X3.64Y-2.675
X3.64Y-4.175
X4.39Y-3.425
X7.45Y-3.425
X8.2Y-2.675
X8.2Y-4.175
X8.95Y-3.425
T3
G00X5.302Y-4.7639
M15
G01X5.3177Y-4.7639
M16
G05
G00X5.3185Y-4.584
M15
G01X5.3028Y-4.584
M16
G05
G00X5.3453Y-4.5828
M15
G01X5.361Y-4.5828
M16
G05
G00X5.3618Y-4.7651
M15
G01X5.3461Y-4.7651
M16
G05
G00X5.5028Y-4.5828
M15
G01X5.5185Y-4.5828
M16
G05
G00X5.5193Y-4.7651
M15
G01X5.5035Y-4.7651
M16
G05
G00X5.6209Y-4.5828
M15
G01X5.6366Y-4.5828
M16
G05
G00X5.6374Y-4.7651
M15
G01X5.6217Y-4.7651
M16
G05
G00X6.1916Y-4.584
M15
G01X6.2074Y-4.584
M16
G05
G00X6.2082Y-4.7663
M15
G01X6.1924Y-4.7663
M16
G05
G00X6.3098Y-4.584
M15
G01X6.3255Y-4.584
M16
G05
G00X6.3263Y-4.7663
M15
G01X6.3105Y-4.7663
M16
G05
G00X6.4672Y-4.584
M15
G01X6.483Y-4.584
M16
G05
G00X6.4838Y-4.7663
M15
G01X6.468Y-4.7663
M16
G05
G00X6.5105Y-4.7651
M15
G01X6.5263Y-4.7651
M16
G05
G00X6.5271Y-4.5852
M15
G01X6.5113Y-4.5852
M16
G05
T0
M30
