%TF.GenerationSoftware,KiCad,Pcbnew,6.0.4+dfsg-1+b1*%
%TF.CreationDate,2022-04-14T14:18:00+01:00*%
%TF.ProjectId,sweep-mid,73776565-702d-46d6-9964-2e6b69636164,rev?*%
%TF.SameCoordinates,Original*%
%TF.FileFunction,Profile,NP*%
%FSLAX46Y46*%
G04 Gerber Fmt 4.6, Leading zero omitted, Abs format (unit mm)*
G04 Created by KiCad (PCBNEW 6.0.4+dfsg-1+b1) date 2022-04-14 14:18:00*
%MOMM*%
%LPD*%
G01*
G04 APERTURE LIST*
%TA.AperFunction,Profile*%
%ADD10C,0.050000*%
%TD*%
G04 APERTURE END LIST*
D10*
X148912000Y-82616000D02*
G75*
G03*
X148162000Y-81866000I-750000J0D01*
G01*
X148912000Y-93218000D02*
X148912000Y-101262000D01*
X131458000Y-81868917D02*
X148162000Y-81866000D01*
X147161679Y-123613657D02*
X135710000Y-143699265D01*
X147161678Y-123613657D02*
G75*
G03*
X148924000Y-116248000I-15055878J7495957D01*
G01*
X148912000Y-82616000D02*
X148924000Y-88110000D01*
X149288500Y-88110000D02*
X148924000Y-88110000D01*
X149288500Y-93218000D02*
X148912000Y-93218000D01*
X149288500Y-108628000D02*
X148924000Y-108628000D01*
X149288500Y-113728500D02*
X148912000Y-113728500D01*
X148912000Y-101262000D02*
X148924000Y-108628000D01*
X148912000Y-113728500D02*
X148924000Y-116248000D01*
X130457983Y-80868917D02*
G75*
G03*
X131458000Y-81868917I1000017J17D01*
G01*
X130458000Y-80868917D02*
X130463000Y-59473000D01*
X36893000Y-66223000D02*
G75*
G03*
X35465859Y-68237320I2445000J-3245000D01*
G01*
X130028245Y-58792471D02*
G75*
G03*
X85843227Y-49463504I-51477605J-134512869D01*
G01*
X37768000Y-124474571D02*
X37493002Y-124473917D01*
X132978006Y-144297990D02*
G75*
G03*
X107798171Y-133382330I-46750106J-73341610D01*
G01*
X107798171Y-133382330D02*
G75*
G03*
X37768000Y-124474571I-70310171J-273025670D01*
G01*
X35458002Y-122542999D02*
G75*
G03*
X37493002Y-124473917I1999998J69999D01*
G01*
X132978000Y-144298000D02*
G75*
G03*
X135710000Y-143699265I1070000J1650000D01*
G01*
X130463000Y-59473000D02*
G75*
G03*
X130028245Y-58792470I-750000J0D01*
G01*
X35465859Y-68237320D02*
X35458001Y-122542999D01*
X85843227Y-49463504D02*
X81868000Y-49468000D01*
X81868000Y-49468001D02*
G75*
G03*
X36893000Y-66223000I0J-68740099D01*
G01*
X168999840Y-81868917D02*
X152295840Y-81866000D01*
X151545840Y-113728500D02*
X151533840Y-116248000D01*
X153280536Y-123572150D02*
X164747840Y-143699265D01*
X264991981Y-68237320D02*
X264999839Y-122542999D01*
X214614613Y-49463504D02*
X218589840Y-49468000D01*
X151545840Y-101262000D02*
X151533840Y-108628000D01*
X152295840Y-81866040D02*
G75*
G03*
X151545840Y-82616000I-40J-749960D01*
G01*
X151545840Y-93218000D02*
X151545840Y-101262000D01*
X192659667Y-133382324D02*
G75*
G03*
X167479840Y-144298000I21570333J-84257276D01*
G01*
X263564840Y-66222999D02*
G75*
G03*
X218589840Y-49468000I-44975000J-51985101D01*
G01*
X262689840Y-124474581D02*
G75*
G03*
X192659669Y-133382330I279960J-281933419D01*
G01*
X164747794Y-143699294D02*
G75*
G03*
X167479840Y-144298000I1662006J1051294D01*
G01*
X151533862Y-116248000D02*
G75*
G03*
X153280536Y-123572150I16773838J129900D01*
G01*
X151545840Y-82616000D02*
X151533840Y-88110000D01*
X168999840Y-81868940D02*
G75*
G03*
X169999840Y-80868917I-40J1000040D01*
G01*
X169999840Y-80868917D02*
X169994840Y-59473000D01*
X264991968Y-68237324D02*
G75*
G03*
X263564840Y-66223000I-3872168J-1230676D01*
G01*
X214614613Y-49463500D02*
G75*
G03*
X170429595Y-58792470I7292587J-143841800D01*
G01*
X262689840Y-124474571D02*
X262964838Y-124473917D01*
X262964837Y-124473959D02*
G75*
G03*
X264999839Y-122542999I34963J2000959D01*
G01*
X170429605Y-58792491D02*
G75*
G03*
X169994840Y-59473000I315195J-680509D01*
G01*
X151533840Y-88110000D02*
X151193500Y-88110000D01*
X151533840Y-108628000D02*
X151193500Y-108628000D01*
X151545840Y-113728500D02*
X151193500Y-113728500D01*
X151193499Y-93218001D02*
G75*
G03*
X149288501Y-93218000I-952499J-380999D01*
G01*
X149288501Y-108627999D02*
G75*
G03*
X151193499Y-108628000I952499J360499D01*
G01*
X149288500Y-88109999D02*
G75*
G03*
X151193499Y-88110000I952500J352999D01*
G01*
X151193499Y-113728501D02*
G75*
G03*
X149288501Y-113728500I-952499J-380999D01*
G01*
X151545840Y-93218000D02*
X151193500Y-93218000D01*
M02*
