M48
; DRILL file {KiCad 6.0.4+dfsg-1+b1} date Thu 14 Apr 2022 14:18:03 BST
; FORMAT={-:-/ absolute / inch / decimal}
; #@! TF.CreationDate,2022-04-14T14:18:03+01:00
; #@! TF.GenerationSoftware,Kicad,Pcbnew,6.0.4+dfsg-1+b1
; #@! TF.FileFunction,NonPlated,1,2,NPTH
FMAT,2
INCH
; #@! TA.AperFunction,NonPlated,NPTH,ComponentDrill
T1C0.0197
; #@! TA.AperFunction,NonPlated,NPTH,ComponentDrill
T2C0.0315
; #@! TA.AperFunction,NonPlated,NPTH,ComponentDrill
T3C0.0354
; #@! TA.AperFunction,NonPlated,NPTH,ComponentDrill
T4C0.0906
; #@! TA.AperFunction,NonPlated,NPTH,ComponentDrill
T5C0.1260
; #@! TA.AperFunction,NonPlated,NPTH,ComponentDrill
T6C0.2461
%
G90
G05
T1
X5.875Y-3.49
X5.875Y-3.53
X5.875Y-3.57
X5.875Y-3.61
X5.875Y-3.65
X5.875Y-4.2975
X5.875Y-4.3375
X5.875Y-4.3775
X5.875Y-4.4175
X5.875Y-4.4575
X5.955Y-3.49
X5.955Y-3.53
X5.955Y-3.57
X5.955Y-3.61
X5.955Y-3.65
X5.955Y-4.2975
X5.955Y-4.3375
X5.955Y-4.3775
X5.955Y-4.4175
X5.955Y-4.4575
T2
X5.4169Y-4.6746
X5.6925Y-4.6746
X6.1365Y-4.6746
X6.4121Y-4.6746
T3
X5.4765Y-3.3067
X5.5946Y-3.3067
X6.2745Y-3.3267
X6.3926Y-3.3267
T4
X1.7717Y-3.1772
X1.7717Y-3.9252
X1.7717Y-4.6732
X2.5197Y-2.7047
X2.5197Y-3.4557
X2.52Y-4.2057
X3.2677Y-2.463
X3.2677Y-3.2117
X3.2677Y-3.9605
X4.0155Y-2.643
X4.0157Y-3.3917
X4.0157Y-4.1405
X4.3431Y-5.0339
X4.763Y-3.4917
X4.763Y-4.2405
X4.7638Y-2.7441
X5.0827Y-5.3428
X6.7363Y-5.3443
X7.0703Y-2.7441
X7.0703Y-3.4917
X7.0703Y-4.2405
X7.4857Y-5.0387
X7.8183Y-2.6405
X7.8183Y-3.3905
X7.8183Y-4.1405
X8.5665Y-2.463
X8.5665Y-3.2117
X8.5665Y-3.9605
X9.3155Y-2.7047
X9.3155Y-3.4517
X9.3155Y-4.2005
X10.0642Y-3.1772
X10.0642Y-3.9252
X10.0642Y-4.6732
T5
X2.05Y-2.6
X2.255Y-4.46
X4.435Y-2.21
X4.435Y-2.21
X5.475Y-4.92
X5.475Y-4.92
X6.365Y-4.91
X7.405Y-2.2
X9.585Y-4.45
X9.79Y-2.59
T6
X1.7717Y-3.0315
X1.7717Y-3.7795
X1.7717Y-4.5276
X2.5197Y-2.5591
X2.5197Y-3.31
X2.52Y-4.06
X3.2677Y-2.3173
X3.2677Y-3.0661
X3.2677Y-3.8148
X4.0155Y-2.4973
X4.0157Y-3.2461
X4.0157Y-3.9948
X4.3808Y-4.8932
X4.763Y-3.3461
X4.763Y-4.0948
X4.7638Y-2.5984
X5.1555Y-5.2167
X6.6634Y-5.2182
X7.0703Y-2.5984
X7.0703Y-3.3461
X7.0703Y-4.0948
X7.448Y-4.898
X7.8183Y-2.4948
X7.8183Y-3.2448
X7.8183Y-3.9948
X8.5665Y-2.3173
X8.5665Y-3.0661
X8.5665Y-3.8148
X9.3155Y-2.5591
X9.3155Y-3.3061
X9.3155Y-4.0548
X10.0642Y-3.0315
X10.0642Y-3.7795
X10.0642Y-4.5276
T0
M30
