M48
; DRILL file {KiCad 6.0.4+dfsg-1+b1} date Sat 16 Apr 2022 20:30:25 BST
; FORMAT={-:-/ absolute / inch / decimal}
; #@! TF.CreationDate,2022-04-16T20:30:25+01:00
; #@! TF.GenerationSoftware,Kicad,Pcbnew,6.0.4+dfsg-1+b1
; #@! TF.FileFunction,NonPlated,1,2,NPTH
FMAT,2
INCH
; #@! TA.AperFunction,NonPlated,NPTH,ComponentDrill
T1C0.0197
; #@! TA.AperFunction,NonPlated,NPTH,ComponentDrill
T2C0.0315
; #@! TA.AperFunction,NonPlated,NPTH,ComponentDrill
T3C0.0354
; #@! TA.AperFunction,NonPlated,NPTH,ComponentDrill
T4C0.0390
; #@! TA.AperFunction,NonPlated,NPTH,ComponentDrill
T5C0.0670
; #@! TA.AperFunction,NonPlated,NPTH,ComponentDrill
T6C0.1260
; #@! TA.AperFunction,NonPlated,NPTH,ComponentDrill
T7C0.1969
%
G90
G05
T1
X5.875Y-3.49
X5.875Y-3.53
X5.875Y-3.57
X5.875Y-3.61
X5.875Y-3.65
X5.875Y-4.2975
X5.875Y-4.3375
X5.875Y-4.3775
X5.875Y-4.4175
X5.875Y-4.4575
X5.955Y-3.49
X5.955Y-3.53
X5.955Y-3.57
X5.955Y-3.61
X5.955Y-3.65
X5.955Y-4.2975
X5.955Y-4.3375
X5.955Y-4.3775
X5.955Y-4.4175
X5.955Y-4.4575
T2
X5.4169Y-4.6746
X5.6925Y-4.6746
X6.1365Y-4.6746
X6.4121Y-4.6746
T3
X5.4765Y-3.3067
X5.5946Y-3.3067
X6.2745Y-3.3267
X6.3926Y-3.3267
T4
X1.9772Y-2.8661
X1.9772Y-3.6142
X1.9772Y-4.3622
X2.7252Y-2.3937
X2.7252Y-3.1446
X2.8955Y-3.8546
X3.4732Y-2.152
X3.4732Y-2.9007
X3.4732Y-3.6494
X4.221Y-2.332
X4.2213Y-3.0807
X4.2213Y-3.8294
X4.6221Y-4.7867
X4.9685Y-3.1807
X4.9685Y-3.9294
X4.9693Y-2.4331
X5.4162Y-5.1762
X6.7587Y-4.9722
X7.2758Y-2.4331
X7.2758Y-3.1807
X7.2758Y-3.9294
X7.6037Y-4.6851
X8.0239Y-2.3294
X8.0239Y-3.0794
X8.0239Y-3.8294
X8.772Y-2.152
X8.772Y-2.9007
X8.772Y-3.6494
X9.521Y-2.3937
X9.521Y-3.1407
X9.521Y-3.8894
X10.2698Y-2.8661
X10.2698Y-3.6142
X10.2698Y-4.3622
T5
X1.5551Y-3.0315
X1.5551Y-3.7795
X1.5551Y-4.5276
X1.9882Y-3.0315
X1.9882Y-3.7795
X1.9882Y-4.5276
X2.3031Y-2.5591
X2.3031Y-3.31
X2.4735Y-4.02
X2.7362Y-2.5591
X2.7362Y-3.31
X2.9065Y-4.02
X3.0512Y-2.3173
X3.0512Y-3.0661
X3.0512Y-3.8148
X3.4843Y-2.3173
X3.4843Y-3.0661
X3.4843Y-3.8148
X3.799Y-2.4973
X3.7992Y-3.2461
X3.7992Y-3.9948
X4.1716Y-4.8372
X4.232Y-2.4973
X4.2323Y-3.2461
X4.2323Y-3.9948
X4.5465Y-3.3461
X4.5465Y-4.0948
X4.5472Y-2.5984
X4.5899Y-4.9493
X4.968Y-5.1084
X4.9795Y-3.3461
X4.9795Y-4.0948
X4.9803Y-2.5984
X5.343Y-5.325
X6.4759Y-5.3265
X6.851Y-5.1099
X6.8538Y-2.5984
X6.8538Y-3.3461
X6.8538Y-4.0948
X7.2389Y-4.9541
X7.2868Y-2.5984
X7.2868Y-3.3461
X7.2868Y-4.0948
X7.6018Y-2.4948
X7.6018Y-3.2448
X7.6018Y-3.9948
X7.6572Y-4.842
X8.0349Y-2.4948
X8.0349Y-3.2448
X8.0349Y-3.9948
X8.3499Y-2.3173
X8.3499Y-3.0661
X8.3499Y-3.8148
X8.783Y-2.3173
X8.783Y-3.0661
X8.783Y-3.8148
X9.099Y-2.5591
X9.099Y-3.3061
X9.099Y-4.0548
X9.532Y-2.5591
X9.532Y-3.3061
X9.532Y-4.0548
X9.8477Y-3.0315
X9.8477Y-3.7795
X9.8477Y-4.5276
X10.2808Y-3.0315
X10.2808Y-3.7795
X10.2808Y-4.5276
T6
X2.05Y-2.6
X2.255Y-4.46
X4.435Y-2.21
X4.435Y-2.21
X5.475Y-4.92
X5.475Y-4.92
X6.365Y-4.91
X7.405Y-2.2
X9.585Y-4.45
X9.79Y-2.59
T7
X1.7717Y-3.0315
X1.7717Y-3.7795
X1.7717Y-4.5276
X2.5197Y-2.5591
X2.5197Y-3.31
X2.69Y-4.02
X3.2677Y-2.3173
X3.2677Y-3.0661
X3.2677Y-3.8148
X4.0155Y-2.4973
X4.0157Y-3.2461
X4.0157Y-3.9948
X4.3808Y-4.8932
X4.763Y-3.3461
X4.763Y-4.0948
X4.7638Y-2.5984
X5.1555Y-5.2167
X6.6634Y-5.2182
X7.0703Y-2.5984
X7.0703Y-3.3461
X7.0703Y-4.0948
X7.448Y-4.898
X7.8183Y-2.4948
X7.8183Y-3.2448
X7.8183Y-3.9948
X8.5665Y-2.3173
X8.5665Y-3.0661
X8.5665Y-3.8148
X9.3155Y-2.5591
X9.3155Y-3.3061
X9.3155Y-4.0548
X10.0642Y-3.0315
X10.0642Y-3.7795
X10.0642Y-4.5276
T0
M30
