%TF.GenerationSoftware,KiCad,Pcbnew,6.0.4+dfsg-1+b1*%
%TF.CreationDate,2022-04-16T20:30:22+01:00*%
%TF.ProjectId,sweep-mid,73776565-702d-46d6-9964-2e6b69636164,rev?*%
%TF.SameCoordinates,Original*%
%TF.FileFunction,Soldermask,Top*%
%TF.FilePolarity,Negative*%
%FSLAX46Y46*%
G04 Gerber Fmt 4.6, Leading zero omitted, Abs format (unit mm)*
G04 Created by KiCad (PCBNEW 6.0.4+dfsg-1+b1) date 2022-04-16 20:30:22*
%MOMM*%
%LPD*%
G01*
G04 APERTURE LIST*
%ADD10C,5.000000*%
%ADD11C,0.990600*%
%ADD12C,1.701800*%
%ADD13C,2.500000*%
%ADD14C,1.397000*%
%ADD15C,4.400000*%
%ADD16R,0.900000X0.900000*%
%ADD17R,0.900000X1.250000*%
%ADD18R,1.700000X0.900000*%
%ADD19C,0.800000*%
%ADD20O,2.000000X1.600000*%
%ADD21C,0.500000*%
%ADD22C,3.200000*%
%ADD23C,1.000000*%
G04 APERTURE END LIST*
D10*
%TO.C,SW2*%
X45000000Y-77000000D03*
D11*
X50220000Y-72800000D03*
D12*
X50500000Y-77000000D03*
X39500000Y-77000000D03*
D13*
X47600000Y-82750000D03*
X45000000Y-82900000D03*
X40000000Y-80800000D03*
X40600000Y-81700000D03*
%TD*%
D10*
%TO.C,SW3*%
X64000000Y-65000000D03*
D11*
X69220000Y-60800000D03*
D12*
X69500000Y-65000000D03*
X58500000Y-65000000D03*
D13*
X66600000Y-70750000D03*
X64000000Y-70900000D03*
X59000000Y-68800000D03*
X59600000Y-69700000D03*
%TD*%
D10*
%TO.C,SW4*%
X83000000Y-58860000D03*
D11*
X88220000Y-54660000D03*
D12*
X88500000Y-58860000D03*
X77500000Y-58860000D03*
D13*
X85600000Y-64610000D03*
X83000000Y-64760000D03*
X78000000Y-62660000D03*
X78600000Y-63560000D03*
%TD*%
D10*
%TO.C,SW5*%
X101994000Y-63432000D03*
D11*
X107214000Y-59232000D03*
D12*
X107494000Y-63432000D03*
X96494000Y-63432000D03*
D13*
X104594000Y-69182000D03*
X101994000Y-69332000D03*
X96994000Y-67232000D03*
X97594000Y-68132000D03*
%TD*%
D10*
%TO.C,SW6*%
X121000000Y-66000000D03*
D11*
X126220000Y-61800000D03*
D12*
X126500000Y-66000000D03*
X115500000Y-66000000D03*
D13*
X123600000Y-71750000D03*
X121000000Y-71900000D03*
X116000000Y-69800000D03*
X116600000Y-70700000D03*
%TD*%
D10*
%TO.C,SW8*%
X45000000Y-96000000D03*
D11*
X50220000Y-91800000D03*
D12*
X50500000Y-96000000D03*
X39500000Y-96000000D03*
D13*
X47600000Y-101750000D03*
X45000000Y-101900000D03*
X40000000Y-99800000D03*
X40600000Y-100700000D03*
%TD*%
D10*
%TO.C,SW9*%
X64000000Y-84074000D03*
D11*
X69220000Y-79874000D03*
D12*
X69500000Y-84074000D03*
X58500000Y-84074000D03*
D13*
X66600000Y-89824000D03*
X64000000Y-89974000D03*
X59000000Y-87874000D03*
X59600000Y-88774000D03*
%TD*%
D10*
%TO.C,SW10*%
X83000000Y-77878000D03*
D11*
X88220000Y-73678000D03*
D12*
X88500000Y-77878000D03*
X77500000Y-77878000D03*
D13*
X85600000Y-83628000D03*
X83000000Y-83778000D03*
X78000000Y-81678000D03*
X78600000Y-82578000D03*
%TD*%
D10*
%TO.C,SW11*%
X102000000Y-82450000D03*
D11*
X107220000Y-78250000D03*
D12*
X107500000Y-82450000D03*
X96500000Y-82450000D03*
D13*
X104600000Y-88200000D03*
X102000000Y-88350000D03*
X97000000Y-86250000D03*
X97600000Y-87150000D03*
%TD*%
D10*
%TO.C,SW12*%
X120980000Y-84990000D03*
D11*
X126200000Y-80790000D03*
D12*
X126480000Y-84990000D03*
X115480000Y-84990000D03*
D13*
X123580000Y-90740000D03*
X120980000Y-90890000D03*
X115980000Y-88790000D03*
X116580000Y-89690000D03*
%TD*%
D10*
%TO.C,SW14*%
X45000000Y-115000000D03*
D11*
X50220000Y-110800000D03*
D12*
X50500000Y-115000000D03*
X39500000Y-115000000D03*
D13*
X47600000Y-120750000D03*
X45000000Y-120900000D03*
X40000000Y-118800000D03*
X40600000Y-119700000D03*
%TD*%
%TO.C,SW15*%
X63926000Y-106808000D03*
X63326000Y-105908000D03*
X68326000Y-108008000D03*
X70926000Y-107858000D03*
D12*
X62826000Y-102108000D03*
X73826000Y-102108000D03*
D11*
X73546000Y-97908000D03*
D10*
X68326000Y-102108000D03*
%TD*%
%TO.C,SW16*%
X83000000Y-96896000D03*
D11*
X88220000Y-92696000D03*
D12*
X88500000Y-96896000D03*
X77500000Y-96896000D03*
D13*
X85600000Y-102646000D03*
X83000000Y-102796000D03*
X78000000Y-100696000D03*
X78600000Y-101596000D03*
%TD*%
D10*
%TO.C,SW17*%
X102000000Y-101468000D03*
D11*
X107220000Y-97268000D03*
D12*
X107500000Y-101468000D03*
X96500000Y-101468000D03*
D13*
X104600000Y-107218000D03*
X102000000Y-107368000D03*
X97000000Y-105268000D03*
X97600000Y-106168000D03*
%TD*%
D10*
%TO.C,SW20*%
X130950000Y-132504000D03*
D11*
X137570653Y-131476693D03*
D12*
X135713140Y-135254000D03*
X126186860Y-129754000D03*
D13*
X130326666Y-138783646D03*
X128000000Y-137613550D03*
X124719873Y-133294897D03*
X124789488Y-134374319D03*
%TD*%
D10*
%TO.C,SW21*%
X111272000Y-124288000D03*
D11*
X117401173Y-121582147D03*
D12*
X116584592Y-125711505D03*
X105959408Y-122864495D03*
D13*
X112295198Y-130515003D03*
X109744968Y-129986962D03*
X105458858Y-126664423D03*
X105805477Y-127689048D03*
%TD*%
D10*
%TO.C,SW18*%
X120980000Y-104008000D03*
D11*
X126200000Y-99808000D03*
D12*
X126480000Y-104008000D03*
X115480000Y-104008000D03*
D13*
X123580000Y-109758000D03*
X120980000Y-109908000D03*
X115980000Y-107808000D03*
X116580000Y-108708000D03*
%TD*%
D10*
%TO.C,SW11_r1*%
X198585840Y-82418000D03*
D11*
X203805840Y-78218000D03*
D12*
X204085840Y-82418000D03*
X193085840Y-82418000D03*
D13*
X201185840Y-88168000D03*
X198585840Y-88318000D03*
X193585840Y-86218000D03*
X194185840Y-87118000D03*
%TD*%
D10*
%TO.C,SW13_r1*%
X255631840Y-115000000D03*
D11*
X260851840Y-110800000D03*
D12*
X261131840Y-115000000D03*
X250131840Y-115000000D03*
D13*
X258231840Y-120750000D03*
X255631840Y-120900000D03*
X250631840Y-118800000D03*
X251231840Y-119700000D03*
%TD*%
D10*
%TO.C,SW15_r1*%
X217587840Y-96896000D03*
D11*
X222807840Y-92696000D03*
D12*
X223087840Y-96896000D03*
X212087840Y-96896000D03*
D13*
X220187840Y-102646000D03*
X217587840Y-102796000D03*
X212587840Y-100696000D03*
X213187840Y-101596000D03*
%TD*%
D10*
%TO.C,SW16_r1*%
X198585840Y-101468000D03*
D11*
X203805840Y-97268000D03*
D12*
X204085840Y-101468000D03*
X193085840Y-101468000D03*
D13*
X201185840Y-107218000D03*
X198585840Y-107368000D03*
X193585840Y-105268000D03*
X194185840Y-106168000D03*
%TD*%
D10*
%TO.C,SW5_r1*%
X198585840Y-63368000D03*
D11*
X203805840Y-59168000D03*
D12*
X204085840Y-63368000D03*
X193085840Y-63368000D03*
D13*
X201185840Y-69118000D03*
X198585840Y-69268000D03*
X193585840Y-67168000D03*
X194185840Y-68068000D03*
%TD*%
D10*
%TO.C,SW3_r1*%
X236613840Y-65000000D03*
D11*
X241833840Y-60800000D03*
D12*
X242113840Y-65000000D03*
X231113840Y-65000000D03*
D13*
X239213840Y-70750000D03*
X236613840Y-70900000D03*
X231613840Y-68800000D03*
X232213840Y-69700000D03*
%TD*%
D10*
%TO.C,SW4_r1*%
X217587840Y-58860000D03*
D11*
X222807840Y-54660000D03*
D12*
X223087840Y-58860000D03*
X212087840Y-58860000D03*
D13*
X220187840Y-64610000D03*
X217587840Y-64760000D03*
X212587840Y-62660000D03*
X213187840Y-63560000D03*
%TD*%
D10*
%TO.C,SW8_r1*%
X236613840Y-83974000D03*
D11*
X241833840Y-79774000D03*
D12*
X242113840Y-83974000D03*
X231113840Y-83974000D03*
D13*
X239213840Y-89724000D03*
X236613840Y-89874000D03*
X231613840Y-87774000D03*
X232213840Y-88674000D03*
%TD*%
D10*
%TO.C,SW9_r1*%
X217587840Y-77878000D03*
D11*
X222807840Y-73678000D03*
D12*
X223087840Y-77878000D03*
X212087840Y-77878000D03*
D13*
X220187840Y-83628000D03*
X217587840Y-83778000D03*
X212587840Y-81678000D03*
X213187840Y-82578000D03*
%TD*%
D10*
%TO.C,SW18_r1*%
X236613840Y-102992000D03*
D11*
X241833840Y-98792000D03*
D12*
X242113840Y-102992000D03*
X231113840Y-102992000D03*
D13*
X239213840Y-108742000D03*
X236613840Y-108892000D03*
X231613840Y-106792000D03*
X232213840Y-107692000D03*
%TD*%
D10*
%TO.C,SW12_r1*%
X179585840Y-84990000D03*
D11*
X184805840Y-80790000D03*
D12*
X185085840Y-84990000D03*
X174085840Y-84990000D03*
D13*
X182185840Y-90740000D03*
X179585840Y-90890000D03*
X174585840Y-88790000D03*
X175185840Y-89690000D03*
%TD*%
D10*
%TO.C,SW7_r1*%
X255631840Y-96000000D03*
D11*
X260851840Y-91800000D03*
D12*
X261131840Y-96000000D03*
X250131840Y-96000000D03*
D13*
X258231840Y-101750000D03*
X255631840Y-101900000D03*
X250631840Y-99800000D03*
X251231840Y-100700000D03*
%TD*%
D10*
%TO.C,SW2_r1*%
X255631840Y-77000000D03*
D11*
X260851840Y-72800000D03*
D12*
X261131840Y-77000000D03*
X250131840Y-77000000D03*
D13*
X258231840Y-82750000D03*
X255631840Y-82900000D03*
X250631840Y-80800000D03*
X251231840Y-81700000D03*
%TD*%
D10*
%TO.C,SW6_r1*%
X179585840Y-66000000D03*
D11*
X184805840Y-61800000D03*
D12*
X185085840Y-66000000D03*
X174085840Y-66000000D03*
D13*
X182185840Y-71750000D03*
X179585840Y-71900000D03*
X174585840Y-69800000D03*
X175185840Y-70700000D03*
%TD*%
D10*
%TO.C,SW20_r1*%
X169251000Y-132542000D03*
D11*
X171671653Y-126294693D03*
D12*
X174014140Y-129792000D03*
X164487860Y-135292000D03*
D13*
X174377666Y-136221646D03*
X172201000Y-137651550D03*
X166820873Y-138332897D03*
X167790488Y-138812319D03*
%TD*%
D10*
%TO.C,SW17_r1*%
X179585840Y-104008000D03*
D11*
X184805840Y-99808000D03*
D12*
X185085840Y-104008000D03*
X174085840Y-104008000D03*
D13*
X182185840Y-109758000D03*
X179585840Y-109908000D03*
X174585840Y-107808000D03*
X175185840Y-108708000D03*
%TD*%
D10*
%TO.C,SW21_r1*%
X189179840Y-124410000D03*
D11*
X193134933Y-119002076D03*
D12*
X194492432Y-122986495D03*
X183867248Y-125833505D03*
D13*
X193179457Y-129291144D03*
X190706872Y-130108962D03*
X185333723Y-129374613D03*
X186146216Y-130088655D03*
%TD*%
D14*
%TO.C,Bat+r1*%
X146190000Y-83736000D03*
%TD*%
%TO.C,BatGND1*%
X134760000Y-83736000D03*
%TD*%
D15*
%TO.C,REF\u002A\u002A*%
X92456000Y-67945000D03*
X92456000Y-106045000D03*
X111506000Y-86995000D03*
X73406000Y-86995000D03*
%TD*%
D16*
%TO.C,SW2*%
X136902000Y-85090000D03*
X144302000Y-85090000D03*
X136902000Y-82890000D03*
X144302000Y-82890000D03*
D17*
X142852000Y-86065000D03*
X139852000Y-86065000D03*
X138352000Y-86065000D03*
%TD*%
D18*
%TO.C,RSW1*%
X132080000Y-120572000D03*
X132080000Y-117172000D03*
%TD*%
D14*
%TO.C,BatGND4*%
X166459840Y-83482000D03*
%TD*%
D18*
%TO.C,RSW2*%
X168402000Y-120318000D03*
X168402000Y-116918000D03*
%TD*%
D14*
%TO.C,Bat+1*%
X155029840Y-83482000D03*
%TD*%
D15*
%TO.C,REF\u002A\u002A*%
X208280000Y-106045000D03*
X189230000Y-86995000D03*
X208280000Y-67945000D03*
X227330000Y-86995000D03*
%TD*%
D16*
%TO.C,SW2*%
X157171840Y-85598000D03*
X164571840Y-83398000D03*
X164571840Y-85598000D03*
X157171840Y-83398000D03*
D17*
X163121840Y-86573000D03*
X160121840Y-86573000D03*
X158621840Y-86573000D03*
%TD*%
D19*
%TO.C,J1*%
X162867840Y-118734000D03*
X155867840Y-118734000D03*
D20*
X160487840Y-121064000D03*
X160467840Y-116434000D03*
X157487840Y-121064000D03*
X157467840Y-116434000D03*
X165587840Y-116464000D03*
X165567840Y-121034000D03*
X164467840Y-116434000D03*
X164487840Y-121064000D03*
%TD*%
D21*
%TO.C,mouse-bite-5mm-slot*%
X151257000Y-90678000D03*
X151257000Y-88646000D03*
X151257000Y-92710000D03*
X149225000Y-88646000D03*
X151257000Y-91694000D03*
X149225000Y-92710000D03*
X149225000Y-91694000D03*
X149225000Y-89662000D03*
X151257000Y-89662000D03*
X149225000Y-90678000D03*
%TD*%
%TO.C,mouse-bite-5mm-slot*%
X151257000Y-113220500D03*
X149225000Y-111188500D03*
X149225000Y-109156500D03*
X149225000Y-110172500D03*
X149225000Y-112204500D03*
X151257000Y-111188500D03*
X149225000Y-113220500D03*
X151257000Y-112204500D03*
X151257000Y-110172500D03*
X151257000Y-109156500D03*
%TD*%
D19*
%TO.C,J2*%
X137590000Y-118734000D03*
X144590000Y-118734000D03*
D20*
X139970000Y-116404000D03*
X139990000Y-121034000D03*
X142970000Y-116404000D03*
X142990000Y-121034000D03*
X134890000Y-116434000D03*
X134870000Y-121004000D03*
X135970000Y-116404000D03*
X135990000Y-121034000D03*
%TD*%
D22*
%TO.C,*%
X112649000Y-56134000D03*
%TD*%
%TO.C,Mounting 03*%
X57277000Y-113284000D03*
%TD*%
%TO.C,Mounting 02*%
X139065000Y-124968000D03*
%TD*%
%TO.C,Mounting 01*%
X112649000Y-56134000D03*
%TD*%
%TO.C,*%
X139065000Y-124968000D03*
%TD*%
%TO.C,Mounting 04*%
X52070000Y-66040000D03*
%TD*%
D23*
%TO.C,SW_POWERR1*%
X142102000Y-83990000D03*
X139102000Y-83990000D03*
%TD*%
%TO.C,SW_POWER1*%
X159371840Y-84498000D03*
X162371840Y-84498000D03*
%TD*%
D22*
%TO.C,Mounting 02*%
X161671000Y-124714000D03*
%TD*%
%TO.C,Mounting 04*%
X248666000Y-65786000D03*
%TD*%
%TO.C,Mounting 01*%
X188087000Y-55880000D03*
%TD*%
%TO.C,Mounting 03*%
X243459000Y-113030000D03*
%TD*%
M02*
