%TF.GenerationSoftware,KiCad,Pcbnew,6.0.4+dfsg-1+b1*%
%TF.CreationDate,2022-04-16T20:30:22+01:00*%
%TF.ProjectId,sweep-mid,73776565-702d-46d6-9964-2e6b69636164,rev?*%
%TF.SameCoordinates,Original*%
%TF.FileFunction,Legend,Top*%
%TF.FilePolarity,Positive*%
%FSLAX46Y46*%
G04 Gerber Fmt 4.6, Leading zero omitted, Abs format (unit mm)*
G04 Created by KiCad (PCBNEW 6.0.4+dfsg-1+b1) date 2022-04-16 20:30:22*
%MOMM*%
%LPD*%
G01*
G04 APERTURE LIST*
%ADD10C,0.300000*%
%ADD11C,0.150000*%
%ADD12C,0.100000*%
%ADD13C,0.125000*%
%ADD14C,0.120000*%
%ADD15C,0.200000*%
%ADD16C,0.010000*%
%ADD17C,1.397000*%
%ADD18C,1.524000*%
G04 APERTURE END LIST*
D10*
X160002697Y-104372857D02*
X160002697Y-104872857D01*
X160788411Y-104872857D02*
X159288411Y-104872857D01*
X159288411Y-104158571D01*
X160788411Y-102944285D02*
X160002697Y-102944285D01*
X159859840Y-103015714D01*
X159788411Y-103158571D01*
X159788411Y-103444285D01*
X159859840Y-103587142D01*
X160716982Y-102944285D02*
X160788411Y-103087142D01*
X160788411Y-103444285D01*
X160716982Y-103587142D01*
X160574125Y-103658571D01*
X160431268Y-103658571D01*
X160288411Y-103587142D01*
X160216982Y-103444285D01*
X160216982Y-103087142D01*
X160145554Y-102944285D01*
X160716982Y-101587142D02*
X160788411Y-101730000D01*
X160788411Y-102015714D01*
X160716982Y-102158571D01*
X160645554Y-102230000D01*
X160502697Y-102301428D01*
X160074125Y-102301428D01*
X159931268Y-102230000D01*
X159859840Y-102158571D01*
X159788411Y-102015714D01*
X159788411Y-101730000D01*
X159859840Y-101587142D01*
X160716982Y-100372857D02*
X160788411Y-100515714D01*
X160788411Y-100801428D01*
X160716982Y-100944285D01*
X160574125Y-101015714D01*
X160002697Y-101015714D01*
X159859840Y-100944285D01*
X159788411Y-100801428D01*
X159788411Y-100515714D01*
X159859840Y-100372857D01*
X160002697Y-100301428D01*
X160145554Y-100301428D01*
X160288411Y-101015714D01*
X160788411Y-97872857D02*
X159288411Y-97872857D01*
X160716982Y-97872857D02*
X160788411Y-98015714D01*
X160788411Y-98301428D01*
X160716982Y-98444285D01*
X160645554Y-98515714D01*
X160502697Y-98587142D01*
X160074125Y-98587142D01*
X159931268Y-98515714D01*
X159859840Y-98444285D01*
X159788411Y-98301428D01*
X159788411Y-98015714D01*
X159859840Y-97872857D01*
X160788411Y-96944285D02*
X160716982Y-97087142D01*
X160645554Y-97158571D01*
X160502697Y-97230000D01*
X160074125Y-97230000D01*
X159931268Y-97158571D01*
X159859840Y-97087142D01*
X159788411Y-96944285D01*
X159788411Y-96730000D01*
X159859840Y-96587142D01*
X159931268Y-96515714D01*
X160074125Y-96444285D01*
X160502697Y-96444285D01*
X160645554Y-96515714D01*
X160716982Y-96587142D01*
X160788411Y-96730000D01*
X160788411Y-96944285D01*
X159788411Y-95944285D02*
X160788411Y-95658571D01*
X160074125Y-95372857D01*
X160788411Y-95087142D01*
X159788411Y-94801428D01*
X159788411Y-94230000D02*
X160788411Y-94230000D01*
X159931268Y-94230000D02*
X159859840Y-94158571D01*
X159788411Y-94015714D01*
X159788411Y-93801428D01*
X159859840Y-93658571D01*
X160002697Y-93587142D01*
X160788411Y-93587142D01*
X139592857Y-104202857D02*
X139592857Y-104702857D01*
X140378571Y-104702857D02*
X138878571Y-104702857D01*
X138878571Y-103988571D01*
X140378571Y-102774285D02*
X139592857Y-102774285D01*
X139450000Y-102845714D01*
X139378571Y-102988571D01*
X139378571Y-103274285D01*
X139450000Y-103417142D01*
X140307142Y-102774285D02*
X140378571Y-102917142D01*
X140378571Y-103274285D01*
X140307142Y-103417142D01*
X140164285Y-103488571D01*
X140021428Y-103488571D01*
X139878571Y-103417142D01*
X139807142Y-103274285D01*
X139807142Y-102917142D01*
X139735714Y-102774285D01*
X140307142Y-101417142D02*
X140378571Y-101560000D01*
X140378571Y-101845714D01*
X140307142Y-101988571D01*
X140235714Y-102060000D01*
X140092857Y-102131428D01*
X139664285Y-102131428D01*
X139521428Y-102060000D01*
X139450000Y-101988571D01*
X139378571Y-101845714D01*
X139378571Y-101560000D01*
X139450000Y-101417142D01*
X140307142Y-100202857D02*
X140378571Y-100345714D01*
X140378571Y-100631428D01*
X140307142Y-100774285D01*
X140164285Y-100845714D01*
X139592857Y-100845714D01*
X139450000Y-100774285D01*
X139378571Y-100631428D01*
X139378571Y-100345714D01*
X139450000Y-100202857D01*
X139592857Y-100131428D01*
X139735714Y-100131428D01*
X139878571Y-100845714D01*
X140378571Y-97702857D02*
X138878571Y-97702857D01*
X140307142Y-97702857D02*
X140378571Y-97845714D01*
X140378571Y-98131428D01*
X140307142Y-98274285D01*
X140235714Y-98345714D01*
X140092857Y-98417142D01*
X139664285Y-98417142D01*
X139521428Y-98345714D01*
X139450000Y-98274285D01*
X139378571Y-98131428D01*
X139378571Y-97845714D01*
X139450000Y-97702857D01*
X140378571Y-96774285D02*
X140307142Y-96917142D01*
X140235714Y-96988571D01*
X140092857Y-97060000D01*
X139664285Y-97060000D01*
X139521428Y-96988571D01*
X139450000Y-96917142D01*
X139378571Y-96774285D01*
X139378571Y-96560000D01*
X139450000Y-96417142D01*
X139521428Y-96345714D01*
X139664285Y-96274285D01*
X140092857Y-96274285D01*
X140235714Y-96345714D01*
X140307142Y-96417142D01*
X140378571Y-96560000D01*
X140378571Y-96774285D01*
X139378571Y-95774285D02*
X140378571Y-95488571D01*
X139664285Y-95202857D01*
X140378571Y-94917142D01*
X139378571Y-94631428D01*
X139378571Y-94060000D02*
X140378571Y-94060000D01*
X139521428Y-94060000D02*
X139450000Y-93988571D01*
X139378571Y-93845714D01*
X139378571Y-93631428D01*
X139450000Y-93488571D01*
X139592857Y-93417142D01*
X140378571Y-93417142D01*
D11*
%TO.C,SW2*%
X43766666Y-68904761D02*
X43909523Y-68952380D01*
X44147619Y-68952380D01*
X44242857Y-68904761D01*
X44290476Y-68857142D01*
X44338095Y-68761904D01*
X44338095Y-68666666D01*
X44290476Y-68571428D01*
X44242857Y-68523809D01*
X44147619Y-68476190D01*
X43957142Y-68428571D01*
X43861904Y-68380952D01*
X43814285Y-68333333D01*
X43766666Y-68238095D01*
X43766666Y-68142857D01*
X43814285Y-68047619D01*
X43861904Y-68000000D01*
X43957142Y-67952380D01*
X44195238Y-67952380D01*
X44338095Y-68000000D01*
X44671428Y-67952380D02*
X44909523Y-68952380D01*
X45100000Y-68238095D01*
X45290476Y-68952380D01*
X45528571Y-67952380D01*
X45861904Y-68047619D02*
X45909523Y-68000000D01*
X46004761Y-67952380D01*
X46242857Y-67952380D01*
X46338095Y-68000000D01*
X46385714Y-68047619D01*
X46433333Y-68142857D01*
X46433333Y-68238095D01*
X46385714Y-68380952D01*
X45814285Y-68952380D01*
X46433333Y-68952380D01*
%TO.C,SW3*%
X62766666Y-56904761D02*
X62909523Y-56952380D01*
X63147619Y-56952380D01*
X63242857Y-56904761D01*
X63290476Y-56857142D01*
X63338095Y-56761904D01*
X63338095Y-56666666D01*
X63290476Y-56571428D01*
X63242857Y-56523809D01*
X63147619Y-56476190D01*
X62957142Y-56428571D01*
X62861904Y-56380952D01*
X62814285Y-56333333D01*
X62766666Y-56238095D01*
X62766666Y-56142857D01*
X62814285Y-56047619D01*
X62861904Y-56000000D01*
X62957142Y-55952380D01*
X63195238Y-55952380D01*
X63338095Y-56000000D01*
X63671428Y-55952380D02*
X63909523Y-56952380D01*
X64100000Y-56238095D01*
X64290476Y-56952380D01*
X64528571Y-55952380D01*
X64814285Y-55952380D02*
X65433333Y-55952380D01*
X65100000Y-56333333D01*
X65242857Y-56333333D01*
X65338095Y-56380952D01*
X65385714Y-56428571D01*
X65433333Y-56523809D01*
X65433333Y-56761904D01*
X65385714Y-56857142D01*
X65338095Y-56904761D01*
X65242857Y-56952380D01*
X64957142Y-56952380D01*
X64861904Y-56904761D01*
X64814285Y-56857142D01*
%TO.C,SW4*%
X81766666Y-50764761D02*
X81909523Y-50812380D01*
X82147619Y-50812380D01*
X82242857Y-50764761D01*
X82290476Y-50717142D01*
X82338095Y-50621904D01*
X82338095Y-50526666D01*
X82290476Y-50431428D01*
X82242857Y-50383809D01*
X82147619Y-50336190D01*
X81957142Y-50288571D01*
X81861904Y-50240952D01*
X81814285Y-50193333D01*
X81766666Y-50098095D01*
X81766666Y-50002857D01*
X81814285Y-49907619D01*
X81861904Y-49860000D01*
X81957142Y-49812380D01*
X82195238Y-49812380D01*
X82338095Y-49860000D01*
X82671428Y-49812380D02*
X82909523Y-50812380D01*
X83100000Y-50098095D01*
X83290476Y-50812380D01*
X83528571Y-49812380D01*
X84338095Y-50145714D02*
X84338095Y-50812380D01*
X84100000Y-49764761D02*
X83861904Y-50479047D01*
X84480952Y-50479047D01*
%TO.C,SW5*%
X100760666Y-55336761D02*
X100903523Y-55384380D01*
X101141619Y-55384380D01*
X101236857Y-55336761D01*
X101284476Y-55289142D01*
X101332095Y-55193904D01*
X101332095Y-55098666D01*
X101284476Y-55003428D01*
X101236857Y-54955809D01*
X101141619Y-54908190D01*
X100951142Y-54860571D01*
X100855904Y-54812952D01*
X100808285Y-54765333D01*
X100760666Y-54670095D01*
X100760666Y-54574857D01*
X100808285Y-54479619D01*
X100855904Y-54432000D01*
X100951142Y-54384380D01*
X101189238Y-54384380D01*
X101332095Y-54432000D01*
X101665428Y-54384380D02*
X101903523Y-55384380D01*
X102094000Y-54670095D01*
X102284476Y-55384380D01*
X102522571Y-54384380D01*
X103379714Y-54384380D02*
X102903523Y-54384380D01*
X102855904Y-54860571D01*
X102903523Y-54812952D01*
X102998761Y-54765333D01*
X103236857Y-54765333D01*
X103332095Y-54812952D01*
X103379714Y-54860571D01*
X103427333Y-54955809D01*
X103427333Y-55193904D01*
X103379714Y-55289142D01*
X103332095Y-55336761D01*
X103236857Y-55384380D01*
X102998761Y-55384380D01*
X102903523Y-55336761D01*
X102855904Y-55289142D01*
%TO.C,SW6*%
X119766666Y-57904761D02*
X119909523Y-57952380D01*
X120147619Y-57952380D01*
X120242857Y-57904761D01*
X120290476Y-57857142D01*
X120338095Y-57761904D01*
X120338095Y-57666666D01*
X120290476Y-57571428D01*
X120242857Y-57523809D01*
X120147619Y-57476190D01*
X119957142Y-57428571D01*
X119861904Y-57380952D01*
X119814285Y-57333333D01*
X119766666Y-57238095D01*
X119766666Y-57142857D01*
X119814285Y-57047619D01*
X119861904Y-57000000D01*
X119957142Y-56952380D01*
X120195238Y-56952380D01*
X120338095Y-57000000D01*
X120671428Y-56952380D02*
X120909523Y-57952380D01*
X121100000Y-57238095D01*
X121290476Y-57952380D01*
X121528571Y-56952380D01*
X122338095Y-56952380D02*
X122147619Y-56952380D01*
X122052380Y-57000000D01*
X122004761Y-57047619D01*
X121909523Y-57190476D01*
X121861904Y-57380952D01*
X121861904Y-57761904D01*
X121909523Y-57857142D01*
X121957142Y-57904761D01*
X122052380Y-57952380D01*
X122242857Y-57952380D01*
X122338095Y-57904761D01*
X122385714Y-57857142D01*
X122433333Y-57761904D01*
X122433333Y-57523809D01*
X122385714Y-57428571D01*
X122338095Y-57380952D01*
X122242857Y-57333333D01*
X122052380Y-57333333D01*
X121957142Y-57380952D01*
X121909523Y-57428571D01*
X121861904Y-57523809D01*
%TO.C,SW8*%
X43766666Y-87904761D02*
X43909523Y-87952380D01*
X44147619Y-87952380D01*
X44242857Y-87904761D01*
X44290476Y-87857142D01*
X44338095Y-87761904D01*
X44338095Y-87666666D01*
X44290476Y-87571428D01*
X44242857Y-87523809D01*
X44147619Y-87476190D01*
X43957142Y-87428571D01*
X43861904Y-87380952D01*
X43814285Y-87333333D01*
X43766666Y-87238095D01*
X43766666Y-87142857D01*
X43814285Y-87047619D01*
X43861904Y-87000000D01*
X43957142Y-86952380D01*
X44195238Y-86952380D01*
X44338095Y-87000000D01*
X44671428Y-86952380D02*
X44909523Y-87952380D01*
X45100000Y-87238095D01*
X45290476Y-87952380D01*
X45528571Y-86952380D01*
X46052380Y-87380952D02*
X45957142Y-87333333D01*
X45909523Y-87285714D01*
X45861904Y-87190476D01*
X45861904Y-87142857D01*
X45909523Y-87047619D01*
X45957142Y-87000000D01*
X46052380Y-86952380D01*
X46242857Y-86952380D01*
X46338095Y-87000000D01*
X46385714Y-87047619D01*
X46433333Y-87142857D01*
X46433333Y-87190476D01*
X46385714Y-87285714D01*
X46338095Y-87333333D01*
X46242857Y-87380952D01*
X46052380Y-87380952D01*
X45957142Y-87428571D01*
X45909523Y-87476190D01*
X45861904Y-87571428D01*
X45861904Y-87761904D01*
X45909523Y-87857142D01*
X45957142Y-87904761D01*
X46052380Y-87952380D01*
X46242857Y-87952380D01*
X46338095Y-87904761D01*
X46385714Y-87857142D01*
X46433333Y-87761904D01*
X46433333Y-87571428D01*
X46385714Y-87476190D01*
X46338095Y-87428571D01*
X46242857Y-87380952D01*
%TO.C,SW9*%
X62766666Y-75978761D02*
X62909523Y-76026380D01*
X63147619Y-76026380D01*
X63242857Y-75978761D01*
X63290476Y-75931142D01*
X63338095Y-75835904D01*
X63338095Y-75740666D01*
X63290476Y-75645428D01*
X63242857Y-75597809D01*
X63147619Y-75550190D01*
X62957142Y-75502571D01*
X62861904Y-75454952D01*
X62814285Y-75407333D01*
X62766666Y-75312095D01*
X62766666Y-75216857D01*
X62814285Y-75121619D01*
X62861904Y-75074000D01*
X62957142Y-75026380D01*
X63195238Y-75026380D01*
X63338095Y-75074000D01*
X63671428Y-75026380D02*
X63909523Y-76026380D01*
X64100000Y-75312095D01*
X64290476Y-76026380D01*
X64528571Y-75026380D01*
X64957142Y-76026380D02*
X65147619Y-76026380D01*
X65242857Y-75978761D01*
X65290476Y-75931142D01*
X65385714Y-75788285D01*
X65433333Y-75597809D01*
X65433333Y-75216857D01*
X65385714Y-75121619D01*
X65338095Y-75074000D01*
X65242857Y-75026380D01*
X65052380Y-75026380D01*
X64957142Y-75074000D01*
X64909523Y-75121619D01*
X64861904Y-75216857D01*
X64861904Y-75454952D01*
X64909523Y-75550190D01*
X64957142Y-75597809D01*
X65052380Y-75645428D01*
X65242857Y-75645428D01*
X65338095Y-75597809D01*
X65385714Y-75550190D01*
X65433333Y-75454952D01*
%TO.C,SW10*%
X81290476Y-69782761D02*
X81433333Y-69830380D01*
X81671428Y-69830380D01*
X81766666Y-69782761D01*
X81814285Y-69735142D01*
X81861904Y-69639904D01*
X81861904Y-69544666D01*
X81814285Y-69449428D01*
X81766666Y-69401809D01*
X81671428Y-69354190D01*
X81480952Y-69306571D01*
X81385714Y-69258952D01*
X81338095Y-69211333D01*
X81290476Y-69116095D01*
X81290476Y-69020857D01*
X81338095Y-68925619D01*
X81385714Y-68878000D01*
X81480952Y-68830380D01*
X81719047Y-68830380D01*
X81861904Y-68878000D01*
X82195238Y-68830380D02*
X82433333Y-69830380D01*
X82623809Y-69116095D01*
X82814285Y-69830380D01*
X83052380Y-68830380D01*
X83957142Y-69830380D02*
X83385714Y-69830380D01*
X83671428Y-69830380D02*
X83671428Y-68830380D01*
X83576190Y-68973238D01*
X83480952Y-69068476D01*
X83385714Y-69116095D01*
X84576190Y-68830380D02*
X84671428Y-68830380D01*
X84766666Y-68878000D01*
X84814285Y-68925619D01*
X84861904Y-69020857D01*
X84909523Y-69211333D01*
X84909523Y-69449428D01*
X84861904Y-69639904D01*
X84814285Y-69735142D01*
X84766666Y-69782761D01*
X84671428Y-69830380D01*
X84576190Y-69830380D01*
X84480952Y-69782761D01*
X84433333Y-69735142D01*
X84385714Y-69639904D01*
X84338095Y-69449428D01*
X84338095Y-69211333D01*
X84385714Y-69020857D01*
X84433333Y-68925619D01*
X84480952Y-68878000D01*
X84576190Y-68830380D01*
%TO.C,SW11*%
X100290476Y-74354761D02*
X100433333Y-74402380D01*
X100671428Y-74402380D01*
X100766666Y-74354761D01*
X100814285Y-74307142D01*
X100861904Y-74211904D01*
X100861904Y-74116666D01*
X100814285Y-74021428D01*
X100766666Y-73973809D01*
X100671428Y-73926190D01*
X100480952Y-73878571D01*
X100385714Y-73830952D01*
X100338095Y-73783333D01*
X100290476Y-73688095D01*
X100290476Y-73592857D01*
X100338095Y-73497619D01*
X100385714Y-73450000D01*
X100480952Y-73402380D01*
X100719047Y-73402380D01*
X100861904Y-73450000D01*
X101195238Y-73402380D02*
X101433333Y-74402380D01*
X101623809Y-73688095D01*
X101814285Y-74402380D01*
X102052380Y-73402380D01*
X102957142Y-74402380D02*
X102385714Y-74402380D01*
X102671428Y-74402380D02*
X102671428Y-73402380D01*
X102576190Y-73545238D01*
X102480952Y-73640476D01*
X102385714Y-73688095D01*
X103909523Y-74402380D02*
X103338095Y-74402380D01*
X103623809Y-74402380D02*
X103623809Y-73402380D01*
X103528571Y-73545238D01*
X103433333Y-73640476D01*
X103338095Y-73688095D01*
%TO.C,SW12*%
X119270476Y-76894761D02*
X119413333Y-76942380D01*
X119651428Y-76942380D01*
X119746666Y-76894761D01*
X119794285Y-76847142D01*
X119841904Y-76751904D01*
X119841904Y-76656666D01*
X119794285Y-76561428D01*
X119746666Y-76513809D01*
X119651428Y-76466190D01*
X119460952Y-76418571D01*
X119365714Y-76370952D01*
X119318095Y-76323333D01*
X119270476Y-76228095D01*
X119270476Y-76132857D01*
X119318095Y-76037619D01*
X119365714Y-75990000D01*
X119460952Y-75942380D01*
X119699047Y-75942380D01*
X119841904Y-75990000D01*
X120175238Y-75942380D02*
X120413333Y-76942380D01*
X120603809Y-76228095D01*
X120794285Y-76942380D01*
X121032380Y-75942380D01*
X121937142Y-76942380D02*
X121365714Y-76942380D01*
X121651428Y-76942380D02*
X121651428Y-75942380D01*
X121556190Y-76085238D01*
X121460952Y-76180476D01*
X121365714Y-76228095D01*
X122318095Y-76037619D02*
X122365714Y-75990000D01*
X122460952Y-75942380D01*
X122699047Y-75942380D01*
X122794285Y-75990000D01*
X122841904Y-76037619D01*
X122889523Y-76132857D01*
X122889523Y-76228095D01*
X122841904Y-76370952D01*
X122270476Y-76942380D01*
X122889523Y-76942380D01*
%TO.C,SW14*%
X43290476Y-106904761D02*
X43433333Y-106952380D01*
X43671428Y-106952380D01*
X43766666Y-106904761D01*
X43814285Y-106857142D01*
X43861904Y-106761904D01*
X43861904Y-106666666D01*
X43814285Y-106571428D01*
X43766666Y-106523809D01*
X43671428Y-106476190D01*
X43480952Y-106428571D01*
X43385714Y-106380952D01*
X43338095Y-106333333D01*
X43290476Y-106238095D01*
X43290476Y-106142857D01*
X43338095Y-106047619D01*
X43385714Y-106000000D01*
X43480952Y-105952380D01*
X43719047Y-105952380D01*
X43861904Y-106000000D01*
X44195238Y-105952380D02*
X44433333Y-106952380D01*
X44623809Y-106238095D01*
X44814285Y-106952380D01*
X45052380Y-105952380D01*
X45957142Y-106952380D02*
X45385714Y-106952380D01*
X45671428Y-106952380D02*
X45671428Y-105952380D01*
X45576190Y-106095238D01*
X45480952Y-106190476D01*
X45385714Y-106238095D01*
X46814285Y-106285714D02*
X46814285Y-106952380D01*
X46576190Y-105904761D02*
X46338095Y-106619047D01*
X46957142Y-106619047D01*
%TO.C,SW15*%
X66616476Y-94012761D02*
X66759333Y-94060380D01*
X66997428Y-94060380D01*
X67092666Y-94012761D01*
X67140285Y-93965142D01*
X67187904Y-93869904D01*
X67187904Y-93774666D01*
X67140285Y-93679428D01*
X67092666Y-93631809D01*
X66997428Y-93584190D01*
X66806952Y-93536571D01*
X66711714Y-93488952D01*
X66664095Y-93441333D01*
X66616476Y-93346095D01*
X66616476Y-93250857D01*
X66664095Y-93155619D01*
X66711714Y-93108000D01*
X66806952Y-93060380D01*
X67045047Y-93060380D01*
X67187904Y-93108000D01*
X67521238Y-93060380D02*
X67759333Y-94060380D01*
X67949809Y-93346095D01*
X68140285Y-94060380D01*
X68378380Y-93060380D01*
X69283142Y-94060380D02*
X68711714Y-94060380D01*
X68997428Y-94060380D02*
X68997428Y-93060380D01*
X68902190Y-93203238D01*
X68806952Y-93298476D01*
X68711714Y-93346095D01*
X70187904Y-93060380D02*
X69711714Y-93060380D01*
X69664095Y-93536571D01*
X69711714Y-93488952D01*
X69806952Y-93441333D01*
X70045047Y-93441333D01*
X70140285Y-93488952D01*
X70187904Y-93536571D01*
X70235523Y-93631809D01*
X70235523Y-93869904D01*
X70187904Y-93965142D01*
X70140285Y-94012761D01*
X70045047Y-94060380D01*
X69806952Y-94060380D01*
X69711714Y-94012761D01*
X69664095Y-93965142D01*
%TO.C,SW16*%
X81290476Y-88800761D02*
X81433333Y-88848380D01*
X81671428Y-88848380D01*
X81766666Y-88800761D01*
X81814285Y-88753142D01*
X81861904Y-88657904D01*
X81861904Y-88562666D01*
X81814285Y-88467428D01*
X81766666Y-88419809D01*
X81671428Y-88372190D01*
X81480952Y-88324571D01*
X81385714Y-88276952D01*
X81338095Y-88229333D01*
X81290476Y-88134095D01*
X81290476Y-88038857D01*
X81338095Y-87943619D01*
X81385714Y-87896000D01*
X81480952Y-87848380D01*
X81719047Y-87848380D01*
X81861904Y-87896000D01*
X82195238Y-87848380D02*
X82433333Y-88848380D01*
X82623809Y-88134095D01*
X82814285Y-88848380D01*
X83052380Y-87848380D01*
X83957142Y-88848380D02*
X83385714Y-88848380D01*
X83671428Y-88848380D02*
X83671428Y-87848380D01*
X83576190Y-87991238D01*
X83480952Y-88086476D01*
X83385714Y-88134095D01*
X84814285Y-87848380D02*
X84623809Y-87848380D01*
X84528571Y-87896000D01*
X84480952Y-87943619D01*
X84385714Y-88086476D01*
X84338095Y-88276952D01*
X84338095Y-88657904D01*
X84385714Y-88753142D01*
X84433333Y-88800761D01*
X84528571Y-88848380D01*
X84719047Y-88848380D01*
X84814285Y-88800761D01*
X84861904Y-88753142D01*
X84909523Y-88657904D01*
X84909523Y-88419809D01*
X84861904Y-88324571D01*
X84814285Y-88276952D01*
X84719047Y-88229333D01*
X84528571Y-88229333D01*
X84433333Y-88276952D01*
X84385714Y-88324571D01*
X84338095Y-88419809D01*
%TO.C,SW17*%
X100290476Y-93372761D02*
X100433333Y-93420380D01*
X100671428Y-93420380D01*
X100766666Y-93372761D01*
X100814285Y-93325142D01*
X100861904Y-93229904D01*
X100861904Y-93134666D01*
X100814285Y-93039428D01*
X100766666Y-92991809D01*
X100671428Y-92944190D01*
X100480952Y-92896571D01*
X100385714Y-92848952D01*
X100338095Y-92801333D01*
X100290476Y-92706095D01*
X100290476Y-92610857D01*
X100338095Y-92515619D01*
X100385714Y-92468000D01*
X100480952Y-92420380D01*
X100719047Y-92420380D01*
X100861904Y-92468000D01*
X101195238Y-92420380D02*
X101433333Y-93420380D01*
X101623809Y-92706095D01*
X101814285Y-93420380D01*
X102052380Y-92420380D01*
X102957142Y-93420380D02*
X102385714Y-93420380D01*
X102671428Y-93420380D02*
X102671428Y-92420380D01*
X102576190Y-92563238D01*
X102480952Y-92658476D01*
X102385714Y-92706095D01*
X103290476Y-92420380D02*
X103957142Y-92420380D01*
X103528571Y-93420380D01*
%TO.C,SW20*%
X133517128Y-124638556D02*
X133617036Y-124751224D01*
X133823233Y-124870271D01*
X133929521Y-124876651D01*
X133994570Y-124859221D01*
X134083428Y-124800552D01*
X134131047Y-124718073D01*
X134137427Y-124611785D01*
X134119997Y-124546736D01*
X134061328Y-124457878D01*
X133920180Y-124321401D01*
X133861511Y-124232542D01*
X133844082Y-124167494D01*
X133850461Y-124061205D01*
X133898080Y-123978727D01*
X133986939Y-123920058D01*
X134051988Y-123902628D01*
X134158276Y-123909008D01*
X134364472Y-124028055D01*
X134464381Y-124140723D01*
X134776865Y-124266151D02*
X134483062Y-125251224D01*
X135005162Y-124727872D01*
X134812976Y-125441700D01*
X135519173Y-124694722D01*
X135760229Y-124943867D02*
X135825278Y-124926437D01*
X135931566Y-124932817D01*
X136137762Y-125051865D01*
X136196431Y-125140723D01*
X136213861Y-125205772D01*
X136207481Y-125312060D01*
X136159862Y-125394539D01*
X136047194Y-125494447D01*
X135266609Y-125703605D01*
X135802720Y-126013128D01*
X136838830Y-125456627D02*
X136921309Y-125504246D01*
X136979978Y-125593104D01*
X136997408Y-125658153D01*
X136991028Y-125764441D01*
X136937029Y-125953208D01*
X136817982Y-126159404D01*
X136681504Y-126300552D01*
X136592646Y-126359221D01*
X136527597Y-126376651D01*
X136421309Y-126370271D01*
X136338830Y-126322652D01*
X136280161Y-126233794D01*
X136262732Y-126168745D01*
X136269111Y-126062457D01*
X136323110Y-125873690D01*
X136442158Y-125667494D01*
X136578635Y-125526346D01*
X136667494Y-125467677D01*
X136732542Y-125450247D01*
X136838830Y-125456627D01*
%TO.C,SW21*%
X111715928Y-116026142D02*
X111841592Y-116109113D01*
X112071575Y-116170736D01*
X112175892Y-116149389D01*
X112234213Y-116115718D01*
X112304859Y-116036049D01*
X112329509Y-115944057D01*
X112308162Y-115839739D01*
X112274490Y-115781418D01*
X112194822Y-115710772D01*
X112023161Y-115615476D01*
X111943492Y-115544831D01*
X111909821Y-115486509D01*
X111888474Y-115382192D01*
X111913123Y-115290199D01*
X111983769Y-115210531D01*
X112042090Y-115176859D01*
X112146408Y-115155512D01*
X112376390Y-115217135D01*
X112502055Y-115300106D01*
X112836355Y-115340383D02*
X112807518Y-116367932D01*
X113176375Y-115727284D01*
X113175490Y-116466530D01*
X113664291Y-115562227D01*
X113961617Y-115740493D02*
X114019938Y-115706822D01*
X114124256Y-115685475D01*
X114354238Y-115747098D01*
X114433907Y-115817744D01*
X114467578Y-115876065D01*
X114488925Y-115980383D01*
X114464276Y-116072376D01*
X114381305Y-116198041D01*
X113681451Y-116602102D01*
X114279405Y-116762323D01*
X115199334Y-117008817D02*
X114647377Y-116860921D01*
X114923356Y-116934869D02*
X115182175Y-115968943D01*
X115053208Y-116082283D01*
X114936565Y-116149627D01*
X114832248Y-116170974D01*
%TO.C,SW18*%
X119270476Y-95912761D02*
X119413333Y-95960380D01*
X119651428Y-95960380D01*
X119746666Y-95912761D01*
X119794285Y-95865142D01*
X119841904Y-95769904D01*
X119841904Y-95674666D01*
X119794285Y-95579428D01*
X119746666Y-95531809D01*
X119651428Y-95484190D01*
X119460952Y-95436571D01*
X119365714Y-95388952D01*
X119318095Y-95341333D01*
X119270476Y-95246095D01*
X119270476Y-95150857D01*
X119318095Y-95055619D01*
X119365714Y-95008000D01*
X119460952Y-94960380D01*
X119699047Y-94960380D01*
X119841904Y-95008000D01*
X120175238Y-94960380D02*
X120413333Y-95960380D01*
X120603809Y-95246095D01*
X120794285Y-95960380D01*
X121032380Y-94960380D01*
X121937142Y-95960380D02*
X121365714Y-95960380D01*
X121651428Y-95960380D02*
X121651428Y-94960380D01*
X121556190Y-95103238D01*
X121460952Y-95198476D01*
X121365714Y-95246095D01*
X122508571Y-95388952D02*
X122413333Y-95341333D01*
X122365714Y-95293714D01*
X122318095Y-95198476D01*
X122318095Y-95150857D01*
X122365714Y-95055619D01*
X122413333Y-95008000D01*
X122508571Y-94960380D01*
X122699047Y-94960380D01*
X122794285Y-95008000D01*
X122841904Y-95055619D01*
X122889523Y-95150857D01*
X122889523Y-95198476D01*
X122841904Y-95293714D01*
X122794285Y-95341333D01*
X122699047Y-95388952D01*
X122508571Y-95388952D01*
X122413333Y-95436571D01*
X122365714Y-95484190D01*
X122318095Y-95579428D01*
X122318095Y-95769904D01*
X122365714Y-95865142D01*
X122413333Y-95912761D01*
X122508571Y-95960380D01*
X122699047Y-95960380D01*
X122794285Y-95912761D01*
X122841904Y-95865142D01*
X122889523Y-95769904D01*
X122889523Y-95579428D01*
X122841904Y-95484190D01*
X122794285Y-95436571D01*
X122699047Y-95388952D01*
%TO.C,SW11_r1*%
X195709649Y-74322761D02*
X195852506Y-74370380D01*
X196090601Y-74370380D01*
X196185840Y-74322761D01*
X196233459Y-74275142D01*
X196281078Y-74179904D01*
X196281078Y-74084666D01*
X196233459Y-73989428D01*
X196185840Y-73941809D01*
X196090601Y-73894190D01*
X195900125Y-73846571D01*
X195804887Y-73798952D01*
X195757268Y-73751333D01*
X195709649Y-73656095D01*
X195709649Y-73560857D01*
X195757268Y-73465619D01*
X195804887Y-73418000D01*
X195900125Y-73370380D01*
X196138220Y-73370380D01*
X196281078Y-73418000D01*
X196614411Y-73370380D02*
X196852506Y-74370380D01*
X197042982Y-73656095D01*
X197233459Y-74370380D01*
X197471554Y-73370380D01*
X198376316Y-74370380D02*
X197804887Y-74370380D01*
X198090601Y-74370380D02*
X198090601Y-73370380D01*
X197995363Y-73513238D01*
X197900125Y-73608476D01*
X197804887Y-73656095D01*
X199328697Y-74370380D02*
X198757268Y-74370380D01*
X199042982Y-74370380D02*
X199042982Y-73370380D01*
X198947744Y-73513238D01*
X198852506Y-73608476D01*
X198757268Y-73656095D01*
X199519173Y-74465619D02*
X200281078Y-74465619D01*
X200519173Y-74370380D02*
X200519173Y-73703714D01*
X200519173Y-73894190D02*
X200566792Y-73798952D01*
X200614411Y-73751333D01*
X200709649Y-73703714D01*
X200804887Y-73703714D01*
X201662030Y-74370380D02*
X201090601Y-74370380D01*
X201376316Y-74370380D02*
X201376316Y-73370380D01*
X201281078Y-73513238D01*
X201185840Y-73608476D01*
X201090601Y-73656095D01*
%TO.C,SW13_r1*%
X252755649Y-106904761D02*
X252898506Y-106952380D01*
X253136601Y-106952380D01*
X253231840Y-106904761D01*
X253279459Y-106857142D01*
X253327078Y-106761904D01*
X253327078Y-106666666D01*
X253279459Y-106571428D01*
X253231840Y-106523809D01*
X253136601Y-106476190D01*
X252946125Y-106428571D01*
X252850887Y-106380952D01*
X252803268Y-106333333D01*
X252755649Y-106238095D01*
X252755649Y-106142857D01*
X252803268Y-106047619D01*
X252850887Y-106000000D01*
X252946125Y-105952380D01*
X253184220Y-105952380D01*
X253327078Y-106000000D01*
X253660411Y-105952380D02*
X253898506Y-106952380D01*
X254088982Y-106238095D01*
X254279459Y-106952380D01*
X254517554Y-105952380D01*
X255422316Y-106952380D02*
X254850887Y-106952380D01*
X255136601Y-106952380D02*
X255136601Y-105952380D01*
X255041363Y-106095238D01*
X254946125Y-106190476D01*
X254850887Y-106238095D01*
X255755649Y-105952380D02*
X256374697Y-105952380D01*
X256041363Y-106333333D01*
X256184220Y-106333333D01*
X256279459Y-106380952D01*
X256327078Y-106428571D01*
X256374697Y-106523809D01*
X256374697Y-106761904D01*
X256327078Y-106857142D01*
X256279459Y-106904761D01*
X256184220Y-106952380D01*
X255898506Y-106952380D01*
X255803268Y-106904761D01*
X255755649Y-106857142D01*
X256565173Y-107047619D02*
X257327078Y-107047619D01*
X257565173Y-106952380D02*
X257565173Y-106285714D01*
X257565173Y-106476190D02*
X257612792Y-106380952D01*
X257660411Y-106333333D01*
X257755649Y-106285714D01*
X257850887Y-106285714D01*
X258708030Y-106952380D02*
X258136601Y-106952380D01*
X258422316Y-106952380D02*
X258422316Y-105952380D01*
X258327078Y-106095238D01*
X258231840Y-106190476D01*
X258136601Y-106238095D01*
%TO.C,SW15_r1*%
X214711649Y-88800761D02*
X214854506Y-88848380D01*
X215092601Y-88848380D01*
X215187840Y-88800761D01*
X215235459Y-88753142D01*
X215283078Y-88657904D01*
X215283078Y-88562666D01*
X215235459Y-88467428D01*
X215187840Y-88419809D01*
X215092601Y-88372190D01*
X214902125Y-88324571D01*
X214806887Y-88276952D01*
X214759268Y-88229333D01*
X214711649Y-88134095D01*
X214711649Y-88038857D01*
X214759268Y-87943619D01*
X214806887Y-87896000D01*
X214902125Y-87848380D01*
X215140220Y-87848380D01*
X215283078Y-87896000D01*
X215616411Y-87848380D02*
X215854506Y-88848380D01*
X216044982Y-88134095D01*
X216235459Y-88848380D01*
X216473554Y-87848380D01*
X217378316Y-88848380D02*
X216806887Y-88848380D01*
X217092601Y-88848380D02*
X217092601Y-87848380D01*
X216997363Y-87991238D01*
X216902125Y-88086476D01*
X216806887Y-88134095D01*
X218283078Y-87848380D02*
X217806887Y-87848380D01*
X217759268Y-88324571D01*
X217806887Y-88276952D01*
X217902125Y-88229333D01*
X218140220Y-88229333D01*
X218235459Y-88276952D01*
X218283078Y-88324571D01*
X218330697Y-88419809D01*
X218330697Y-88657904D01*
X218283078Y-88753142D01*
X218235459Y-88800761D01*
X218140220Y-88848380D01*
X217902125Y-88848380D01*
X217806887Y-88800761D01*
X217759268Y-88753142D01*
X218521173Y-88943619D02*
X219283078Y-88943619D01*
X219521173Y-88848380D02*
X219521173Y-88181714D01*
X219521173Y-88372190D02*
X219568792Y-88276952D01*
X219616411Y-88229333D01*
X219711649Y-88181714D01*
X219806887Y-88181714D01*
X220664030Y-88848380D02*
X220092601Y-88848380D01*
X220378316Y-88848380D02*
X220378316Y-87848380D01*
X220283078Y-87991238D01*
X220187840Y-88086476D01*
X220092601Y-88134095D01*
%TO.C,SW16_r1*%
X195709649Y-93372761D02*
X195852506Y-93420380D01*
X196090601Y-93420380D01*
X196185840Y-93372761D01*
X196233459Y-93325142D01*
X196281078Y-93229904D01*
X196281078Y-93134666D01*
X196233459Y-93039428D01*
X196185840Y-92991809D01*
X196090601Y-92944190D01*
X195900125Y-92896571D01*
X195804887Y-92848952D01*
X195757268Y-92801333D01*
X195709649Y-92706095D01*
X195709649Y-92610857D01*
X195757268Y-92515619D01*
X195804887Y-92468000D01*
X195900125Y-92420380D01*
X196138220Y-92420380D01*
X196281078Y-92468000D01*
X196614411Y-92420380D02*
X196852506Y-93420380D01*
X197042982Y-92706095D01*
X197233459Y-93420380D01*
X197471554Y-92420380D01*
X198376316Y-93420380D02*
X197804887Y-93420380D01*
X198090601Y-93420380D02*
X198090601Y-92420380D01*
X197995363Y-92563238D01*
X197900125Y-92658476D01*
X197804887Y-92706095D01*
X199233459Y-92420380D02*
X199042982Y-92420380D01*
X198947744Y-92468000D01*
X198900125Y-92515619D01*
X198804887Y-92658476D01*
X198757268Y-92848952D01*
X198757268Y-93229904D01*
X198804887Y-93325142D01*
X198852506Y-93372761D01*
X198947744Y-93420380D01*
X199138220Y-93420380D01*
X199233459Y-93372761D01*
X199281078Y-93325142D01*
X199328697Y-93229904D01*
X199328697Y-92991809D01*
X199281078Y-92896571D01*
X199233459Y-92848952D01*
X199138220Y-92801333D01*
X198947744Y-92801333D01*
X198852506Y-92848952D01*
X198804887Y-92896571D01*
X198757268Y-92991809D01*
X199519173Y-93515619D02*
X200281078Y-93515619D01*
X200519173Y-93420380D02*
X200519173Y-92753714D01*
X200519173Y-92944190D02*
X200566792Y-92848952D01*
X200614411Y-92801333D01*
X200709649Y-92753714D01*
X200804887Y-92753714D01*
X201662030Y-93420380D02*
X201090601Y-93420380D01*
X201376316Y-93420380D02*
X201376316Y-92420380D01*
X201281078Y-92563238D01*
X201185840Y-92658476D01*
X201090601Y-92706095D01*
%TO.C,SW5_r1*%
X196185840Y-55272761D02*
X196328697Y-55320380D01*
X196566792Y-55320380D01*
X196662030Y-55272761D01*
X196709649Y-55225142D01*
X196757268Y-55129904D01*
X196757268Y-55034666D01*
X196709649Y-54939428D01*
X196662030Y-54891809D01*
X196566792Y-54844190D01*
X196376316Y-54796571D01*
X196281078Y-54748952D01*
X196233459Y-54701333D01*
X196185840Y-54606095D01*
X196185840Y-54510857D01*
X196233459Y-54415619D01*
X196281078Y-54368000D01*
X196376316Y-54320380D01*
X196614411Y-54320380D01*
X196757268Y-54368000D01*
X197090601Y-54320380D02*
X197328697Y-55320380D01*
X197519173Y-54606095D01*
X197709649Y-55320380D01*
X197947744Y-54320380D01*
X198804887Y-54320380D02*
X198328697Y-54320380D01*
X198281078Y-54796571D01*
X198328697Y-54748952D01*
X198423935Y-54701333D01*
X198662030Y-54701333D01*
X198757268Y-54748952D01*
X198804887Y-54796571D01*
X198852506Y-54891809D01*
X198852506Y-55129904D01*
X198804887Y-55225142D01*
X198757268Y-55272761D01*
X198662030Y-55320380D01*
X198423935Y-55320380D01*
X198328697Y-55272761D01*
X198281078Y-55225142D01*
X199042982Y-55415619D02*
X199804887Y-55415619D01*
X200042982Y-55320380D02*
X200042982Y-54653714D01*
X200042982Y-54844190D02*
X200090601Y-54748952D01*
X200138220Y-54701333D01*
X200233459Y-54653714D01*
X200328697Y-54653714D01*
X201185840Y-55320380D02*
X200614411Y-55320380D01*
X200900125Y-55320380D02*
X200900125Y-54320380D01*
X200804887Y-54463238D01*
X200709649Y-54558476D01*
X200614411Y-54606095D01*
%TO.C,SW3_r1*%
X234213840Y-56904761D02*
X234356697Y-56952380D01*
X234594792Y-56952380D01*
X234690030Y-56904761D01*
X234737649Y-56857142D01*
X234785268Y-56761904D01*
X234785268Y-56666666D01*
X234737649Y-56571428D01*
X234690030Y-56523809D01*
X234594792Y-56476190D01*
X234404316Y-56428571D01*
X234309078Y-56380952D01*
X234261459Y-56333333D01*
X234213840Y-56238095D01*
X234213840Y-56142857D01*
X234261459Y-56047619D01*
X234309078Y-56000000D01*
X234404316Y-55952380D01*
X234642411Y-55952380D01*
X234785268Y-56000000D01*
X235118601Y-55952380D02*
X235356697Y-56952380D01*
X235547173Y-56238095D01*
X235737649Y-56952380D01*
X235975744Y-55952380D01*
X236261459Y-55952380D02*
X236880506Y-55952380D01*
X236547173Y-56333333D01*
X236690030Y-56333333D01*
X236785268Y-56380952D01*
X236832887Y-56428571D01*
X236880506Y-56523809D01*
X236880506Y-56761904D01*
X236832887Y-56857142D01*
X236785268Y-56904761D01*
X236690030Y-56952380D01*
X236404316Y-56952380D01*
X236309078Y-56904761D01*
X236261459Y-56857142D01*
X237070982Y-57047619D02*
X237832887Y-57047619D01*
X238070982Y-56952380D02*
X238070982Y-56285714D01*
X238070982Y-56476190D02*
X238118601Y-56380952D01*
X238166220Y-56333333D01*
X238261459Y-56285714D01*
X238356697Y-56285714D01*
X239213840Y-56952380D02*
X238642411Y-56952380D01*
X238928125Y-56952380D02*
X238928125Y-55952380D01*
X238832887Y-56095238D01*
X238737649Y-56190476D01*
X238642411Y-56238095D01*
%TO.C,SW4_r1*%
X215187840Y-50764761D02*
X215330697Y-50812380D01*
X215568792Y-50812380D01*
X215664030Y-50764761D01*
X215711649Y-50717142D01*
X215759268Y-50621904D01*
X215759268Y-50526666D01*
X215711649Y-50431428D01*
X215664030Y-50383809D01*
X215568792Y-50336190D01*
X215378316Y-50288571D01*
X215283078Y-50240952D01*
X215235459Y-50193333D01*
X215187840Y-50098095D01*
X215187840Y-50002857D01*
X215235459Y-49907619D01*
X215283078Y-49860000D01*
X215378316Y-49812380D01*
X215616411Y-49812380D01*
X215759268Y-49860000D01*
X216092601Y-49812380D02*
X216330697Y-50812380D01*
X216521173Y-50098095D01*
X216711649Y-50812380D01*
X216949744Y-49812380D01*
X217759268Y-50145714D02*
X217759268Y-50812380D01*
X217521173Y-49764761D02*
X217283078Y-50479047D01*
X217902125Y-50479047D01*
X218044982Y-50907619D02*
X218806887Y-50907619D01*
X219044982Y-50812380D02*
X219044982Y-50145714D01*
X219044982Y-50336190D02*
X219092601Y-50240952D01*
X219140220Y-50193333D01*
X219235459Y-50145714D01*
X219330697Y-50145714D01*
X220187840Y-50812380D02*
X219616411Y-50812380D01*
X219902125Y-50812380D02*
X219902125Y-49812380D01*
X219806887Y-49955238D01*
X219711649Y-50050476D01*
X219616411Y-50098095D01*
%TO.C,SW8_r1*%
X234213840Y-75878761D02*
X234356697Y-75926380D01*
X234594792Y-75926380D01*
X234690030Y-75878761D01*
X234737649Y-75831142D01*
X234785268Y-75735904D01*
X234785268Y-75640666D01*
X234737649Y-75545428D01*
X234690030Y-75497809D01*
X234594792Y-75450190D01*
X234404316Y-75402571D01*
X234309078Y-75354952D01*
X234261459Y-75307333D01*
X234213840Y-75212095D01*
X234213840Y-75116857D01*
X234261459Y-75021619D01*
X234309078Y-74974000D01*
X234404316Y-74926380D01*
X234642411Y-74926380D01*
X234785268Y-74974000D01*
X235118601Y-74926380D02*
X235356697Y-75926380D01*
X235547173Y-75212095D01*
X235737649Y-75926380D01*
X235975744Y-74926380D01*
X236499554Y-75354952D02*
X236404316Y-75307333D01*
X236356697Y-75259714D01*
X236309078Y-75164476D01*
X236309078Y-75116857D01*
X236356697Y-75021619D01*
X236404316Y-74974000D01*
X236499554Y-74926380D01*
X236690030Y-74926380D01*
X236785268Y-74974000D01*
X236832887Y-75021619D01*
X236880506Y-75116857D01*
X236880506Y-75164476D01*
X236832887Y-75259714D01*
X236785268Y-75307333D01*
X236690030Y-75354952D01*
X236499554Y-75354952D01*
X236404316Y-75402571D01*
X236356697Y-75450190D01*
X236309078Y-75545428D01*
X236309078Y-75735904D01*
X236356697Y-75831142D01*
X236404316Y-75878761D01*
X236499554Y-75926380D01*
X236690030Y-75926380D01*
X236785268Y-75878761D01*
X236832887Y-75831142D01*
X236880506Y-75735904D01*
X236880506Y-75545428D01*
X236832887Y-75450190D01*
X236785268Y-75402571D01*
X236690030Y-75354952D01*
X237070982Y-76021619D02*
X237832887Y-76021619D01*
X238070982Y-75926380D02*
X238070982Y-75259714D01*
X238070982Y-75450190D02*
X238118601Y-75354952D01*
X238166220Y-75307333D01*
X238261459Y-75259714D01*
X238356697Y-75259714D01*
X239213840Y-75926380D02*
X238642411Y-75926380D01*
X238928125Y-75926380D02*
X238928125Y-74926380D01*
X238832887Y-75069238D01*
X238737649Y-75164476D01*
X238642411Y-75212095D01*
%TO.C,SW9_r1*%
X215187840Y-69782761D02*
X215330697Y-69830380D01*
X215568792Y-69830380D01*
X215664030Y-69782761D01*
X215711649Y-69735142D01*
X215759268Y-69639904D01*
X215759268Y-69544666D01*
X215711649Y-69449428D01*
X215664030Y-69401809D01*
X215568792Y-69354190D01*
X215378316Y-69306571D01*
X215283078Y-69258952D01*
X215235459Y-69211333D01*
X215187840Y-69116095D01*
X215187840Y-69020857D01*
X215235459Y-68925619D01*
X215283078Y-68878000D01*
X215378316Y-68830380D01*
X215616411Y-68830380D01*
X215759268Y-68878000D01*
X216092601Y-68830380D02*
X216330697Y-69830380D01*
X216521173Y-69116095D01*
X216711649Y-69830380D01*
X216949744Y-68830380D01*
X217378316Y-69830380D02*
X217568792Y-69830380D01*
X217664030Y-69782761D01*
X217711649Y-69735142D01*
X217806887Y-69592285D01*
X217854506Y-69401809D01*
X217854506Y-69020857D01*
X217806887Y-68925619D01*
X217759268Y-68878000D01*
X217664030Y-68830380D01*
X217473554Y-68830380D01*
X217378316Y-68878000D01*
X217330697Y-68925619D01*
X217283078Y-69020857D01*
X217283078Y-69258952D01*
X217330697Y-69354190D01*
X217378316Y-69401809D01*
X217473554Y-69449428D01*
X217664030Y-69449428D01*
X217759268Y-69401809D01*
X217806887Y-69354190D01*
X217854506Y-69258952D01*
X218044982Y-69925619D02*
X218806887Y-69925619D01*
X219044982Y-69830380D02*
X219044982Y-69163714D01*
X219044982Y-69354190D02*
X219092601Y-69258952D01*
X219140220Y-69211333D01*
X219235459Y-69163714D01*
X219330697Y-69163714D01*
X220187840Y-69830380D02*
X219616411Y-69830380D01*
X219902125Y-69830380D02*
X219902125Y-68830380D01*
X219806887Y-68973238D01*
X219711649Y-69068476D01*
X219616411Y-69116095D01*
%TO.C,SW18_r1*%
X233737649Y-94896761D02*
X233880506Y-94944380D01*
X234118601Y-94944380D01*
X234213840Y-94896761D01*
X234261459Y-94849142D01*
X234309078Y-94753904D01*
X234309078Y-94658666D01*
X234261459Y-94563428D01*
X234213840Y-94515809D01*
X234118601Y-94468190D01*
X233928125Y-94420571D01*
X233832887Y-94372952D01*
X233785268Y-94325333D01*
X233737649Y-94230095D01*
X233737649Y-94134857D01*
X233785268Y-94039619D01*
X233832887Y-93992000D01*
X233928125Y-93944380D01*
X234166220Y-93944380D01*
X234309078Y-93992000D01*
X234642411Y-93944380D02*
X234880506Y-94944380D01*
X235070982Y-94230095D01*
X235261459Y-94944380D01*
X235499554Y-93944380D01*
X236404316Y-94944380D02*
X235832887Y-94944380D01*
X236118601Y-94944380D02*
X236118601Y-93944380D01*
X236023363Y-94087238D01*
X235928125Y-94182476D01*
X235832887Y-94230095D01*
X236975744Y-94372952D02*
X236880506Y-94325333D01*
X236832887Y-94277714D01*
X236785268Y-94182476D01*
X236785268Y-94134857D01*
X236832887Y-94039619D01*
X236880506Y-93992000D01*
X236975744Y-93944380D01*
X237166220Y-93944380D01*
X237261459Y-93992000D01*
X237309078Y-94039619D01*
X237356697Y-94134857D01*
X237356697Y-94182476D01*
X237309078Y-94277714D01*
X237261459Y-94325333D01*
X237166220Y-94372952D01*
X236975744Y-94372952D01*
X236880506Y-94420571D01*
X236832887Y-94468190D01*
X236785268Y-94563428D01*
X236785268Y-94753904D01*
X236832887Y-94849142D01*
X236880506Y-94896761D01*
X236975744Y-94944380D01*
X237166220Y-94944380D01*
X237261459Y-94896761D01*
X237309078Y-94849142D01*
X237356697Y-94753904D01*
X237356697Y-94563428D01*
X237309078Y-94468190D01*
X237261459Y-94420571D01*
X237166220Y-94372952D01*
X237547173Y-95039619D02*
X238309078Y-95039619D01*
X238547173Y-94944380D02*
X238547173Y-94277714D01*
X238547173Y-94468190D02*
X238594792Y-94372952D01*
X238642411Y-94325333D01*
X238737649Y-94277714D01*
X238832887Y-94277714D01*
X239690030Y-94944380D02*
X239118601Y-94944380D01*
X239404316Y-94944380D02*
X239404316Y-93944380D01*
X239309078Y-94087238D01*
X239213840Y-94182476D01*
X239118601Y-94230095D01*
%TO.C,SW12_r1*%
X176709649Y-76894761D02*
X176852506Y-76942380D01*
X177090601Y-76942380D01*
X177185840Y-76894761D01*
X177233459Y-76847142D01*
X177281078Y-76751904D01*
X177281078Y-76656666D01*
X177233459Y-76561428D01*
X177185840Y-76513809D01*
X177090601Y-76466190D01*
X176900125Y-76418571D01*
X176804887Y-76370952D01*
X176757268Y-76323333D01*
X176709649Y-76228095D01*
X176709649Y-76132857D01*
X176757268Y-76037619D01*
X176804887Y-75990000D01*
X176900125Y-75942380D01*
X177138220Y-75942380D01*
X177281078Y-75990000D01*
X177614411Y-75942380D02*
X177852506Y-76942380D01*
X178042982Y-76228095D01*
X178233459Y-76942380D01*
X178471554Y-75942380D01*
X179376316Y-76942380D02*
X178804887Y-76942380D01*
X179090601Y-76942380D02*
X179090601Y-75942380D01*
X178995363Y-76085238D01*
X178900125Y-76180476D01*
X178804887Y-76228095D01*
X179757268Y-76037619D02*
X179804887Y-75990000D01*
X179900125Y-75942380D01*
X180138220Y-75942380D01*
X180233459Y-75990000D01*
X180281078Y-76037619D01*
X180328697Y-76132857D01*
X180328697Y-76228095D01*
X180281078Y-76370952D01*
X179709649Y-76942380D01*
X180328697Y-76942380D01*
X180519173Y-77037619D02*
X181281078Y-77037619D01*
X181519173Y-76942380D02*
X181519173Y-76275714D01*
X181519173Y-76466190D02*
X181566792Y-76370952D01*
X181614411Y-76323333D01*
X181709649Y-76275714D01*
X181804887Y-76275714D01*
X182662030Y-76942380D02*
X182090601Y-76942380D01*
X182376316Y-76942380D02*
X182376316Y-75942380D01*
X182281078Y-76085238D01*
X182185840Y-76180476D01*
X182090601Y-76228095D01*
%TO.C,SW7_r1*%
X253231840Y-87904761D02*
X253374697Y-87952380D01*
X253612792Y-87952380D01*
X253708030Y-87904761D01*
X253755649Y-87857142D01*
X253803268Y-87761904D01*
X253803268Y-87666666D01*
X253755649Y-87571428D01*
X253708030Y-87523809D01*
X253612792Y-87476190D01*
X253422316Y-87428571D01*
X253327078Y-87380952D01*
X253279459Y-87333333D01*
X253231840Y-87238095D01*
X253231840Y-87142857D01*
X253279459Y-87047619D01*
X253327078Y-87000000D01*
X253422316Y-86952380D01*
X253660411Y-86952380D01*
X253803268Y-87000000D01*
X254136601Y-86952380D02*
X254374697Y-87952380D01*
X254565173Y-87238095D01*
X254755649Y-87952380D01*
X254993744Y-86952380D01*
X255279459Y-86952380D02*
X255946125Y-86952380D01*
X255517554Y-87952380D01*
X256088982Y-88047619D02*
X256850887Y-88047619D01*
X257088982Y-87952380D02*
X257088982Y-87285714D01*
X257088982Y-87476190D02*
X257136601Y-87380952D01*
X257184220Y-87333333D01*
X257279459Y-87285714D01*
X257374697Y-87285714D01*
X258231840Y-87952380D02*
X257660411Y-87952380D01*
X257946125Y-87952380D02*
X257946125Y-86952380D01*
X257850887Y-87095238D01*
X257755649Y-87190476D01*
X257660411Y-87238095D01*
%TO.C,SW2_r1*%
X253231840Y-68904761D02*
X253374697Y-68952380D01*
X253612792Y-68952380D01*
X253708030Y-68904761D01*
X253755649Y-68857142D01*
X253803268Y-68761904D01*
X253803268Y-68666666D01*
X253755649Y-68571428D01*
X253708030Y-68523809D01*
X253612792Y-68476190D01*
X253422316Y-68428571D01*
X253327078Y-68380952D01*
X253279459Y-68333333D01*
X253231840Y-68238095D01*
X253231840Y-68142857D01*
X253279459Y-68047619D01*
X253327078Y-68000000D01*
X253422316Y-67952380D01*
X253660411Y-67952380D01*
X253803268Y-68000000D01*
X254136601Y-67952380D02*
X254374697Y-68952380D01*
X254565173Y-68238095D01*
X254755649Y-68952380D01*
X254993744Y-67952380D01*
X255327078Y-68047619D02*
X255374697Y-68000000D01*
X255469935Y-67952380D01*
X255708030Y-67952380D01*
X255803268Y-68000000D01*
X255850887Y-68047619D01*
X255898506Y-68142857D01*
X255898506Y-68238095D01*
X255850887Y-68380952D01*
X255279459Y-68952380D01*
X255898506Y-68952380D01*
X256088982Y-69047619D02*
X256850887Y-69047619D01*
X257088982Y-68952380D02*
X257088982Y-68285714D01*
X257088982Y-68476190D02*
X257136601Y-68380952D01*
X257184220Y-68333333D01*
X257279459Y-68285714D01*
X257374697Y-68285714D01*
X258231840Y-68952380D02*
X257660411Y-68952380D01*
X257946125Y-68952380D02*
X257946125Y-67952380D01*
X257850887Y-68095238D01*
X257755649Y-68190476D01*
X257660411Y-68238095D01*
%TO.C,SW6_r1*%
X177185840Y-57904761D02*
X177328697Y-57952380D01*
X177566792Y-57952380D01*
X177662030Y-57904761D01*
X177709649Y-57857142D01*
X177757268Y-57761904D01*
X177757268Y-57666666D01*
X177709649Y-57571428D01*
X177662030Y-57523809D01*
X177566792Y-57476190D01*
X177376316Y-57428571D01*
X177281078Y-57380952D01*
X177233459Y-57333333D01*
X177185840Y-57238095D01*
X177185840Y-57142857D01*
X177233459Y-57047619D01*
X177281078Y-57000000D01*
X177376316Y-56952380D01*
X177614411Y-56952380D01*
X177757268Y-57000000D01*
X178090601Y-56952380D02*
X178328697Y-57952380D01*
X178519173Y-57238095D01*
X178709649Y-57952380D01*
X178947744Y-56952380D01*
X179757268Y-56952380D02*
X179566792Y-56952380D01*
X179471554Y-57000000D01*
X179423935Y-57047619D01*
X179328697Y-57190476D01*
X179281078Y-57380952D01*
X179281078Y-57761904D01*
X179328697Y-57857142D01*
X179376316Y-57904761D01*
X179471554Y-57952380D01*
X179662030Y-57952380D01*
X179757268Y-57904761D01*
X179804887Y-57857142D01*
X179852506Y-57761904D01*
X179852506Y-57523809D01*
X179804887Y-57428571D01*
X179757268Y-57380952D01*
X179662030Y-57333333D01*
X179471554Y-57333333D01*
X179376316Y-57380952D01*
X179328697Y-57428571D01*
X179281078Y-57523809D01*
X180042982Y-58047619D02*
X180804887Y-58047619D01*
X181042982Y-57952380D02*
X181042982Y-57285714D01*
X181042982Y-57476190D02*
X181090601Y-57380952D01*
X181138220Y-57333333D01*
X181233459Y-57285714D01*
X181328697Y-57285714D01*
X182185840Y-57952380D02*
X181614411Y-57952380D01*
X181900125Y-57952380D02*
X181900125Y-56952380D01*
X181804887Y-57095238D01*
X181709649Y-57190476D01*
X181614411Y-57238095D01*
%TO.C,SW20_r1*%
X162712527Y-126969413D02*
X162860054Y-126939224D01*
X163066251Y-126820176D01*
X163124920Y-126731318D01*
X163142350Y-126666269D01*
X163135970Y-126559981D01*
X163088351Y-126477502D01*
X162999493Y-126418833D01*
X162934444Y-126401403D01*
X162828156Y-126407783D01*
X162639389Y-126461782D01*
X162533101Y-126468161D01*
X162468052Y-126450732D01*
X162379194Y-126392063D01*
X162331575Y-126309584D01*
X162325195Y-126203296D01*
X162342625Y-126138247D01*
X162401294Y-126049389D01*
X162607490Y-125930341D01*
X162755018Y-125900152D01*
X163019883Y-125692246D02*
X163726080Y-126439224D01*
X163533894Y-125725396D01*
X164055994Y-126248747D01*
X163762191Y-125263674D01*
X164098485Y-125179486D02*
X164115915Y-125114437D01*
X164174584Y-125025579D01*
X164380780Y-124906531D01*
X164487068Y-124900152D01*
X164552117Y-124917582D01*
X164640976Y-124976251D01*
X164688595Y-125058729D01*
X164718784Y-125206257D01*
X164509627Y-125986843D01*
X165045737Y-125677319D01*
X165081848Y-124501770D02*
X165164327Y-124454151D01*
X165270615Y-124447771D01*
X165335664Y-124465201D01*
X165424522Y-124523870D01*
X165561000Y-124665017D01*
X165680047Y-124871214D01*
X165734046Y-125059981D01*
X165740426Y-125166269D01*
X165722996Y-125231318D01*
X165664327Y-125320176D01*
X165581848Y-125367795D01*
X165475560Y-125374175D01*
X165410511Y-125356745D01*
X165321653Y-125298076D01*
X165185176Y-125156928D01*
X165066128Y-124950732D01*
X165012129Y-124761965D01*
X165005750Y-124655677D01*
X165023179Y-124590628D01*
X165081848Y-124501770D01*
X166083100Y-125188369D02*
X166742929Y-124807416D01*
X166901506Y-124605890D02*
X166568173Y-124028540D01*
X166663411Y-124193497D02*
X166657031Y-124087209D01*
X166674461Y-124022160D01*
X166733130Y-123933302D01*
X166815609Y-123885683D01*
X167891250Y-124034462D02*
X167396378Y-124320176D01*
X167643814Y-124177319D02*
X167143814Y-123311293D01*
X167132764Y-123482630D01*
X167097904Y-123612728D01*
X167039235Y-123701586D01*
%TO.C,SW17_r1*%
X176709649Y-95912761D02*
X176852506Y-95960380D01*
X177090601Y-95960380D01*
X177185840Y-95912761D01*
X177233459Y-95865142D01*
X177281078Y-95769904D01*
X177281078Y-95674666D01*
X177233459Y-95579428D01*
X177185840Y-95531809D01*
X177090601Y-95484190D01*
X176900125Y-95436571D01*
X176804887Y-95388952D01*
X176757268Y-95341333D01*
X176709649Y-95246095D01*
X176709649Y-95150857D01*
X176757268Y-95055619D01*
X176804887Y-95008000D01*
X176900125Y-94960380D01*
X177138220Y-94960380D01*
X177281078Y-95008000D01*
X177614411Y-94960380D02*
X177852506Y-95960380D01*
X178042982Y-95246095D01*
X178233459Y-95960380D01*
X178471554Y-94960380D01*
X179376316Y-95960380D02*
X178804887Y-95960380D01*
X179090601Y-95960380D02*
X179090601Y-94960380D01*
X178995363Y-95103238D01*
X178900125Y-95198476D01*
X178804887Y-95246095D01*
X179709649Y-94960380D02*
X180376316Y-94960380D01*
X179947744Y-95960380D01*
X180519173Y-96055619D02*
X181281078Y-96055619D01*
X181519173Y-95960380D02*
X181519173Y-95293714D01*
X181519173Y-95484190D02*
X181566792Y-95388952D01*
X181614411Y-95341333D01*
X181709649Y-95293714D01*
X181804887Y-95293714D01*
X182662030Y-95960380D02*
X182090601Y-95960380D01*
X182376316Y-95960380D02*
X182376316Y-94960380D01*
X182281078Y-95103238D01*
X182185840Y-95198476D01*
X182090601Y-95246095D01*
%TO.C,SW21_r1*%
X184306451Y-117335013D02*
X184456765Y-117344036D01*
X184686748Y-117282412D01*
X184766416Y-117211766D01*
X184800088Y-117153445D01*
X184821435Y-117049127D01*
X184796785Y-116957134D01*
X184726139Y-116877466D01*
X184667818Y-116843794D01*
X184563501Y-116822447D01*
X184367190Y-116825750D01*
X184262872Y-116804403D01*
X184204551Y-116770731D01*
X184133905Y-116691063D01*
X184109256Y-116599070D01*
X184130603Y-116494752D01*
X184164275Y-116436431D01*
X184243943Y-116365785D01*
X184473925Y-116304161D01*
X184624239Y-116313184D01*
X184933890Y-116180914D02*
X185422691Y-117085217D01*
X185421806Y-116345971D01*
X185790663Y-116986619D01*
X185761826Y-115959069D01*
X186108451Y-115964789D02*
X186142123Y-115906468D01*
X186221791Y-115835822D01*
X186451773Y-115774199D01*
X186556091Y-115795546D01*
X186614412Y-115829217D01*
X186685058Y-115908886D01*
X186709708Y-116000879D01*
X186700685Y-116151193D01*
X186296624Y-116851047D01*
X186894578Y-116690826D01*
X187814508Y-116444331D02*
X187262550Y-116592228D01*
X187538529Y-116518280D02*
X187279710Y-115552354D01*
X187224691Y-115714993D01*
X187157347Y-115831635D01*
X187077679Y-115902281D01*
X188023143Y-116487025D02*
X188759086Y-116289830D01*
X188964419Y-116136213D02*
X188791873Y-115492263D01*
X188841172Y-115676249D02*
X188862519Y-115571931D01*
X188896191Y-115513610D01*
X188975859Y-115442964D01*
X189067852Y-115418315D01*
X190068335Y-115840420D02*
X189516377Y-115988317D01*
X189792356Y-115914368D02*
X189533537Y-114948443D01*
X189478518Y-115111081D01*
X189411174Y-115227724D01*
X189331506Y-115298370D01*
%TO.C,Bat+r1*%
X144506342Y-85328942D02*
X144622457Y-85367647D01*
X144661161Y-85406352D01*
X144699866Y-85483761D01*
X144699866Y-85599876D01*
X144661161Y-85677285D01*
X144622457Y-85715990D01*
X144545047Y-85754695D01*
X144235409Y-85754695D01*
X144235409Y-84941895D01*
X144506342Y-84941895D01*
X144583752Y-84980600D01*
X144622457Y-85019304D01*
X144661161Y-85096714D01*
X144661161Y-85174123D01*
X144622457Y-85251533D01*
X144583752Y-85290238D01*
X144506342Y-85328942D01*
X144235409Y-85328942D01*
X145396552Y-85754695D02*
X145396552Y-85328942D01*
X145357847Y-85251533D01*
X145280438Y-85212828D01*
X145125619Y-85212828D01*
X145048209Y-85251533D01*
X145396552Y-85715990D02*
X145319142Y-85754695D01*
X145125619Y-85754695D01*
X145048209Y-85715990D01*
X145009504Y-85638580D01*
X145009504Y-85561171D01*
X145048209Y-85483761D01*
X145125619Y-85445057D01*
X145319142Y-85445057D01*
X145396552Y-85406352D01*
X145667485Y-85212828D02*
X145977123Y-85212828D01*
X145783600Y-84941895D02*
X145783600Y-85638580D01*
X145822304Y-85715990D01*
X145899714Y-85754695D01*
X145977123Y-85754695D01*
X146248057Y-85445057D02*
X146867333Y-85445057D01*
X146557695Y-85754695D02*
X146557695Y-85135419D01*
X147254380Y-85754695D02*
X147254380Y-85212828D01*
X147254380Y-85367647D02*
X147293085Y-85290238D01*
X147331790Y-85251533D01*
X147409200Y-85212828D01*
X147486609Y-85212828D01*
X148183295Y-85754695D02*
X147718838Y-85754695D01*
X147951066Y-85754695D02*
X147951066Y-84941895D01*
X147873657Y-85058009D01*
X147796247Y-85135419D01*
X147718838Y-85174123D01*
%TO.C,BatGND1*%
X132592533Y-85328942D02*
X132708647Y-85367647D01*
X132747352Y-85406352D01*
X132786057Y-85483761D01*
X132786057Y-85599876D01*
X132747352Y-85677285D01*
X132708647Y-85715990D01*
X132631238Y-85754695D01*
X132321600Y-85754695D01*
X132321600Y-84941895D01*
X132592533Y-84941895D01*
X132669942Y-84980600D01*
X132708647Y-85019304D01*
X132747352Y-85096714D01*
X132747352Y-85174123D01*
X132708647Y-85251533D01*
X132669942Y-85290238D01*
X132592533Y-85328942D01*
X132321600Y-85328942D01*
X133482742Y-85754695D02*
X133482742Y-85328942D01*
X133444038Y-85251533D01*
X133366628Y-85212828D01*
X133211809Y-85212828D01*
X133134400Y-85251533D01*
X133482742Y-85715990D02*
X133405333Y-85754695D01*
X133211809Y-85754695D01*
X133134400Y-85715990D01*
X133095695Y-85638580D01*
X133095695Y-85561171D01*
X133134400Y-85483761D01*
X133211809Y-85445057D01*
X133405333Y-85445057D01*
X133482742Y-85406352D01*
X133753676Y-85212828D02*
X134063314Y-85212828D01*
X133869790Y-84941895D02*
X133869790Y-85638580D01*
X133908495Y-85715990D01*
X133985904Y-85754695D01*
X134063314Y-85754695D01*
X134760000Y-84980600D02*
X134682590Y-84941895D01*
X134566476Y-84941895D01*
X134450361Y-84980600D01*
X134372952Y-85058009D01*
X134334247Y-85135419D01*
X134295542Y-85290238D01*
X134295542Y-85406352D01*
X134334247Y-85561171D01*
X134372952Y-85638580D01*
X134450361Y-85715990D01*
X134566476Y-85754695D01*
X134643885Y-85754695D01*
X134760000Y-85715990D01*
X134798704Y-85677285D01*
X134798704Y-85406352D01*
X134643885Y-85406352D01*
X135147047Y-85754695D02*
X135147047Y-84941895D01*
X135611504Y-85754695D01*
X135611504Y-84941895D01*
X135998552Y-85754695D02*
X135998552Y-84941895D01*
X136192076Y-84941895D01*
X136308190Y-84980600D01*
X136385600Y-85058009D01*
X136424304Y-85135419D01*
X136463009Y-85290238D01*
X136463009Y-85406352D01*
X136424304Y-85561171D01*
X136385600Y-85638580D01*
X136308190Y-85715990D01*
X136192076Y-85754695D01*
X135998552Y-85754695D01*
X137237104Y-85754695D02*
X136772647Y-85754695D01*
X137004876Y-85754695D02*
X137004876Y-84941895D01*
X136927466Y-85058009D01*
X136850057Y-85135419D01*
X136772647Y-85174123D01*
D12*
%TO.C,REF\u002A\u002A*%
X92051214Y-96353000D02*
X92051214Y-95972047D01*
X91717880Y-96210142D02*
X92575023Y-96210142D01*
X92670261Y-96162523D01*
X92717880Y-96067285D01*
X92717880Y-95972047D01*
X92670261Y-95257761D02*
X92717880Y-95353000D01*
X92717880Y-95543476D01*
X92670261Y-95638714D01*
X92575023Y-95686333D01*
X92194071Y-95686333D01*
X92098833Y-95638714D01*
X92051214Y-95543476D01*
X92051214Y-95353000D01*
X92098833Y-95257761D01*
X92194071Y-95210142D01*
X92289309Y-95210142D01*
X92384547Y-95686333D01*
X92051214Y-94781571D02*
X92717880Y-94781571D01*
X92146452Y-94781571D02*
X92098833Y-94733952D01*
X92051214Y-94638714D01*
X92051214Y-94495857D01*
X92098833Y-94400619D01*
X92194071Y-94353000D01*
X92717880Y-94353000D01*
X92051214Y-94019666D02*
X92051214Y-93638714D01*
X91717880Y-93876809D02*
X92575023Y-93876809D01*
X92670261Y-93829190D01*
X92717880Y-93733952D01*
X92717880Y-93638714D01*
X92717880Y-93305380D02*
X92051214Y-93305380D01*
X91717880Y-93305380D02*
X91765500Y-93353000D01*
X91813119Y-93305380D01*
X91765500Y-93257761D01*
X91717880Y-93305380D01*
X91813119Y-93305380D01*
X92051214Y-92829190D02*
X92717880Y-92829190D01*
X92146452Y-92829190D02*
X92098833Y-92781571D01*
X92051214Y-92686333D01*
X92051214Y-92543476D01*
X92098833Y-92448238D01*
X92194071Y-92400619D01*
X92717880Y-92400619D01*
X92051214Y-91495857D02*
X92860738Y-91495857D01*
X92955976Y-91543476D01*
X93003595Y-91591095D01*
X93051214Y-91686333D01*
X93051214Y-91829190D01*
X93003595Y-91924428D01*
X92670261Y-91495857D02*
X92717880Y-91591095D01*
X92717880Y-91781571D01*
X92670261Y-91876809D01*
X92622642Y-91924428D01*
X92527404Y-91972047D01*
X92241690Y-91972047D01*
X92146452Y-91924428D01*
X92098833Y-91876809D01*
X92051214Y-91781571D01*
X92051214Y-91591095D01*
X92098833Y-91495857D01*
X91987714Y-82462500D02*
X92987714Y-82462500D01*
X92035333Y-82462500D02*
X91987714Y-82367261D01*
X91987714Y-82176785D01*
X92035333Y-82081547D01*
X92082952Y-82033928D01*
X92178190Y-81986309D01*
X92463904Y-81986309D01*
X92559142Y-82033928D01*
X92606761Y-82081547D01*
X92654380Y-82176785D01*
X92654380Y-82367261D01*
X92606761Y-82462500D01*
X91987714Y-81129166D02*
X92654380Y-81129166D01*
X91987714Y-81557738D02*
X92511523Y-81557738D01*
X92606761Y-81510119D01*
X92654380Y-81414880D01*
X92654380Y-81272023D01*
X92606761Y-81176785D01*
X92559142Y-81129166D01*
X92606761Y-80224404D02*
X92654380Y-80319642D01*
X92654380Y-80510119D01*
X92606761Y-80605357D01*
X92559142Y-80652976D01*
X92463904Y-80700595D01*
X92178190Y-80700595D01*
X92082952Y-80652976D01*
X92035333Y-80605357D01*
X91987714Y-80510119D01*
X91987714Y-80319642D01*
X92035333Y-80224404D01*
X92654380Y-79795833D02*
X91654380Y-79795833D01*
X92273428Y-79700595D02*
X92654380Y-79414880D01*
X91987714Y-79414880D02*
X92368666Y-79795833D01*
D11*
%TO.C,SW2*%
X139268666Y-83394761D02*
X139411523Y-83442380D01*
X139649619Y-83442380D01*
X139744857Y-83394761D01*
X139792476Y-83347142D01*
X139840095Y-83251904D01*
X139840095Y-83156666D01*
X139792476Y-83061428D01*
X139744857Y-83013809D01*
X139649619Y-82966190D01*
X139459142Y-82918571D01*
X139363904Y-82870952D01*
X139316285Y-82823333D01*
X139268666Y-82728095D01*
X139268666Y-82632857D01*
X139316285Y-82537619D01*
X139363904Y-82490000D01*
X139459142Y-82442380D01*
X139697238Y-82442380D01*
X139840095Y-82490000D01*
X140173428Y-82442380D02*
X140411523Y-83442380D01*
X140602000Y-82728095D01*
X140792476Y-83442380D01*
X141030571Y-82442380D01*
X141363904Y-82537619D02*
X141411523Y-82490000D01*
X141506761Y-82442380D01*
X141744857Y-82442380D01*
X141840095Y-82490000D01*
X141887714Y-82537619D01*
X141935333Y-82632857D01*
X141935333Y-82728095D01*
X141887714Y-82870952D01*
X141316285Y-83442380D01*
X141935333Y-83442380D01*
D13*
%TO.C,U1*%
X145593047Y-90491000D02*
X145545428Y-90455285D01*
X145474000Y-90455285D01*
X145402571Y-90491000D01*
X145354952Y-90562428D01*
X145331142Y-90633857D01*
X145307333Y-90776714D01*
X145307333Y-90883857D01*
X145331142Y-91026714D01*
X145354952Y-91098142D01*
X145402571Y-91169571D01*
X145474000Y-91205285D01*
X145521619Y-91205285D01*
X145593047Y-91169571D01*
X145616857Y-91133857D01*
X145616857Y-90883857D01*
X145521619Y-90883857D01*
X145831142Y-91205285D02*
X145831142Y-90455285D01*
X146116857Y-91205285D01*
X146116857Y-90455285D01*
X146354952Y-91205285D02*
X146354952Y-90455285D01*
X146474000Y-90455285D01*
X146545428Y-90491000D01*
X146593047Y-90562428D01*
X146616857Y-90633857D01*
X146640666Y-90776714D01*
X146640666Y-90883857D01*
X146616857Y-91026714D01*
X146593047Y-91098142D01*
X146545428Y-91169571D01*
X146474000Y-91205285D01*
X146354952Y-91205285D01*
D11*
D13*
X134078761Y-86065285D02*
X133912095Y-85708142D01*
X133793047Y-86065285D02*
X133793047Y-85315285D01*
X133983523Y-85315285D01*
X134031142Y-85351000D01*
X134054952Y-85386714D01*
X134078761Y-85458142D01*
X134078761Y-85565285D01*
X134054952Y-85636714D01*
X134031142Y-85672428D01*
X133983523Y-85708142D01*
X133793047Y-85708142D01*
X134269238Y-85851000D02*
X134507333Y-85851000D01*
X134221619Y-86065285D02*
X134388285Y-85315285D01*
X134554952Y-86065285D01*
X134674000Y-85315285D02*
X134793047Y-86065285D01*
X134888285Y-85529571D01*
X134983523Y-86065285D01*
X135102571Y-85315285D01*
X133943047Y-87961000D02*
X133895428Y-87925285D01*
X133824000Y-87925285D01*
X133752571Y-87961000D01*
X133704952Y-88032428D01*
X133681142Y-88103857D01*
X133657333Y-88246714D01*
X133657333Y-88353857D01*
X133681142Y-88496714D01*
X133704952Y-88568142D01*
X133752571Y-88639571D01*
X133824000Y-88675285D01*
X133871619Y-88675285D01*
X133943047Y-88639571D01*
X133966857Y-88603857D01*
X133966857Y-88353857D01*
X133871619Y-88353857D01*
X134181142Y-88675285D02*
X134181142Y-87925285D01*
X134466857Y-88675285D01*
X134466857Y-87925285D01*
X134704952Y-88675285D02*
X134704952Y-87925285D01*
X134824000Y-87925285D01*
X134895428Y-87961000D01*
X134943047Y-88032428D01*
X134966857Y-88103857D01*
X134990666Y-88246714D01*
X134990666Y-88353857D01*
X134966857Y-88496714D01*
X134943047Y-88568142D01*
X134895428Y-88639571D01*
X134824000Y-88675285D01*
X134704952Y-88675285D01*
D14*
X137597571Y-81635285D02*
X137597571Y-80885285D01*
X137847571Y-81421000D01*
X138097571Y-80885285D01*
X138097571Y-81635285D01*
X138454714Y-81635285D02*
X138454714Y-81135285D01*
X138454714Y-80885285D02*
X138419000Y-80921000D01*
X138454714Y-80956714D01*
X138490428Y-80921000D01*
X138454714Y-80885285D01*
X138454714Y-80956714D01*
X139133285Y-81599571D02*
X139061857Y-81635285D01*
X138919000Y-81635285D01*
X138847571Y-81599571D01*
X138811857Y-81563857D01*
X138776142Y-81492428D01*
X138776142Y-81278142D01*
X138811857Y-81206714D01*
X138847571Y-81171000D01*
X138919000Y-81135285D01*
X139061857Y-81135285D01*
X139133285Y-81171000D01*
X139454714Y-81635285D02*
X139454714Y-81135285D01*
X139454714Y-81278142D02*
X139490428Y-81206714D01*
X139526142Y-81171000D01*
X139597571Y-81135285D01*
X139669000Y-81135285D01*
X140026142Y-81635285D02*
X139954714Y-81599571D01*
X139919000Y-81563857D01*
X139883285Y-81492428D01*
X139883285Y-81278142D01*
X139919000Y-81206714D01*
X139954714Y-81171000D01*
X140026142Y-81135285D01*
X140133285Y-81135285D01*
X140204714Y-81171000D01*
X140240428Y-81206714D01*
X140276142Y-81278142D01*
X140276142Y-81492428D01*
X140240428Y-81563857D01*
X140204714Y-81599571D01*
X140133285Y-81635285D01*
X140026142Y-81635285D01*
X140597571Y-80885285D02*
X140597571Y-81492428D01*
X140633285Y-81563857D01*
X140669000Y-81599571D01*
X140740428Y-81635285D01*
X140883285Y-81635285D01*
X140954714Y-81599571D01*
X140990428Y-81563857D01*
X141026142Y-81492428D01*
X141026142Y-80885285D01*
X141347571Y-81599571D02*
X141454714Y-81635285D01*
X141633285Y-81635285D01*
X141704714Y-81599571D01*
X141740428Y-81563857D01*
X141776142Y-81492428D01*
X141776142Y-81421000D01*
X141740428Y-81349571D01*
X141704714Y-81313857D01*
X141633285Y-81278142D01*
X141490428Y-81242428D01*
X141419000Y-81206714D01*
X141383285Y-81171000D01*
X141347571Y-81099571D01*
X141347571Y-81028142D01*
X141383285Y-80956714D01*
X141419000Y-80921000D01*
X141490428Y-80885285D01*
X141669000Y-80885285D01*
X141776142Y-80921000D01*
X142347571Y-81242428D02*
X142454714Y-81278142D01*
X142490428Y-81313857D01*
X142526142Y-81385285D01*
X142526142Y-81492428D01*
X142490428Y-81563857D01*
X142454714Y-81599571D01*
X142383285Y-81635285D01*
X142097571Y-81635285D01*
X142097571Y-80885285D01*
X142347571Y-80885285D01*
X142419000Y-80921000D01*
X142454714Y-80956714D01*
X142490428Y-81028142D01*
X142490428Y-81099571D01*
X142454714Y-81171000D01*
X142419000Y-81206714D01*
X142347571Y-81242428D01*
X142097571Y-81242428D01*
D13*
X145573047Y-93071000D02*
X145525428Y-93035285D01*
X145454000Y-93035285D01*
X145382571Y-93071000D01*
X145334952Y-93142428D01*
X145311142Y-93213857D01*
X145287333Y-93356714D01*
X145287333Y-93463857D01*
X145311142Y-93606714D01*
X145334952Y-93678142D01*
X145382571Y-93749571D01*
X145454000Y-93785285D01*
X145501619Y-93785285D01*
X145573047Y-93749571D01*
X145596857Y-93713857D01*
X145596857Y-93463857D01*
X145501619Y-93463857D01*
X145811142Y-93785285D02*
X145811142Y-93035285D01*
X146096857Y-93785285D01*
X146096857Y-93035285D01*
X146334952Y-93785285D02*
X146334952Y-93035285D01*
X146454000Y-93035285D01*
X146525428Y-93071000D01*
X146573047Y-93142428D01*
X146596857Y-93213857D01*
X146620666Y-93356714D01*
X146620666Y-93463857D01*
X146596857Y-93606714D01*
X146573047Y-93678142D01*
X146525428Y-93749571D01*
X146454000Y-93785285D01*
X146334952Y-93785285D01*
D11*
%TO.C,BatGND4*%
X164292373Y-85074942D02*
X164408487Y-85113647D01*
X164447192Y-85152352D01*
X164485897Y-85229761D01*
X164485897Y-85345876D01*
X164447192Y-85423285D01*
X164408487Y-85461990D01*
X164331078Y-85500695D01*
X164021440Y-85500695D01*
X164021440Y-84687895D01*
X164292373Y-84687895D01*
X164369782Y-84726600D01*
X164408487Y-84765304D01*
X164447192Y-84842714D01*
X164447192Y-84920123D01*
X164408487Y-84997533D01*
X164369782Y-85036238D01*
X164292373Y-85074942D01*
X164021440Y-85074942D01*
X165182582Y-85500695D02*
X165182582Y-85074942D01*
X165143878Y-84997533D01*
X165066468Y-84958828D01*
X164911649Y-84958828D01*
X164834240Y-84997533D01*
X165182582Y-85461990D02*
X165105173Y-85500695D01*
X164911649Y-85500695D01*
X164834240Y-85461990D01*
X164795535Y-85384580D01*
X164795535Y-85307171D01*
X164834240Y-85229761D01*
X164911649Y-85191057D01*
X165105173Y-85191057D01*
X165182582Y-85152352D01*
X165453516Y-84958828D02*
X165763154Y-84958828D01*
X165569630Y-84687895D02*
X165569630Y-85384580D01*
X165608335Y-85461990D01*
X165685744Y-85500695D01*
X165763154Y-85500695D01*
X166459840Y-84726600D02*
X166382430Y-84687895D01*
X166266316Y-84687895D01*
X166150201Y-84726600D01*
X166072792Y-84804009D01*
X166034087Y-84881419D01*
X165995382Y-85036238D01*
X165995382Y-85152352D01*
X166034087Y-85307171D01*
X166072792Y-85384580D01*
X166150201Y-85461990D01*
X166266316Y-85500695D01*
X166343725Y-85500695D01*
X166459840Y-85461990D01*
X166498544Y-85423285D01*
X166498544Y-85152352D01*
X166343725Y-85152352D01*
X166846887Y-85500695D02*
X166846887Y-84687895D01*
X167311344Y-85500695D01*
X167311344Y-84687895D01*
X167698392Y-85500695D02*
X167698392Y-84687895D01*
X167891916Y-84687895D01*
X168008030Y-84726600D01*
X168085440Y-84804009D01*
X168124144Y-84881419D01*
X168162849Y-85036238D01*
X168162849Y-85152352D01*
X168124144Y-85307171D01*
X168085440Y-85384580D01*
X168008030Y-85461990D01*
X167891916Y-85500695D01*
X167698392Y-85500695D01*
X168859535Y-84958828D02*
X168859535Y-85500695D01*
X168666011Y-84649190D02*
X168472487Y-85229761D01*
X168975649Y-85229761D01*
%TO.C,Bat+1*%
X153597763Y-85074942D02*
X153713878Y-85113647D01*
X153752582Y-85152352D01*
X153791287Y-85229761D01*
X153791287Y-85345876D01*
X153752582Y-85423285D01*
X153713878Y-85461990D01*
X153636468Y-85500695D01*
X153326830Y-85500695D01*
X153326830Y-84687895D01*
X153597763Y-84687895D01*
X153675173Y-84726600D01*
X153713878Y-84765304D01*
X153752582Y-84842714D01*
X153752582Y-84920123D01*
X153713878Y-84997533D01*
X153675173Y-85036238D01*
X153597763Y-85074942D01*
X153326830Y-85074942D01*
X154487973Y-85500695D02*
X154487973Y-85074942D01*
X154449268Y-84997533D01*
X154371859Y-84958828D01*
X154217040Y-84958828D01*
X154139630Y-84997533D01*
X154487973Y-85461990D02*
X154410563Y-85500695D01*
X154217040Y-85500695D01*
X154139630Y-85461990D01*
X154100925Y-85384580D01*
X154100925Y-85307171D01*
X154139630Y-85229761D01*
X154217040Y-85191057D01*
X154410563Y-85191057D01*
X154487973Y-85152352D01*
X154758906Y-84958828D02*
X155068544Y-84958828D01*
X154875020Y-84687895D02*
X154875020Y-85384580D01*
X154913725Y-85461990D01*
X154991135Y-85500695D01*
X155068544Y-85500695D01*
X155339478Y-85191057D02*
X155958754Y-85191057D01*
X155649116Y-85500695D02*
X155649116Y-84881419D01*
X156771554Y-85500695D02*
X156307097Y-85500695D01*
X156539325Y-85500695D02*
X156539325Y-84687895D01*
X156461916Y-84804009D01*
X156384506Y-84881419D01*
X156307097Y-84920123D01*
D12*
%TO.C,REF\u002A\u002A*%
X207811714Y-82462500D02*
X208811714Y-82462500D01*
X207859333Y-82462500D02*
X207811714Y-82367261D01*
X207811714Y-82176785D01*
X207859333Y-82081547D01*
X207906952Y-82033928D01*
X208002190Y-81986309D01*
X208287904Y-81986309D01*
X208383142Y-82033928D01*
X208430761Y-82081547D01*
X208478380Y-82176785D01*
X208478380Y-82367261D01*
X208430761Y-82462500D01*
X207811714Y-81129166D02*
X208478380Y-81129166D01*
X207811714Y-81557738D02*
X208335523Y-81557738D01*
X208430761Y-81510119D01*
X208478380Y-81414880D01*
X208478380Y-81272023D01*
X208430761Y-81176785D01*
X208383142Y-81129166D01*
X208430761Y-80224404D02*
X208478380Y-80319642D01*
X208478380Y-80510119D01*
X208430761Y-80605357D01*
X208383142Y-80652976D01*
X208287904Y-80700595D01*
X208002190Y-80700595D01*
X207906952Y-80652976D01*
X207859333Y-80605357D01*
X207811714Y-80510119D01*
X207811714Y-80319642D01*
X207859333Y-80224404D01*
X208478380Y-79795833D02*
X207478380Y-79795833D01*
X208097428Y-79700595D02*
X208478380Y-79414880D01*
X207811714Y-79414880D02*
X208192666Y-79795833D01*
X207875214Y-96353000D02*
X207875214Y-95972047D01*
X207541880Y-96210142D02*
X208399023Y-96210142D01*
X208494261Y-96162523D01*
X208541880Y-96067285D01*
X208541880Y-95972047D01*
X208494261Y-95257761D02*
X208541880Y-95353000D01*
X208541880Y-95543476D01*
X208494261Y-95638714D01*
X208399023Y-95686333D01*
X208018071Y-95686333D01*
X207922833Y-95638714D01*
X207875214Y-95543476D01*
X207875214Y-95353000D01*
X207922833Y-95257761D01*
X208018071Y-95210142D01*
X208113309Y-95210142D01*
X208208547Y-95686333D01*
X207875214Y-94781571D02*
X208541880Y-94781571D01*
X207970452Y-94781571D02*
X207922833Y-94733952D01*
X207875214Y-94638714D01*
X207875214Y-94495857D01*
X207922833Y-94400619D01*
X208018071Y-94353000D01*
X208541880Y-94353000D01*
X207875214Y-94019666D02*
X207875214Y-93638714D01*
X207541880Y-93876809D02*
X208399023Y-93876809D01*
X208494261Y-93829190D01*
X208541880Y-93733952D01*
X208541880Y-93638714D01*
X208541880Y-93305380D02*
X207875214Y-93305380D01*
X207541880Y-93305380D02*
X207589500Y-93353000D01*
X207637119Y-93305380D01*
X207589500Y-93257761D01*
X207541880Y-93305380D01*
X207637119Y-93305380D01*
X207875214Y-92829190D02*
X208541880Y-92829190D01*
X207970452Y-92829190D02*
X207922833Y-92781571D01*
X207875214Y-92686333D01*
X207875214Y-92543476D01*
X207922833Y-92448238D01*
X208018071Y-92400619D01*
X208541880Y-92400619D01*
X207875214Y-91495857D02*
X208684738Y-91495857D01*
X208779976Y-91543476D01*
X208827595Y-91591095D01*
X208875214Y-91686333D01*
X208875214Y-91829190D01*
X208827595Y-91924428D01*
X208494261Y-91495857D02*
X208541880Y-91591095D01*
X208541880Y-91781571D01*
X208494261Y-91876809D01*
X208446642Y-91924428D01*
X208351404Y-91972047D01*
X208065690Y-91972047D01*
X207970452Y-91924428D01*
X207922833Y-91876809D01*
X207875214Y-91781571D01*
X207875214Y-91591095D01*
X207922833Y-91495857D01*
D11*
%TO.C,SW2*%
X159538506Y-83902761D02*
X159681363Y-83950380D01*
X159919459Y-83950380D01*
X160014697Y-83902761D01*
X160062316Y-83855142D01*
X160109935Y-83759904D01*
X160109935Y-83664666D01*
X160062316Y-83569428D01*
X160014697Y-83521809D01*
X159919459Y-83474190D01*
X159728982Y-83426571D01*
X159633744Y-83378952D01*
X159586125Y-83331333D01*
X159538506Y-83236095D01*
X159538506Y-83140857D01*
X159586125Y-83045619D01*
X159633744Y-82998000D01*
X159728982Y-82950380D01*
X159967078Y-82950380D01*
X160109935Y-82998000D01*
X160443268Y-82950380D02*
X160681363Y-83950380D01*
X160871840Y-83236095D01*
X161062316Y-83950380D01*
X161300411Y-82950380D01*
X161633744Y-83045619D02*
X161681363Y-82998000D01*
X161776601Y-82950380D01*
X162014697Y-82950380D01*
X162109935Y-82998000D01*
X162157554Y-83045619D01*
X162205173Y-83140857D01*
X162205173Y-83236095D01*
X162157554Y-83378952D01*
X161586125Y-83950380D01*
X162205173Y-83950380D01*
D14*
%TO.C,U2*%
X158021411Y-81635285D02*
X158021411Y-80885285D01*
X158271411Y-81421000D01*
X158521411Y-80885285D01*
X158521411Y-81635285D01*
X158878554Y-81635285D02*
X158878554Y-81135285D01*
X158878554Y-80885285D02*
X158842840Y-80921000D01*
X158878554Y-80956714D01*
X158914268Y-80921000D01*
X158878554Y-80885285D01*
X158878554Y-80956714D01*
X159557125Y-81599571D02*
X159485697Y-81635285D01*
X159342840Y-81635285D01*
X159271411Y-81599571D01*
X159235697Y-81563857D01*
X159199982Y-81492428D01*
X159199982Y-81278142D01*
X159235697Y-81206714D01*
X159271411Y-81171000D01*
X159342840Y-81135285D01*
X159485697Y-81135285D01*
X159557125Y-81171000D01*
X159878554Y-81635285D02*
X159878554Y-81135285D01*
X159878554Y-81278142D02*
X159914268Y-81206714D01*
X159949982Y-81171000D01*
X160021411Y-81135285D01*
X160092840Y-81135285D01*
X160449982Y-81635285D02*
X160378554Y-81599571D01*
X160342840Y-81563857D01*
X160307125Y-81492428D01*
X160307125Y-81278142D01*
X160342840Y-81206714D01*
X160378554Y-81171000D01*
X160449982Y-81135285D01*
X160557125Y-81135285D01*
X160628554Y-81171000D01*
X160664268Y-81206714D01*
X160699982Y-81278142D01*
X160699982Y-81492428D01*
X160664268Y-81563857D01*
X160628554Y-81599571D01*
X160557125Y-81635285D01*
X160449982Y-81635285D01*
X161021411Y-80885285D02*
X161021411Y-81492428D01*
X161057125Y-81563857D01*
X161092840Y-81599571D01*
X161164268Y-81635285D01*
X161307125Y-81635285D01*
X161378554Y-81599571D01*
X161414268Y-81563857D01*
X161449982Y-81492428D01*
X161449982Y-80885285D01*
X161771411Y-81599571D02*
X161878554Y-81635285D01*
X162057125Y-81635285D01*
X162128554Y-81599571D01*
X162164268Y-81563857D01*
X162199982Y-81492428D01*
X162199982Y-81421000D01*
X162164268Y-81349571D01*
X162128554Y-81313857D01*
X162057125Y-81278142D01*
X161914268Y-81242428D01*
X161842840Y-81206714D01*
X161807125Y-81171000D01*
X161771411Y-81099571D01*
X161771411Y-81028142D01*
X161807125Y-80956714D01*
X161842840Y-80921000D01*
X161914268Y-80885285D01*
X162092840Y-80885285D01*
X162199982Y-80921000D01*
X162771411Y-81242428D02*
X162878554Y-81278142D01*
X162914268Y-81313857D01*
X162949982Y-81385285D01*
X162949982Y-81492428D01*
X162914268Y-81563857D01*
X162878554Y-81599571D01*
X162807125Y-81635285D01*
X162521411Y-81635285D01*
X162521411Y-80885285D01*
X162771411Y-80885285D01*
X162842840Y-80921000D01*
X162878554Y-80956714D01*
X162914268Y-81028142D01*
X162914268Y-81099571D01*
X162878554Y-81171000D01*
X162842840Y-81206714D01*
X162771411Y-81242428D01*
X162521411Y-81242428D01*
D13*
X154366887Y-87961000D02*
X154319268Y-87925285D01*
X154247840Y-87925285D01*
X154176411Y-87961000D01*
X154128792Y-88032428D01*
X154104982Y-88103857D01*
X154081173Y-88246714D01*
X154081173Y-88353857D01*
X154104982Y-88496714D01*
X154128792Y-88568142D01*
X154176411Y-88639571D01*
X154247840Y-88675285D01*
X154295459Y-88675285D01*
X154366887Y-88639571D01*
X154390697Y-88603857D01*
X154390697Y-88353857D01*
X154295459Y-88353857D01*
X154604982Y-88675285D02*
X154604982Y-87925285D01*
X154890697Y-88675285D01*
X154890697Y-87925285D01*
X155128792Y-88675285D02*
X155128792Y-87925285D01*
X155247840Y-87925285D01*
X155319268Y-87961000D01*
X155366887Y-88032428D01*
X155390697Y-88103857D01*
X155414506Y-88246714D01*
X155414506Y-88353857D01*
X155390697Y-88496714D01*
X155366887Y-88568142D01*
X155319268Y-88639571D01*
X155247840Y-88675285D01*
X155128792Y-88675285D01*
X165996887Y-93071000D02*
X165949268Y-93035285D01*
X165877840Y-93035285D01*
X165806411Y-93071000D01*
X165758792Y-93142428D01*
X165734982Y-93213857D01*
X165711173Y-93356714D01*
X165711173Y-93463857D01*
X165734982Y-93606714D01*
X165758792Y-93678142D01*
X165806411Y-93749571D01*
X165877840Y-93785285D01*
X165925459Y-93785285D01*
X165996887Y-93749571D01*
X166020697Y-93713857D01*
X166020697Y-93463857D01*
X165925459Y-93463857D01*
X166234982Y-93785285D02*
X166234982Y-93035285D01*
X166520697Y-93785285D01*
X166520697Y-93035285D01*
X166758792Y-93785285D02*
X166758792Y-93035285D01*
X166877840Y-93035285D01*
X166949268Y-93071000D01*
X166996887Y-93142428D01*
X167020697Y-93213857D01*
X167044506Y-93356714D01*
X167044506Y-93463857D01*
X167020697Y-93606714D01*
X166996887Y-93678142D01*
X166949268Y-93749571D01*
X166877840Y-93785285D01*
X166758792Y-93785285D01*
X166016887Y-90491000D02*
X165969268Y-90455285D01*
X165897840Y-90455285D01*
X165826411Y-90491000D01*
X165778792Y-90562428D01*
X165754982Y-90633857D01*
X165731173Y-90776714D01*
X165731173Y-90883857D01*
X165754982Y-91026714D01*
X165778792Y-91098142D01*
X165826411Y-91169571D01*
X165897840Y-91205285D01*
X165945459Y-91205285D01*
X166016887Y-91169571D01*
X166040697Y-91133857D01*
X166040697Y-90883857D01*
X165945459Y-90883857D01*
X166254982Y-91205285D02*
X166254982Y-90455285D01*
X166540697Y-91205285D01*
X166540697Y-90455285D01*
X166778792Y-91205285D02*
X166778792Y-90455285D01*
X166897840Y-90455285D01*
X166969268Y-90491000D01*
X167016887Y-90562428D01*
X167040697Y-90633857D01*
X167064506Y-90776714D01*
X167064506Y-90883857D01*
X167040697Y-91026714D01*
X167016887Y-91098142D01*
X166969268Y-91169571D01*
X166897840Y-91205285D01*
X166778792Y-91205285D01*
D11*
D13*
X154502601Y-86065285D02*
X154335935Y-85708142D01*
X154216887Y-86065285D02*
X154216887Y-85315285D01*
X154407363Y-85315285D01*
X154454982Y-85351000D01*
X154478792Y-85386714D01*
X154502601Y-85458142D01*
X154502601Y-85565285D01*
X154478792Y-85636714D01*
X154454982Y-85672428D01*
X154407363Y-85708142D01*
X154216887Y-85708142D01*
X154693078Y-85851000D02*
X154931173Y-85851000D01*
X154645459Y-86065285D02*
X154812125Y-85315285D01*
X154978792Y-86065285D01*
X155097840Y-85315285D02*
X155216887Y-86065285D01*
X155312125Y-85529571D01*
X155407363Y-86065285D01*
X155526411Y-85315285D01*
D11*
%TO.C,*%
%TO.C,Bat+r1*%
X147190000Y-82736000D02*
X145190000Y-82736000D01*
X145190000Y-84736000D02*
X147190000Y-84736000D01*
X147190000Y-84736000D02*
X147190000Y-82736000D01*
X145190000Y-82736000D02*
X145190000Y-84736000D01*
%TO.C,BatGND1*%
X135760000Y-84736000D02*
X135760000Y-82736000D01*
X133760000Y-82736000D02*
X133760000Y-84736000D01*
X135760000Y-82736000D02*
X133760000Y-82736000D01*
X133760000Y-84736000D02*
X135760000Y-84736000D01*
D15*
%TO.C,REF\u002A\u002A*%
X99464047Y-67708866D02*
G75*
G03*
X95313500Y-66675000I-7008047J-19286134D01*
G01*
X72136000Y-89852500D02*
G75*
G03*
X73169866Y-94003047I20319953J2857490D01*
G01*
X92456000Y-97790001D02*
G75*
G03*
X93584385Y-97730864I0J10794901D01*
G01*
X112776000Y-84137500D02*
G75*
G03*
X111742135Y-79986955I-20320019J-2857506D01*
G01*
X89598500Y-66675000D02*
G75*
G03*
X85447952Y-67708866I2857496J-20319983D01*
G01*
X93584385Y-76259137D02*
G75*
G03*
X92456000Y-76200000I-1128385J-10735763D01*
G01*
X73169866Y-79986952D02*
G75*
G03*
X72136000Y-84137500I19286117J-7008044D01*
G01*
X111742135Y-94003046D02*
G75*
G03*
X112776000Y-89852500I-19286185J7008058D01*
G01*
X85447954Y-106281135D02*
G75*
G03*
X89598500Y-107315000I7008046J19286135D01*
G01*
X92456000Y-76200000D02*
G75*
G03*
X91327615Y-76259136I-6J-10794921D01*
G01*
X91327615Y-97730864D02*
G75*
G03*
X92456000Y-97790000I1128379J10735785D01*
G01*
X95313500Y-107315000D02*
G75*
G03*
X99464047Y-106281134I-2857500J20320000D01*
G01*
G36*
X92529889Y-101179589D02*
G01*
X92528486Y-101072960D01*
X92527442Y-100950304D01*
X92526778Y-100813032D01*
X92526517Y-100662558D01*
X92526514Y-100650822D01*
X92526427Y-99959108D01*
X93034131Y-99449082D01*
X93034279Y-99942650D01*
X93034471Y-100046890D01*
X93034960Y-100143635D01*
X93035710Y-100230521D01*
X93036686Y-100305183D01*
X93037855Y-100365258D01*
X93039182Y-100408381D01*
X93040631Y-100432188D01*
X93041539Y-100436218D01*
X93053970Y-100429904D01*
X93078816Y-100413561D01*
X93102950Y-100396359D01*
X93217647Y-100325637D01*
X93339863Y-100276533D01*
X93470246Y-100248857D01*
X93609447Y-100242419D01*
X93627259Y-100243087D01*
X93716894Y-100249639D01*
X93793377Y-100261576D01*
X93865029Y-100281068D01*
X93940167Y-100310285D01*
X94010018Y-100342924D01*
X94137951Y-100418217D01*
X94250871Y-100510197D01*
X94347765Y-100617186D01*
X94427623Y-100737511D01*
X94489433Y-100869496D01*
X94532185Y-101011465D01*
X94554866Y-101161744D01*
X94558427Y-101251414D01*
X94548136Y-101403892D01*
X94516780Y-101548456D01*
X94463635Y-101687692D01*
X94406380Y-101794611D01*
X94320668Y-101914904D01*
X94219055Y-102019753D01*
X94103722Y-102108075D01*
X93976847Y-102178789D01*
X93840611Y-102230812D01*
X93697192Y-102263065D01*
X93548771Y-102274464D01*
X93448525Y-102269981D01*
X93303917Y-102245100D01*
X93163349Y-102198825D01*
X93030176Y-102132846D01*
X92907756Y-102048849D01*
X92799444Y-101948523D01*
X92791050Y-101939357D01*
X92709919Y-101835237D01*
X92640227Y-101717055D01*
X92585061Y-101591192D01*
X92547508Y-101464032D01*
X92538639Y-101417582D01*
X92536026Y-101389187D01*
X92533681Y-101339115D01*
X92532212Y-101288781D01*
X93028550Y-101288781D01*
X93039122Y-101386330D01*
X93069554Y-101480349D01*
X93098208Y-101534494D01*
X93165142Y-101622777D01*
X93244623Y-101693654D01*
X93334055Y-101746147D01*
X93430841Y-101779279D01*
X93532382Y-101792073D01*
X93636083Y-101783552D01*
X93708910Y-101764264D01*
X93751907Y-101748178D01*
X93792812Y-101730818D01*
X93808979Y-101723042D01*
X93854265Y-101692038D01*
X93903588Y-101645844D01*
X93951645Y-101590388D01*
X93993130Y-101531594D01*
X94014618Y-101493267D01*
X94034799Y-101449021D01*
X94047444Y-101410413D01*
X94054801Y-101368121D01*
X94059119Y-101312818D01*
X94059401Y-101307528D01*
X94056033Y-101200283D01*
X94033177Y-101102391D01*
X93989525Y-101008968D01*
X93971755Y-100980439D01*
X93907213Y-100902535D01*
X93828396Y-100840365D01*
X93738760Y-100794869D01*
X93641761Y-100766991D01*
X93540857Y-100757671D01*
X93439505Y-100767853D01*
X93341159Y-100798478D01*
X93327156Y-100804764D01*
X93239204Y-100857713D01*
X93165214Y-100925927D01*
X93106171Y-101006273D01*
X93063058Y-101095620D01*
X93036856Y-101190833D01*
X93028550Y-101288781D01*
X92532212Y-101288781D01*
X92531628Y-101268778D01*
X92529889Y-101179589D01*
G37*
D16*
X92529889Y-101179589D02*
X92528486Y-101072960D01*
X92527442Y-100950304D01*
X92526778Y-100813032D01*
X92526517Y-100662558D01*
X92526514Y-100650822D01*
X92526427Y-99959108D01*
X93034131Y-99449082D01*
X93034279Y-99942650D01*
X93034471Y-100046890D01*
X93034960Y-100143635D01*
X93035710Y-100230521D01*
X93036686Y-100305183D01*
X93037855Y-100365258D01*
X93039182Y-100408381D01*
X93040631Y-100432188D01*
X93041539Y-100436218D01*
X93053970Y-100429904D01*
X93078816Y-100413561D01*
X93102950Y-100396359D01*
X93217647Y-100325637D01*
X93339863Y-100276533D01*
X93470246Y-100248857D01*
X93609447Y-100242419D01*
X93627259Y-100243087D01*
X93716894Y-100249639D01*
X93793377Y-100261576D01*
X93865029Y-100281068D01*
X93940167Y-100310285D01*
X94010018Y-100342924D01*
X94137951Y-100418217D01*
X94250871Y-100510197D01*
X94347765Y-100617186D01*
X94427623Y-100737511D01*
X94489433Y-100869496D01*
X94532185Y-101011465D01*
X94554866Y-101161744D01*
X94558427Y-101251414D01*
X94548136Y-101403892D01*
X94516780Y-101548456D01*
X94463635Y-101687692D01*
X94406380Y-101794611D01*
X94320668Y-101914904D01*
X94219055Y-102019753D01*
X94103722Y-102108075D01*
X93976847Y-102178789D01*
X93840611Y-102230812D01*
X93697192Y-102263065D01*
X93548771Y-102274464D01*
X93448525Y-102269981D01*
X93303917Y-102245100D01*
X93163349Y-102198825D01*
X93030176Y-102132846D01*
X92907756Y-102048849D01*
X92799444Y-101948523D01*
X92791050Y-101939357D01*
X92709919Y-101835237D01*
X92640227Y-101717055D01*
X92585061Y-101591192D01*
X92547508Y-101464032D01*
X92538639Y-101417582D01*
X92536026Y-101389187D01*
X92533681Y-101339115D01*
X92532212Y-101288781D01*
X93028550Y-101288781D01*
X93039122Y-101386330D01*
X93069554Y-101480349D01*
X93098208Y-101534494D01*
X93165142Y-101622777D01*
X93244623Y-101693654D01*
X93334055Y-101746147D01*
X93430841Y-101779279D01*
X93532382Y-101792073D01*
X93636083Y-101783552D01*
X93708910Y-101764264D01*
X93751907Y-101748178D01*
X93792812Y-101730818D01*
X93808979Y-101723042D01*
X93854265Y-101692038D01*
X93903588Y-101645844D01*
X93951645Y-101590388D01*
X93993130Y-101531594D01*
X94014618Y-101493267D01*
X94034799Y-101449021D01*
X94047444Y-101410413D01*
X94054801Y-101368121D01*
X94059119Y-101312818D01*
X94059401Y-101307528D01*
X94056033Y-101200283D01*
X94033177Y-101102391D01*
X93989525Y-101008968D01*
X93971755Y-100980439D01*
X93907213Y-100902535D01*
X93828396Y-100840365D01*
X93738760Y-100794869D01*
X93641761Y-100766991D01*
X93540857Y-100757671D01*
X93439505Y-100767853D01*
X93341159Y-100798478D01*
X93327156Y-100804764D01*
X93239204Y-100857713D01*
X93165214Y-100925927D01*
X93106171Y-101006273D01*
X93063058Y-101095620D01*
X93036856Y-101190833D01*
X93028550Y-101288781D01*
X92532212Y-101288781D01*
X92531628Y-101268778D01*
X92529889Y-101179589D01*
G36*
X90829245Y-101076867D02*
G01*
X91632191Y-100274167D01*
X91920559Y-100277261D01*
X92208927Y-100280354D01*
X91361703Y-101140491D01*
X91243778Y-101260214D01*
X91128979Y-101376763D01*
X91018525Y-101488903D01*
X90913633Y-101595396D01*
X90815521Y-101695007D01*
X90725406Y-101786500D01*
X90644507Y-101868637D01*
X90574040Y-101940182D01*
X90515224Y-101999900D01*
X90469277Y-102046554D01*
X90437416Y-102078907D01*
X90423635Y-102092903D01*
X90332791Y-102185179D01*
X90332791Y-99443309D01*
X90829245Y-99443309D01*
X90829245Y-101076867D01*
G37*
X90829245Y-101076867D02*
X91632191Y-100274167D01*
X91920559Y-100277261D01*
X92208927Y-100280354D01*
X91361703Y-101140491D01*
X91243778Y-101260214D01*
X91128979Y-101376763D01*
X91018525Y-101488903D01*
X90913633Y-101595396D01*
X90815521Y-101695007D01*
X90725406Y-101786500D01*
X90644507Y-101868637D01*
X90574040Y-101940182D01*
X90515224Y-101999900D01*
X90469277Y-102046554D01*
X90437416Y-102078907D01*
X90423635Y-102092903D01*
X90332791Y-102185179D01*
X90332791Y-99443309D01*
X90829245Y-99443309D01*
X90829245Y-101076867D01*
G36*
X91636025Y-101483398D02*
G01*
X91658728Y-101506261D01*
X91693207Y-101541792D01*
X91737476Y-101587884D01*
X91789543Y-101642430D01*
X91847422Y-101703324D01*
X91909121Y-101768459D01*
X91972654Y-101835729D01*
X92036029Y-101903027D01*
X92097259Y-101968246D01*
X92154355Y-102029281D01*
X92205327Y-102084024D01*
X92248187Y-102130369D01*
X92280945Y-102166209D01*
X92301613Y-102189438D01*
X92303906Y-102192129D01*
X92332207Y-102225764D01*
X91712193Y-102225764D01*
X91538843Y-102049695D01*
X91485101Y-101994952D01*
X91434818Y-101943439D01*
X91391002Y-101898259D01*
X91356656Y-101862513D01*
X91334788Y-101839304D01*
X91331611Y-101835812D01*
X91297729Y-101797997D01*
X91458764Y-101636653D01*
X91508477Y-101587198D01*
X91552701Y-101543873D01*
X91588848Y-101509160D01*
X91614330Y-101485540D01*
X91626559Y-101475492D01*
X91627090Y-101475309D01*
X91636025Y-101483398D01*
G37*
X91636025Y-101483398D02*
X91658728Y-101506261D01*
X91693207Y-101541792D01*
X91737476Y-101587884D01*
X91789543Y-101642430D01*
X91847422Y-101703324D01*
X91909121Y-101768459D01*
X91972654Y-101835729D01*
X92036029Y-101903027D01*
X92097259Y-101968246D01*
X92154355Y-102029281D01*
X92205327Y-102084024D01*
X92248187Y-102130369D01*
X92280945Y-102166209D01*
X92301613Y-102189438D01*
X92303906Y-102192129D01*
X92332207Y-102225764D01*
X91712193Y-102225764D01*
X91538843Y-102049695D01*
X91485101Y-101994952D01*
X91434818Y-101943439D01*
X91391002Y-101898259D01*
X91356656Y-101862513D01*
X91334788Y-101839304D01*
X91331611Y-101835812D01*
X91297729Y-101797997D01*
X91458764Y-101636653D01*
X91508477Y-101587198D01*
X91552701Y-101543873D01*
X91588848Y-101509160D01*
X91614330Y-101485540D01*
X91626559Y-101475492D01*
X91627090Y-101475309D01*
X91636025Y-101483398D01*
D14*
%TO.C,RSW1*%
X133180000Y-120522000D02*
X133480000Y-120522000D01*
X130980000Y-120522000D02*
X130680000Y-120522000D01*
X133480000Y-120522000D02*
X133480000Y-117222000D01*
X130680000Y-117222000D02*
X130980000Y-117222000D01*
X133480000Y-117222000D02*
X133180000Y-117222000D01*
X130680000Y-120522000D02*
X130680000Y-117222000D01*
D11*
%TO.C,U1*%
X148994000Y-113996000D02*
X148994000Y-114996000D01*
X139944000Y-79846000D02*
X140244000Y-79846000D01*
X148994000Y-81946000D02*
X148044000Y-81946000D01*
X139844000Y-79696000D02*
X140344000Y-79696000D01*
X131194000Y-113946000D02*
X131194000Y-114996000D01*
X131194000Y-81946000D02*
X132194000Y-81946000D01*
X136344000Y-79046000D02*
X136344000Y-80346000D01*
X131194000Y-81946000D02*
X131194000Y-82946000D01*
X131194000Y-114996000D02*
X132194000Y-114996000D01*
X148994000Y-81946000D02*
X148994000Y-82946000D01*
X140594000Y-79396000D02*
X140094000Y-80046000D01*
X143844000Y-80346000D02*
X143844000Y-79046000D01*
X148994000Y-114996000D02*
X147984000Y-114996000D01*
X140094000Y-80046000D02*
X139594000Y-79396000D01*
X139744000Y-79546000D02*
X140444000Y-79546000D01*
X139594000Y-79396000D02*
X140594000Y-79396000D01*
X136344000Y-80346000D02*
X143844000Y-80346000D01*
X143844000Y-79046000D02*
X136344000Y-79046000D01*
%TO.C,BatGND4*%
X167459840Y-82482000D02*
X165459840Y-82482000D01*
X167459840Y-84482000D02*
X167459840Y-82482000D01*
X165459840Y-82482000D02*
X165459840Y-84482000D01*
X165459840Y-84482000D02*
X167459840Y-84482000D01*
D14*
%TO.C,RSW2*%
X169502000Y-120268000D02*
X169802000Y-120268000D01*
X167302000Y-120268000D02*
X167002000Y-120268000D01*
X169802000Y-120268000D02*
X169802000Y-116968000D01*
X167002000Y-120268000D02*
X167002000Y-116968000D01*
X169802000Y-116968000D02*
X169502000Y-116968000D01*
X167002000Y-116968000D02*
X167302000Y-116968000D01*
D11*
%TO.C,Bat+1*%
X156029840Y-82482000D02*
X154029840Y-82482000D01*
X154029840Y-82482000D02*
X154029840Y-84482000D01*
X156029840Y-84482000D02*
X156029840Y-82482000D01*
X154029840Y-84482000D02*
X156029840Y-84482000D01*
D15*
%TO.C,REF\u002A\u002A*%
X209408385Y-76259137D02*
G75*
G03*
X208280000Y-76200000I-1128385J-10735763D01*
G01*
X211137500Y-107315000D02*
G75*
G03*
X215288047Y-106281134I-2857500J20320000D01*
G01*
X227566135Y-94003046D02*
G75*
G03*
X228600000Y-89852500I-19286185J7008058D01*
G01*
X188993866Y-79986952D02*
G75*
G03*
X187960000Y-84137500I19286117J-7008044D01*
G01*
X208280000Y-76200000D02*
G75*
G03*
X207151615Y-76259136I-6J-10794921D01*
G01*
X201271954Y-106281135D02*
G75*
G03*
X205422500Y-107315000I7008046J19286135D01*
G01*
X205422500Y-66675000D02*
G75*
G03*
X201271952Y-67708866I2857496J-20319983D01*
G01*
X207151615Y-97730864D02*
G75*
G03*
X208280000Y-97790000I1128379J10735785D01*
G01*
X187960000Y-89852500D02*
G75*
G03*
X188993866Y-94003047I20319953J2857490D01*
G01*
X208280000Y-97790001D02*
G75*
G03*
X209408385Y-97730864I0J10794901D01*
G01*
X228600000Y-84137500D02*
G75*
G03*
X227566135Y-79986955I-20320019J-2857506D01*
G01*
X215288047Y-67708866D02*
G75*
G03*
X211137500Y-66675000I-7008047J-19286134D01*
G01*
G36*
X208353889Y-101179589D02*
G01*
X208352486Y-101072960D01*
X208351442Y-100950304D01*
X208350778Y-100813032D01*
X208350517Y-100662558D01*
X208350514Y-100650822D01*
X208350427Y-99959108D01*
X208858131Y-99449082D01*
X208858279Y-99942650D01*
X208858471Y-100046890D01*
X208858960Y-100143635D01*
X208859710Y-100230521D01*
X208860686Y-100305183D01*
X208861855Y-100365258D01*
X208863182Y-100408381D01*
X208864631Y-100432188D01*
X208865539Y-100436218D01*
X208877970Y-100429904D01*
X208902816Y-100413561D01*
X208926950Y-100396359D01*
X209041647Y-100325637D01*
X209163863Y-100276533D01*
X209294246Y-100248857D01*
X209433447Y-100242419D01*
X209451259Y-100243087D01*
X209540894Y-100249639D01*
X209617377Y-100261576D01*
X209689029Y-100281068D01*
X209764167Y-100310285D01*
X209834018Y-100342924D01*
X209961951Y-100418217D01*
X210074871Y-100510197D01*
X210171765Y-100617186D01*
X210251623Y-100737511D01*
X210313433Y-100869496D01*
X210356185Y-101011465D01*
X210378866Y-101161744D01*
X210382427Y-101251414D01*
X210372136Y-101403892D01*
X210340780Y-101548456D01*
X210287635Y-101687692D01*
X210230380Y-101794611D01*
X210144668Y-101914904D01*
X210043055Y-102019753D01*
X209927722Y-102108075D01*
X209800847Y-102178789D01*
X209664611Y-102230812D01*
X209521192Y-102263065D01*
X209372771Y-102274464D01*
X209272525Y-102269981D01*
X209127917Y-102245100D01*
X208987349Y-102198825D01*
X208854176Y-102132846D01*
X208731756Y-102048849D01*
X208623444Y-101948523D01*
X208615050Y-101939357D01*
X208533919Y-101835237D01*
X208464227Y-101717055D01*
X208409061Y-101591192D01*
X208371508Y-101464032D01*
X208362639Y-101417582D01*
X208360026Y-101389187D01*
X208357681Y-101339115D01*
X208356212Y-101288781D01*
X208852550Y-101288781D01*
X208863122Y-101386330D01*
X208893554Y-101480349D01*
X208922208Y-101534494D01*
X208989142Y-101622777D01*
X209068623Y-101693654D01*
X209158055Y-101746147D01*
X209254841Y-101779279D01*
X209356382Y-101792073D01*
X209460083Y-101783552D01*
X209532910Y-101764264D01*
X209575907Y-101748178D01*
X209616812Y-101730818D01*
X209632979Y-101723042D01*
X209678265Y-101692038D01*
X209727588Y-101645844D01*
X209775645Y-101590388D01*
X209817130Y-101531594D01*
X209838618Y-101493267D01*
X209858799Y-101449021D01*
X209871444Y-101410413D01*
X209878801Y-101368121D01*
X209883119Y-101312818D01*
X209883401Y-101307528D01*
X209880033Y-101200283D01*
X209857177Y-101102391D01*
X209813525Y-101008968D01*
X209795755Y-100980439D01*
X209731213Y-100902535D01*
X209652396Y-100840365D01*
X209562760Y-100794869D01*
X209465761Y-100766991D01*
X209364857Y-100757671D01*
X209263505Y-100767853D01*
X209165159Y-100798478D01*
X209151156Y-100804764D01*
X209063204Y-100857713D01*
X208989214Y-100925927D01*
X208930171Y-101006273D01*
X208887058Y-101095620D01*
X208860856Y-101190833D01*
X208852550Y-101288781D01*
X208356212Y-101288781D01*
X208355628Y-101268778D01*
X208353889Y-101179589D01*
G37*
D16*
X208353889Y-101179589D02*
X208352486Y-101072960D01*
X208351442Y-100950304D01*
X208350778Y-100813032D01*
X208350517Y-100662558D01*
X208350514Y-100650822D01*
X208350427Y-99959108D01*
X208858131Y-99449082D01*
X208858279Y-99942650D01*
X208858471Y-100046890D01*
X208858960Y-100143635D01*
X208859710Y-100230521D01*
X208860686Y-100305183D01*
X208861855Y-100365258D01*
X208863182Y-100408381D01*
X208864631Y-100432188D01*
X208865539Y-100436218D01*
X208877970Y-100429904D01*
X208902816Y-100413561D01*
X208926950Y-100396359D01*
X209041647Y-100325637D01*
X209163863Y-100276533D01*
X209294246Y-100248857D01*
X209433447Y-100242419D01*
X209451259Y-100243087D01*
X209540894Y-100249639D01*
X209617377Y-100261576D01*
X209689029Y-100281068D01*
X209764167Y-100310285D01*
X209834018Y-100342924D01*
X209961951Y-100418217D01*
X210074871Y-100510197D01*
X210171765Y-100617186D01*
X210251623Y-100737511D01*
X210313433Y-100869496D01*
X210356185Y-101011465D01*
X210378866Y-101161744D01*
X210382427Y-101251414D01*
X210372136Y-101403892D01*
X210340780Y-101548456D01*
X210287635Y-101687692D01*
X210230380Y-101794611D01*
X210144668Y-101914904D01*
X210043055Y-102019753D01*
X209927722Y-102108075D01*
X209800847Y-102178789D01*
X209664611Y-102230812D01*
X209521192Y-102263065D01*
X209372771Y-102274464D01*
X209272525Y-102269981D01*
X209127917Y-102245100D01*
X208987349Y-102198825D01*
X208854176Y-102132846D01*
X208731756Y-102048849D01*
X208623444Y-101948523D01*
X208615050Y-101939357D01*
X208533919Y-101835237D01*
X208464227Y-101717055D01*
X208409061Y-101591192D01*
X208371508Y-101464032D01*
X208362639Y-101417582D01*
X208360026Y-101389187D01*
X208357681Y-101339115D01*
X208356212Y-101288781D01*
X208852550Y-101288781D01*
X208863122Y-101386330D01*
X208893554Y-101480349D01*
X208922208Y-101534494D01*
X208989142Y-101622777D01*
X209068623Y-101693654D01*
X209158055Y-101746147D01*
X209254841Y-101779279D01*
X209356382Y-101792073D01*
X209460083Y-101783552D01*
X209532910Y-101764264D01*
X209575907Y-101748178D01*
X209616812Y-101730818D01*
X209632979Y-101723042D01*
X209678265Y-101692038D01*
X209727588Y-101645844D01*
X209775645Y-101590388D01*
X209817130Y-101531594D01*
X209838618Y-101493267D01*
X209858799Y-101449021D01*
X209871444Y-101410413D01*
X209878801Y-101368121D01*
X209883119Y-101312818D01*
X209883401Y-101307528D01*
X209880033Y-101200283D01*
X209857177Y-101102391D01*
X209813525Y-101008968D01*
X209795755Y-100980439D01*
X209731213Y-100902535D01*
X209652396Y-100840365D01*
X209562760Y-100794869D01*
X209465761Y-100766991D01*
X209364857Y-100757671D01*
X209263505Y-100767853D01*
X209165159Y-100798478D01*
X209151156Y-100804764D01*
X209063204Y-100857713D01*
X208989214Y-100925927D01*
X208930171Y-101006273D01*
X208887058Y-101095620D01*
X208860856Y-101190833D01*
X208852550Y-101288781D01*
X208356212Y-101288781D01*
X208355628Y-101268778D01*
X208353889Y-101179589D01*
G36*
X206653245Y-101076867D02*
G01*
X207456191Y-100274167D01*
X207744559Y-100277261D01*
X208032927Y-100280354D01*
X207185703Y-101140491D01*
X207067778Y-101260214D01*
X206952979Y-101376763D01*
X206842525Y-101488903D01*
X206737633Y-101595396D01*
X206639521Y-101695007D01*
X206549406Y-101786500D01*
X206468507Y-101868637D01*
X206398040Y-101940182D01*
X206339224Y-101999900D01*
X206293277Y-102046554D01*
X206261416Y-102078907D01*
X206247635Y-102092903D01*
X206156791Y-102185179D01*
X206156791Y-99443309D01*
X206653245Y-99443309D01*
X206653245Y-101076867D01*
G37*
X206653245Y-101076867D02*
X207456191Y-100274167D01*
X207744559Y-100277261D01*
X208032927Y-100280354D01*
X207185703Y-101140491D01*
X207067778Y-101260214D01*
X206952979Y-101376763D01*
X206842525Y-101488903D01*
X206737633Y-101595396D01*
X206639521Y-101695007D01*
X206549406Y-101786500D01*
X206468507Y-101868637D01*
X206398040Y-101940182D01*
X206339224Y-101999900D01*
X206293277Y-102046554D01*
X206261416Y-102078907D01*
X206247635Y-102092903D01*
X206156791Y-102185179D01*
X206156791Y-99443309D01*
X206653245Y-99443309D01*
X206653245Y-101076867D01*
G36*
X207460025Y-101483398D02*
G01*
X207482728Y-101506261D01*
X207517207Y-101541792D01*
X207561476Y-101587884D01*
X207613543Y-101642430D01*
X207671422Y-101703324D01*
X207733121Y-101768459D01*
X207796654Y-101835729D01*
X207860029Y-101903027D01*
X207921259Y-101968246D01*
X207978355Y-102029281D01*
X208029327Y-102084024D01*
X208072187Y-102130369D01*
X208104945Y-102166209D01*
X208125613Y-102189438D01*
X208127906Y-102192129D01*
X208156207Y-102225764D01*
X207536193Y-102225764D01*
X207362843Y-102049695D01*
X207309101Y-101994952D01*
X207258818Y-101943439D01*
X207215002Y-101898259D01*
X207180656Y-101862513D01*
X207158788Y-101839304D01*
X207155611Y-101835812D01*
X207121729Y-101797997D01*
X207282764Y-101636653D01*
X207332477Y-101587198D01*
X207376701Y-101543873D01*
X207412848Y-101509160D01*
X207438330Y-101485540D01*
X207450559Y-101475492D01*
X207451090Y-101475309D01*
X207460025Y-101483398D01*
G37*
X207460025Y-101483398D02*
X207482728Y-101506261D01*
X207517207Y-101541792D01*
X207561476Y-101587884D01*
X207613543Y-101642430D01*
X207671422Y-101703324D01*
X207733121Y-101768459D01*
X207796654Y-101835729D01*
X207860029Y-101903027D01*
X207921259Y-101968246D01*
X207978355Y-102029281D01*
X208029327Y-102084024D01*
X208072187Y-102130369D01*
X208104945Y-102166209D01*
X208125613Y-102189438D01*
X208127906Y-102192129D01*
X208156207Y-102225764D01*
X207536193Y-102225764D01*
X207362843Y-102049695D01*
X207309101Y-101994952D01*
X207258818Y-101943439D01*
X207215002Y-101898259D01*
X207180656Y-101862513D01*
X207158788Y-101839304D01*
X207155611Y-101835812D01*
X207121729Y-101797997D01*
X207282764Y-101636653D01*
X207332477Y-101587198D01*
X207376701Y-101543873D01*
X207412848Y-101509160D01*
X207438330Y-101485540D01*
X207450559Y-101475492D01*
X207451090Y-101475309D01*
X207460025Y-101483398D01*
D11*
%TO.C,J1*%
X154267840Y-115684000D02*
X154267840Y-121784000D01*
X152267840Y-115934000D02*
X152267840Y-121534000D01*
X154267840Y-115934000D02*
X152267840Y-115934000D01*
X154267840Y-121784000D02*
X166367840Y-121784000D01*
X166367840Y-115684000D02*
X166367840Y-121784000D01*
X154267840Y-121534000D02*
X152267840Y-121534000D01*
X154267840Y-115684000D02*
X166367840Y-115684000D01*
%TO.C,U2*%
X156767840Y-79046000D02*
X156767840Y-80346000D01*
X169417840Y-81946000D02*
X169417840Y-82946000D01*
X169417840Y-114996000D02*
X168407840Y-114996000D01*
X151617840Y-81946000D02*
X151617840Y-82946000D01*
X164267840Y-80346000D02*
X164267840Y-79046000D01*
X160167840Y-79546000D02*
X160867840Y-79546000D01*
X151617840Y-114996000D02*
X152617840Y-114996000D01*
X160017840Y-79396000D02*
X161017840Y-79396000D01*
X160367840Y-79846000D02*
X160667840Y-79846000D01*
X151617840Y-81946000D02*
X152617840Y-81946000D01*
X169417840Y-81946000D02*
X168467840Y-81946000D01*
X164267840Y-79046000D02*
X156767840Y-79046000D01*
X160517840Y-80046000D02*
X160017840Y-79396000D01*
X156767840Y-80346000D02*
X164267840Y-80346000D01*
X161017840Y-79396000D02*
X160517840Y-80046000D01*
X160267840Y-79696000D02*
X160767840Y-79696000D01*
X169417840Y-113996000D02*
X169417840Y-114996000D01*
X151617840Y-113946000D02*
X151617840Y-114996000D01*
D12*
%TO.C,mouse-bite-5mm-slot*%
X149241000Y-87757000D02*
G75*
G03*
X151241000Y-87757000I1000000J0D01*
G01*
X151241000Y-93599000D02*
G75*
G03*
X149241000Y-93599000I-1000000J0D01*
G01*
X149241000Y-108267500D02*
G75*
G03*
X151241000Y-108267500I1000000J0D01*
G01*
X151241000Y-114109500D02*
G75*
G03*
X149241000Y-114109500I-1000000J0D01*
G01*
D11*
%TO.C,J2*%
X146190000Y-121534000D02*
X148190000Y-121534000D01*
X134090000Y-121784000D02*
X134090000Y-115684000D01*
X148190000Y-121534000D02*
X148190000Y-115934000D01*
X146190000Y-115684000D02*
X134090000Y-115684000D01*
X146190000Y-121784000D02*
X146190000Y-115684000D01*
X146190000Y-121784000D02*
X134090000Y-121784000D01*
X146190000Y-115934000D02*
X148190000Y-115934000D01*
%TD*%
D17*
%TO.C,Bat+r1*%
X146190000Y-83736000D03*
%TD*%
%TO.C,BatGND1*%
X134760000Y-83736000D03*
%TD*%
D18*
%TO.C,U1*%
X147705400Y-85768000D03*
X147705400Y-88308000D03*
X147705400Y-90848000D03*
X147705400Y-93388000D03*
X147705400Y-95928000D03*
X147705400Y-98468000D03*
X147705400Y-101008000D03*
X147705400Y-103548000D03*
X147705400Y-106088000D03*
X147705400Y-108628000D03*
X147705400Y-111168000D03*
X147705400Y-113708000D03*
X132485400Y-113708000D03*
X132485400Y-111168000D03*
X132485400Y-108628000D03*
X132485400Y-106088000D03*
X132485400Y-103548000D03*
X132485400Y-101008000D03*
X132485400Y-98468000D03*
X132485400Y-95928000D03*
X132485400Y-93388000D03*
X132485400Y-90848000D03*
X132485400Y-88308000D03*
X132485400Y-85768000D03*
%TD*%
D17*
%TO.C,BatGND4*%
X166459840Y-83482000D03*
%TD*%
%TO.C,Bat+1*%
X155029840Y-83482000D03*
%TD*%
D18*
%TO.C,U2*%
X168129240Y-85768000D03*
X168129240Y-88308000D03*
X168129240Y-90848000D03*
X168129240Y-93388000D03*
X168129240Y-95928000D03*
X168129240Y-98468000D03*
X168129240Y-101008000D03*
X168129240Y-103548000D03*
X168129240Y-106088000D03*
X168129240Y-108628000D03*
X168129240Y-111168000D03*
X168129240Y-113708000D03*
X152909240Y-113708000D03*
X152909240Y-111168000D03*
X152909240Y-108628000D03*
X152909240Y-106088000D03*
X152909240Y-103548000D03*
X152909240Y-101008000D03*
X152909240Y-98468000D03*
X152909240Y-95928000D03*
X152909240Y-93388000D03*
X152909240Y-90848000D03*
X152909240Y-88308000D03*
X152909240Y-85768000D03*
%TD*%
M02*
