%TF.GenerationSoftware,KiCad,Pcbnew,6.0.4+dfsg-1+b1*%
%TF.CreationDate,2022-04-14T14:17:59+01:00*%
%TF.ProjectId,sweep-mid,73776565-702d-46d6-9964-2e6b69636164,rev?*%
%TF.SameCoordinates,Original*%
%TF.FileFunction,Legend,Top*%
%TF.FilePolarity,Positive*%
%FSLAX46Y46*%
G04 Gerber Fmt 4.6, Leading zero omitted, Abs format (unit mm)*
G04 Created by KiCad (PCBNEW 6.0.4+dfsg-1+b1) date 2022-04-14 14:17:59*
%MOMM*%
%LPD*%
G01*
G04 APERTURE LIST*
%ADD10C,0.300000*%
%ADD11C,0.150000*%
%ADD12C,0.100000*%
%ADD13C,0.125000*%
%ADD14C,0.120000*%
%ADD15C,0.200000*%
%ADD16C,0.010000*%
%ADD17C,1.397000*%
%ADD18C,1.524000*%
G04 APERTURE END LIST*
D10*
X160002697Y-104372857D02*
X160002697Y-104872857D01*
X160788411Y-104872857D02*
X159288411Y-104872857D01*
X159288411Y-104158571D01*
X160788411Y-102944285D02*
X160002697Y-102944285D01*
X159859840Y-103015714D01*
X159788411Y-103158571D01*
X159788411Y-103444285D01*
X159859840Y-103587142D01*
X160716982Y-102944285D02*
X160788411Y-103087142D01*
X160788411Y-103444285D01*
X160716982Y-103587142D01*
X160574125Y-103658571D01*
X160431268Y-103658571D01*
X160288411Y-103587142D01*
X160216982Y-103444285D01*
X160216982Y-103087142D01*
X160145554Y-102944285D01*
X160716982Y-101587142D02*
X160788411Y-101730000D01*
X160788411Y-102015714D01*
X160716982Y-102158571D01*
X160645554Y-102230000D01*
X160502697Y-102301428D01*
X160074125Y-102301428D01*
X159931268Y-102230000D01*
X159859840Y-102158571D01*
X159788411Y-102015714D01*
X159788411Y-101730000D01*
X159859840Y-101587142D01*
X160716982Y-100372857D02*
X160788411Y-100515714D01*
X160788411Y-100801428D01*
X160716982Y-100944285D01*
X160574125Y-101015714D01*
X160002697Y-101015714D01*
X159859840Y-100944285D01*
X159788411Y-100801428D01*
X159788411Y-100515714D01*
X159859840Y-100372857D01*
X160002697Y-100301428D01*
X160145554Y-100301428D01*
X160288411Y-101015714D01*
X160788411Y-97872857D02*
X159288411Y-97872857D01*
X160716982Y-97872857D02*
X160788411Y-98015714D01*
X160788411Y-98301428D01*
X160716982Y-98444285D01*
X160645554Y-98515714D01*
X160502697Y-98587142D01*
X160074125Y-98587142D01*
X159931268Y-98515714D01*
X159859840Y-98444285D01*
X159788411Y-98301428D01*
X159788411Y-98015714D01*
X159859840Y-97872857D01*
X160788411Y-96944285D02*
X160716982Y-97087142D01*
X160645554Y-97158571D01*
X160502697Y-97230000D01*
X160074125Y-97230000D01*
X159931268Y-97158571D01*
X159859840Y-97087142D01*
X159788411Y-96944285D01*
X159788411Y-96730000D01*
X159859840Y-96587142D01*
X159931268Y-96515714D01*
X160074125Y-96444285D01*
X160502697Y-96444285D01*
X160645554Y-96515714D01*
X160716982Y-96587142D01*
X160788411Y-96730000D01*
X160788411Y-96944285D01*
X159788411Y-95944285D02*
X160788411Y-95658571D01*
X160074125Y-95372857D01*
X160788411Y-95087142D01*
X159788411Y-94801428D01*
X159788411Y-94230000D02*
X160788411Y-94230000D01*
X159931268Y-94230000D02*
X159859840Y-94158571D01*
X159788411Y-94015714D01*
X159788411Y-93801428D01*
X159859840Y-93658571D01*
X160002697Y-93587142D01*
X160788411Y-93587142D01*
X139592857Y-104202857D02*
X139592857Y-104702857D01*
X140378571Y-104702857D02*
X138878571Y-104702857D01*
X138878571Y-103988571D01*
X140378571Y-102774285D02*
X139592857Y-102774285D01*
X139450000Y-102845714D01*
X139378571Y-102988571D01*
X139378571Y-103274285D01*
X139450000Y-103417142D01*
X140307142Y-102774285D02*
X140378571Y-102917142D01*
X140378571Y-103274285D01*
X140307142Y-103417142D01*
X140164285Y-103488571D01*
X140021428Y-103488571D01*
X139878571Y-103417142D01*
X139807142Y-103274285D01*
X139807142Y-102917142D01*
X139735714Y-102774285D01*
X140307142Y-101417142D02*
X140378571Y-101560000D01*
X140378571Y-101845714D01*
X140307142Y-101988571D01*
X140235714Y-102060000D01*
X140092857Y-102131428D01*
X139664285Y-102131428D01*
X139521428Y-102060000D01*
X139450000Y-101988571D01*
X139378571Y-101845714D01*
X139378571Y-101560000D01*
X139450000Y-101417142D01*
X140307142Y-100202857D02*
X140378571Y-100345714D01*
X140378571Y-100631428D01*
X140307142Y-100774285D01*
X140164285Y-100845714D01*
X139592857Y-100845714D01*
X139450000Y-100774285D01*
X139378571Y-100631428D01*
X139378571Y-100345714D01*
X139450000Y-100202857D01*
X139592857Y-100131428D01*
X139735714Y-100131428D01*
X139878571Y-100845714D01*
X140378571Y-97702857D02*
X138878571Y-97702857D01*
X140307142Y-97702857D02*
X140378571Y-97845714D01*
X140378571Y-98131428D01*
X140307142Y-98274285D01*
X140235714Y-98345714D01*
X140092857Y-98417142D01*
X139664285Y-98417142D01*
X139521428Y-98345714D01*
X139450000Y-98274285D01*
X139378571Y-98131428D01*
X139378571Y-97845714D01*
X139450000Y-97702857D01*
X140378571Y-96774285D02*
X140307142Y-96917142D01*
X140235714Y-96988571D01*
X140092857Y-97060000D01*
X139664285Y-97060000D01*
X139521428Y-96988571D01*
X139450000Y-96917142D01*
X139378571Y-96774285D01*
X139378571Y-96560000D01*
X139450000Y-96417142D01*
X139521428Y-96345714D01*
X139664285Y-96274285D01*
X140092857Y-96274285D01*
X140235714Y-96345714D01*
X140307142Y-96417142D01*
X140378571Y-96560000D01*
X140378571Y-96774285D01*
X139378571Y-95774285D02*
X140378571Y-95488571D01*
X139664285Y-95202857D01*
X140378571Y-94917142D01*
X139378571Y-94631428D01*
X139378571Y-94060000D02*
X140378571Y-94060000D01*
X139521428Y-94060000D02*
X139450000Y-93988571D01*
X139378571Y-93845714D01*
X139378571Y-93631428D01*
X139450000Y-93488571D01*
X139592857Y-93417142D01*
X140378571Y-93417142D01*
D11*
%TO.C,Bat+r1*%
X144506342Y-85328942D02*
X144622457Y-85367647D01*
X144661161Y-85406352D01*
X144699866Y-85483761D01*
X144699866Y-85599876D01*
X144661161Y-85677285D01*
X144622457Y-85715990D01*
X144545047Y-85754695D01*
X144235409Y-85754695D01*
X144235409Y-84941895D01*
X144506342Y-84941895D01*
X144583752Y-84980600D01*
X144622457Y-85019304D01*
X144661161Y-85096714D01*
X144661161Y-85174123D01*
X144622457Y-85251533D01*
X144583752Y-85290238D01*
X144506342Y-85328942D01*
X144235409Y-85328942D01*
X145396552Y-85754695D02*
X145396552Y-85328942D01*
X145357847Y-85251533D01*
X145280438Y-85212828D01*
X145125619Y-85212828D01*
X145048209Y-85251533D01*
X145396552Y-85715990D02*
X145319142Y-85754695D01*
X145125619Y-85754695D01*
X145048209Y-85715990D01*
X145009504Y-85638580D01*
X145009504Y-85561171D01*
X145048209Y-85483761D01*
X145125619Y-85445057D01*
X145319142Y-85445057D01*
X145396552Y-85406352D01*
X145667485Y-85212828D02*
X145977123Y-85212828D01*
X145783600Y-84941895D02*
X145783600Y-85638580D01*
X145822304Y-85715990D01*
X145899714Y-85754695D01*
X145977123Y-85754695D01*
X146248057Y-85445057D02*
X146867333Y-85445057D01*
X146557695Y-85754695D02*
X146557695Y-85135419D01*
X147254380Y-85754695D02*
X147254380Y-85212828D01*
X147254380Y-85367647D02*
X147293085Y-85290238D01*
X147331790Y-85251533D01*
X147409200Y-85212828D01*
X147486609Y-85212828D01*
X148183295Y-85754695D02*
X147718838Y-85754695D01*
X147951066Y-85754695D02*
X147951066Y-84941895D01*
X147873657Y-85058009D01*
X147796247Y-85135419D01*
X147718838Y-85174123D01*
%TO.C,BatGND1*%
X132592533Y-85328942D02*
X132708647Y-85367647D01*
X132747352Y-85406352D01*
X132786057Y-85483761D01*
X132786057Y-85599876D01*
X132747352Y-85677285D01*
X132708647Y-85715990D01*
X132631238Y-85754695D01*
X132321600Y-85754695D01*
X132321600Y-84941895D01*
X132592533Y-84941895D01*
X132669942Y-84980600D01*
X132708647Y-85019304D01*
X132747352Y-85096714D01*
X132747352Y-85174123D01*
X132708647Y-85251533D01*
X132669942Y-85290238D01*
X132592533Y-85328942D01*
X132321600Y-85328942D01*
X133482742Y-85754695D02*
X133482742Y-85328942D01*
X133444038Y-85251533D01*
X133366628Y-85212828D01*
X133211809Y-85212828D01*
X133134400Y-85251533D01*
X133482742Y-85715990D02*
X133405333Y-85754695D01*
X133211809Y-85754695D01*
X133134400Y-85715990D01*
X133095695Y-85638580D01*
X133095695Y-85561171D01*
X133134400Y-85483761D01*
X133211809Y-85445057D01*
X133405333Y-85445057D01*
X133482742Y-85406352D01*
X133753676Y-85212828D02*
X134063314Y-85212828D01*
X133869790Y-84941895D02*
X133869790Y-85638580D01*
X133908495Y-85715990D01*
X133985904Y-85754695D01*
X134063314Y-85754695D01*
X134760000Y-84980600D02*
X134682590Y-84941895D01*
X134566476Y-84941895D01*
X134450361Y-84980600D01*
X134372952Y-85058009D01*
X134334247Y-85135419D01*
X134295542Y-85290238D01*
X134295542Y-85406352D01*
X134334247Y-85561171D01*
X134372952Y-85638580D01*
X134450361Y-85715990D01*
X134566476Y-85754695D01*
X134643885Y-85754695D01*
X134760000Y-85715990D01*
X134798704Y-85677285D01*
X134798704Y-85406352D01*
X134643885Y-85406352D01*
X135147047Y-85754695D02*
X135147047Y-84941895D01*
X135611504Y-85754695D01*
X135611504Y-84941895D01*
X135998552Y-85754695D02*
X135998552Y-84941895D01*
X136192076Y-84941895D01*
X136308190Y-84980600D01*
X136385600Y-85058009D01*
X136424304Y-85135419D01*
X136463009Y-85290238D01*
X136463009Y-85406352D01*
X136424304Y-85561171D01*
X136385600Y-85638580D01*
X136308190Y-85715990D01*
X136192076Y-85754695D01*
X135998552Y-85754695D01*
X137237104Y-85754695D02*
X136772647Y-85754695D01*
X137004876Y-85754695D02*
X137004876Y-84941895D01*
X136927466Y-85058009D01*
X136850057Y-85135419D01*
X136772647Y-85174123D01*
D12*
%TO.C,REF\u002A\u002A*%
X92051214Y-96353000D02*
X92051214Y-95972047D01*
X91717880Y-96210142D02*
X92575023Y-96210142D01*
X92670261Y-96162523D01*
X92717880Y-96067285D01*
X92717880Y-95972047D01*
X92670261Y-95257761D02*
X92717880Y-95353000D01*
X92717880Y-95543476D01*
X92670261Y-95638714D01*
X92575023Y-95686333D01*
X92194071Y-95686333D01*
X92098833Y-95638714D01*
X92051214Y-95543476D01*
X92051214Y-95353000D01*
X92098833Y-95257761D01*
X92194071Y-95210142D01*
X92289309Y-95210142D01*
X92384547Y-95686333D01*
X92051214Y-94781571D02*
X92717880Y-94781571D01*
X92146452Y-94781571D02*
X92098833Y-94733952D01*
X92051214Y-94638714D01*
X92051214Y-94495857D01*
X92098833Y-94400619D01*
X92194071Y-94353000D01*
X92717880Y-94353000D01*
X92051214Y-94019666D02*
X92051214Y-93638714D01*
X91717880Y-93876809D02*
X92575023Y-93876809D01*
X92670261Y-93829190D01*
X92717880Y-93733952D01*
X92717880Y-93638714D01*
X92717880Y-93305380D02*
X92051214Y-93305380D01*
X91717880Y-93305380D02*
X91765500Y-93353000D01*
X91813119Y-93305380D01*
X91765500Y-93257761D01*
X91717880Y-93305380D01*
X91813119Y-93305380D01*
X92051214Y-92829190D02*
X92717880Y-92829190D01*
X92146452Y-92829190D02*
X92098833Y-92781571D01*
X92051214Y-92686333D01*
X92051214Y-92543476D01*
X92098833Y-92448238D01*
X92194071Y-92400619D01*
X92717880Y-92400619D01*
X92051214Y-91495857D02*
X92860738Y-91495857D01*
X92955976Y-91543476D01*
X93003595Y-91591095D01*
X93051214Y-91686333D01*
X93051214Y-91829190D01*
X93003595Y-91924428D01*
X92670261Y-91495857D02*
X92717880Y-91591095D01*
X92717880Y-91781571D01*
X92670261Y-91876809D01*
X92622642Y-91924428D01*
X92527404Y-91972047D01*
X92241690Y-91972047D01*
X92146452Y-91924428D01*
X92098833Y-91876809D01*
X92051214Y-91781571D01*
X92051214Y-91591095D01*
X92098833Y-91495857D01*
X91987714Y-82462500D02*
X92987714Y-82462500D01*
X92035333Y-82462500D02*
X91987714Y-82367261D01*
X91987714Y-82176785D01*
X92035333Y-82081547D01*
X92082952Y-82033928D01*
X92178190Y-81986309D01*
X92463904Y-81986309D01*
X92559142Y-82033928D01*
X92606761Y-82081547D01*
X92654380Y-82176785D01*
X92654380Y-82367261D01*
X92606761Y-82462500D01*
X91987714Y-81129166D02*
X92654380Y-81129166D01*
X91987714Y-81557738D02*
X92511523Y-81557738D01*
X92606761Y-81510119D01*
X92654380Y-81414880D01*
X92654380Y-81272023D01*
X92606761Y-81176785D01*
X92559142Y-81129166D01*
X92606761Y-80224404D02*
X92654380Y-80319642D01*
X92654380Y-80510119D01*
X92606761Y-80605357D01*
X92559142Y-80652976D01*
X92463904Y-80700595D01*
X92178190Y-80700595D01*
X92082952Y-80652976D01*
X92035333Y-80605357D01*
X91987714Y-80510119D01*
X91987714Y-80319642D01*
X92035333Y-80224404D01*
X92654380Y-79795833D02*
X91654380Y-79795833D01*
X92273428Y-79700595D02*
X92654380Y-79414880D01*
X91987714Y-79414880D02*
X92368666Y-79795833D01*
D11*
%TO.C,SW2*%
X139268666Y-83394761D02*
X139411523Y-83442380D01*
X139649619Y-83442380D01*
X139744857Y-83394761D01*
X139792476Y-83347142D01*
X139840095Y-83251904D01*
X139840095Y-83156666D01*
X139792476Y-83061428D01*
X139744857Y-83013809D01*
X139649619Y-82966190D01*
X139459142Y-82918571D01*
X139363904Y-82870952D01*
X139316285Y-82823333D01*
X139268666Y-82728095D01*
X139268666Y-82632857D01*
X139316285Y-82537619D01*
X139363904Y-82490000D01*
X139459142Y-82442380D01*
X139697238Y-82442380D01*
X139840095Y-82490000D01*
X140173428Y-82442380D02*
X140411523Y-83442380D01*
X140602000Y-82728095D01*
X140792476Y-83442380D01*
X141030571Y-82442380D01*
X141363904Y-82537619D02*
X141411523Y-82490000D01*
X141506761Y-82442380D01*
X141744857Y-82442380D01*
X141840095Y-82490000D01*
X141887714Y-82537619D01*
X141935333Y-82632857D01*
X141935333Y-82728095D01*
X141887714Y-82870952D01*
X141316285Y-83442380D01*
X141935333Y-83442380D01*
D13*
%TO.C,U1*%
X145593047Y-90491000D02*
X145545428Y-90455285D01*
X145474000Y-90455285D01*
X145402571Y-90491000D01*
X145354952Y-90562428D01*
X145331142Y-90633857D01*
X145307333Y-90776714D01*
X145307333Y-90883857D01*
X145331142Y-91026714D01*
X145354952Y-91098142D01*
X145402571Y-91169571D01*
X145474000Y-91205285D01*
X145521619Y-91205285D01*
X145593047Y-91169571D01*
X145616857Y-91133857D01*
X145616857Y-90883857D01*
X145521619Y-90883857D01*
X145831142Y-91205285D02*
X145831142Y-90455285D01*
X146116857Y-91205285D01*
X146116857Y-90455285D01*
X146354952Y-91205285D02*
X146354952Y-90455285D01*
X146474000Y-90455285D01*
X146545428Y-90491000D01*
X146593047Y-90562428D01*
X146616857Y-90633857D01*
X146640666Y-90776714D01*
X146640666Y-90883857D01*
X146616857Y-91026714D01*
X146593047Y-91098142D01*
X146545428Y-91169571D01*
X146474000Y-91205285D01*
X146354952Y-91205285D01*
D11*
D13*
X134078761Y-86065285D02*
X133912095Y-85708142D01*
X133793047Y-86065285D02*
X133793047Y-85315285D01*
X133983523Y-85315285D01*
X134031142Y-85351000D01*
X134054952Y-85386714D01*
X134078761Y-85458142D01*
X134078761Y-85565285D01*
X134054952Y-85636714D01*
X134031142Y-85672428D01*
X133983523Y-85708142D01*
X133793047Y-85708142D01*
X134269238Y-85851000D02*
X134507333Y-85851000D01*
X134221619Y-86065285D02*
X134388285Y-85315285D01*
X134554952Y-86065285D01*
X134674000Y-85315285D02*
X134793047Y-86065285D01*
X134888285Y-85529571D01*
X134983523Y-86065285D01*
X135102571Y-85315285D01*
X133943047Y-87961000D02*
X133895428Y-87925285D01*
X133824000Y-87925285D01*
X133752571Y-87961000D01*
X133704952Y-88032428D01*
X133681142Y-88103857D01*
X133657333Y-88246714D01*
X133657333Y-88353857D01*
X133681142Y-88496714D01*
X133704952Y-88568142D01*
X133752571Y-88639571D01*
X133824000Y-88675285D01*
X133871619Y-88675285D01*
X133943047Y-88639571D01*
X133966857Y-88603857D01*
X133966857Y-88353857D01*
X133871619Y-88353857D01*
X134181142Y-88675285D02*
X134181142Y-87925285D01*
X134466857Y-88675285D01*
X134466857Y-87925285D01*
X134704952Y-88675285D02*
X134704952Y-87925285D01*
X134824000Y-87925285D01*
X134895428Y-87961000D01*
X134943047Y-88032428D01*
X134966857Y-88103857D01*
X134990666Y-88246714D01*
X134990666Y-88353857D01*
X134966857Y-88496714D01*
X134943047Y-88568142D01*
X134895428Y-88639571D01*
X134824000Y-88675285D01*
X134704952Y-88675285D01*
D14*
X137597571Y-81635285D02*
X137597571Y-80885285D01*
X137847571Y-81421000D01*
X138097571Y-80885285D01*
X138097571Y-81635285D01*
X138454714Y-81635285D02*
X138454714Y-81135285D01*
X138454714Y-80885285D02*
X138419000Y-80921000D01*
X138454714Y-80956714D01*
X138490428Y-80921000D01*
X138454714Y-80885285D01*
X138454714Y-80956714D01*
X139133285Y-81599571D02*
X139061857Y-81635285D01*
X138919000Y-81635285D01*
X138847571Y-81599571D01*
X138811857Y-81563857D01*
X138776142Y-81492428D01*
X138776142Y-81278142D01*
X138811857Y-81206714D01*
X138847571Y-81171000D01*
X138919000Y-81135285D01*
X139061857Y-81135285D01*
X139133285Y-81171000D01*
X139454714Y-81635285D02*
X139454714Y-81135285D01*
X139454714Y-81278142D02*
X139490428Y-81206714D01*
X139526142Y-81171000D01*
X139597571Y-81135285D01*
X139669000Y-81135285D01*
X140026142Y-81635285D02*
X139954714Y-81599571D01*
X139919000Y-81563857D01*
X139883285Y-81492428D01*
X139883285Y-81278142D01*
X139919000Y-81206714D01*
X139954714Y-81171000D01*
X140026142Y-81135285D01*
X140133285Y-81135285D01*
X140204714Y-81171000D01*
X140240428Y-81206714D01*
X140276142Y-81278142D01*
X140276142Y-81492428D01*
X140240428Y-81563857D01*
X140204714Y-81599571D01*
X140133285Y-81635285D01*
X140026142Y-81635285D01*
X140597571Y-80885285D02*
X140597571Y-81492428D01*
X140633285Y-81563857D01*
X140669000Y-81599571D01*
X140740428Y-81635285D01*
X140883285Y-81635285D01*
X140954714Y-81599571D01*
X140990428Y-81563857D01*
X141026142Y-81492428D01*
X141026142Y-80885285D01*
X141347571Y-81599571D02*
X141454714Y-81635285D01*
X141633285Y-81635285D01*
X141704714Y-81599571D01*
X141740428Y-81563857D01*
X141776142Y-81492428D01*
X141776142Y-81421000D01*
X141740428Y-81349571D01*
X141704714Y-81313857D01*
X141633285Y-81278142D01*
X141490428Y-81242428D01*
X141419000Y-81206714D01*
X141383285Y-81171000D01*
X141347571Y-81099571D01*
X141347571Y-81028142D01*
X141383285Y-80956714D01*
X141419000Y-80921000D01*
X141490428Y-80885285D01*
X141669000Y-80885285D01*
X141776142Y-80921000D01*
X142347571Y-81242428D02*
X142454714Y-81278142D01*
X142490428Y-81313857D01*
X142526142Y-81385285D01*
X142526142Y-81492428D01*
X142490428Y-81563857D01*
X142454714Y-81599571D01*
X142383285Y-81635285D01*
X142097571Y-81635285D01*
X142097571Y-80885285D01*
X142347571Y-80885285D01*
X142419000Y-80921000D01*
X142454714Y-80956714D01*
X142490428Y-81028142D01*
X142490428Y-81099571D01*
X142454714Y-81171000D01*
X142419000Y-81206714D01*
X142347571Y-81242428D01*
X142097571Y-81242428D01*
D13*
X145573047Y-93071000D02*
X145525428Y-93035285D01*
X145454000Y-93035285D01*
X145382571Y-93071000D01*
X145334952Y-93142428D01*
X145311142Y-93213857D01*
X145287333Y-93356714D01*
X145287333Y-93463857D01*
X145311142Y-93606714D01*
X145334952Y-93678142D01*
X145382571Y-93749571D01*
X145454000Y-93785285D01*
X145501619Y-93785285D01*
X145573047Y-93749571D01*
X145596857Y-93713857D01*
X145596857Y-93463857D01*
X145501619Y-93463857D01*
X145811142Y-93785285D02*
X145811142Y-93035285D01*
X146096857Y-93785285D01*
X146096857Y-93035285D01*
X146334952Y-93785285D02*
X146334952Y-93035285D01*
X146454000Y-93035285D01*
X146525428Y-93071000D01*
X146573047Y-93142428D01*
X146596857Y-93213857D01*
X146620666Y-93356714D01*
X146620666Y-93463857D01*
X146596857Y-93606714D01*
X146573047Y-93678142D01*
X146525428Y-93749571D01*
X146454000Y-93785285D01*
X146334952Y-93785285D01*
D11*
%TO.C,BatGND4*%
X164292373Y-85074942D02*
X164408487Y-85113647D01*
X164447192Y-85152352D01*
X164485897Y-85229761D01*
X164485897Y-85345876D01*
X164447192Y-85423285D01*
X164408487Y-85461990D01*
X164331078Y-85500695D01*
X164021440Y-85500695D01*
X164021440Y-84687895D01*
X164292373Y-84687895D01*
X164369782Y-84726600D01*
X164408487Y-84765304D01*
X164447192Y-84842714D01*
X164447192Y-84920123D01*
X164408487Y-84997533D01*
X164369782Y-85036238D01*
X164292373Y-85074942D01*
X164021440Y-85074942D01*
X165182582Y-85500695D02*
X165182582Y-85074942D01*
X165143878Y-84997533D01*
X165066468Y-84958828D01*
X164911649Y-84958828D01*
X164834240Y-84997533D01*
X165182582Y-85461990D02*
X165105173Y-85500695D01*
X164911649Y-85500695D01*
X164834240Y-85461990D01*
X164795535Y-85384580D01*
X164795535Y-85307171D01*
X164834240Y-85229761D01*
X164911649Y-85191057D01*
X165105173Y-85191057D01*
X165182582Y-85152352D01*
X165453516Y-84958828D02*
X165763154Y-84958828D01*
X165569630Y-84687895D02*
X165569630Y-85384580D01*
X165608335Y-85461990D01*
X165685744Y-85500695D01*
X165763154Y-85500695D01*
X166459840Y-84726600D02*
X166382430Y-84687895D01*
X166266316Y-84687895D01*
X166150201Y-84726600D01*
X166072792Y-84804009D01*
X166034087Y-84881419D01*
X165995382Y-85036238D01*
X165995382Y-85152352D01*
X166034087Y-85307171D01*
X166072792Y-85384580D01*
X166150201Y-85461990D01*
X166266316Y-85500695D01*
X166343725Y-85500695D01*
X166459840Y-85461990D01*
X166498544Y-85423285D01*
X166498544Y-85152352D01*
X166343725Y-85152352D01*
X166846887Y-85500695D02*
X166846887Y-84687895D01*
X167311344Y-85500695D01*
X167311344Y-84687895D01*
X167698392Y-85500695D02*
X167698392Y-84687895D01*
X167891916Y-84687895D01*
X168008030Y-84726600D01*
X168085440Y-84804009D01*
X168124144Y-84881419D01*
X168162849Y-85036238D01*
X168162849Y-85152352D01*
X168124144Y-85307171D01*
X168085440Y-85384580D01*
X168008030Y-85461990D01*
X167891916Y-85500695D01*
X167698392Y-85500695D01*
X168859535Y-84958828D02*
X168859535Y-85500695D01*
X168666011Y-84649190D02*
X168472487Y-85229761D01*
X168975649Y-85229761D01*
%TO.C,Bat+1*%
X153597763Y-85074942D02*
X153713878Y-85113647D01*
X153752582Y-85152352D01*
X153791287Y-85229761D01*
X153791287Y-85345876D01*
X153752582Y-85423285D01*
X153713878Y-85461990D01*
X153636468Y-85500695D01*
X153326830Y-85500695D01*
X153326830Y-84687895D01*
X153597763Y-84687895D01*
X153675173Y-84726600D01*
X153713878Y-84765304D01*
X153752582Y-84842714D01*
X153752582Y-84920123D01*
X153713878Y-84997533D01*
X153675173Y-85036238D01*
X153597763Y-85074942D01*
X153326830Y-85074942D01*
X154487973Y-85500695D02*
X154487973Y-85074942D01*
X154449268Y-84997533D01*
X154371859Y-84958828D01*
X154217040Y-84958828D01*
X154139630Y-84997533D01*
X154487973Y-85461990D02*
X154410563Y-85500695D01*
X154217040Y-85500695D01*
X154139630Y-85461990D01*
X154100925Y-85384580D01*
X154100925Y-85307171D01*
X154139630Y-85229761D01*
X154217040Y-85191057D01*
X154410563Y-85191057D01*
X154487973Y-85152352D01*
X154758906Y-84958828D02*
X155068544Y-84958828D01*
X154875020Y-84687895D02*
X154875020Y-85384580D01*
X154913725Y-85461990D01*
X154991135Y-85500695D01*
X155068544Y-85500695D01*
X155339478Y-85191057D02*
X155958754Y-85191057D01*
X155649116Y-85500695D02*
X155649116Y-84881419D01*
X156771554Y-85500695D02*
X156307097Y-85500695D01*
X156539325Y-85500695D02*
X156539325Y-84687895D01*
X156461916Y-84804009D01*
X156384506Y-84881419D01*
X156307097Y-84920123D01*
D12*
%TO.C,REF\u002A\u002A*%
X207811714Y-82462500D02*
X208811714Y-82462500D01*
X207859333Y-82462500D02*
X207811714Y-82367261D01*
X207811714Y-82176785D01*
X207859333Y-82081547D01*
X207906952Y-82033928D01*
X208002190Y-81986309D01*
X208287904Y-81986309D01*
X208383142Y-82033928D01*
X208430761Y-82081547D01*
X208478380Y-82176785D01*
X208478380Y-82367261D01*
X208430761Y-82462500D01*
X207811714Y-81129166D02*
X208478380Y-81129166D01*
X207811714Y-81557738D02*
X208335523Y-81557738D01*
X208430761Y-81510119D01*
X208478380Y-81414880D01*
X208478380Y-81272023D01*
X208430761Y-81176785D01*
X208383142Y-81129166D01*
X208430761Y-80224404D02*
X208478380Y-80319642D01*
X208478380Y-80510119D01*
X208430761Y-80605357D01*
X208383142Y-80652976D01*
X208287904Y-80700595D01*
X208002190Y-80700595D01*
X207906952Y-80652976D01*
X207859333Y-80605357D01*
X207811714Y-80510119D01*
X207811714Y-80319642D01*
X207859333Y-80224404D01*
X208478380Y-79795833D02*
X207478380Y-79795833D01*
X208097428Y-79700595D02*
X208478380Y-79414880D01*
X207811714Y-79414880D02*
X208192666Y-79795833D01*
X207875214Y-96353000D02*
X207875214Y-95972047D01*
X207541880Y-96210142D02*
X208399023Y-96210142D01*
X208494261Y-96162523D01*
X208541880Y-96067285D01*
X208541880Y-95972047D01*
X208494261Y-95257761D02*
X208541880Y-95353000D01*
X208541880Y-95543476D01*
X208494261Y-95638714D01*
X208399023Y-95686333D01*
X208018071Y-95686333D01*
X207922833Y-95638714D01*
X207875214Y-95543476D01*
X207875214Y-95353000D01*
X207922833Y-95257761D01*
X208018071Y-95210142D01*
X208113309Y-95210142D01*
X208208547Y-95686333D01*
X207875214Y-94781571D02*
X208541880Y-94781571D01*
X207970452Y-94781571D02*
X207922833Y-94733952D01*
X207875214Y-94638714D01*
X207875214Y-94495857D01*
X207922833Y-94400619D01*
X208018071Y-94353000D01*
X208541880Y-94353000D01*
X207875214Y-94019666D02*
X207875214Y-93638714D01*
X207541880Y-93876809D02*
X208399023Y-93876809D01*
X208494261Y-93829190D01*
X208541880Y-93733952D01*
X208541880Y-93638714D01*
X208541880Y-93305380D02*
X207875214Y-93305380D01*
X207541880Y-93305380D02*
X207589500Y-93353000D01*
X207637119Y-93305380D01*
X207589500Y-93257761D01*
X207541880Y-93305380D01*
X207637119Y-93305380D01*
X207875214Y-92829190D02*
X208541880Y-92829190D01*
X207970452Y-92829190D02*
X207922833Y-92781571D01*
X207875214Y-92686333D01*
X207875214Y-92543476D01*
X207922833Y-92448238D01*
X208018071Y-92400619D01*
X208541880Y-92400619D01*
X207875214Y-91495857D02*
X208684738Y-91495857D01*
X208779976Y-91543476D01*
X208827595Y-91591095D01*
X208875214Y-91686333D01*
X208875214Y-91829190D01*
X208827595Y-91924428D01*
X208494261Y-91495857D02*
X208541880Y-91591095D01*
X208541880Y-91781571D01*
X208494261Y-91876809D01*
X208446642Y-91924428D01*
X208351404Y-91972047D01*
X208065690Y-91972047D01*
X207970452Y-91924428D01*
X207922833Y-91876809D01*
X207875214Y-91781571D01*
X207875214Y-91591095D01*
X207922833Y-91495857D01*
D11*
%TO.C,SW2*%
X159538506Y-83902761D02*
X159681363Y-83950380D01*
X159919459Y-83950380D01*
X160014697Y-83902761D01*
X160062316Y-83855142D01*
X160109935Y-83759904D01*
X160109935Y-83664666D01*
X160062316Y-83569428D01*
X160014697Y-83521809D01*
X159919459Y-83474190D01*
X159728982Y-83426571D01*
X159633744Y-83378952D01*
X159586125Y-83331333D01*
X159538506Y-83236095D01*
X159538506Y-83140857D01*
X159586125Y-83045619D01*
X159633744Y-82998000D01*
X159728982Y-82950380D01*
X159967078Y-82950380D01*
X160109935Y-82998000D01*
X160443268Y-82950380D02*
X160681363Y-83950380D01*
X160871840Y-83236095D01*
X161062316Y-83950380D01*
X161300411Y-82950380D01*
X161633744Y-83045619D02*
X161681363Y-82998000D01*
X161776601Y-82950380D01*
X162014697Y-82950380D01*
X162109935Y-82998000D01*
X162157554Y-83045619D01*
X162205173Y-83140857D01*
X162205173Y-83236095D01*
X162157554Y-83378952D01*
X161586125Y-83950380D01*
X162205173Y-83950380D01*
D14*
%TO.C,U2*%
X158021411Y-81635285D02*
X158021411Y-80885285D01*
X158271411Y-81421000D01*
X158521411Y-80885285D01*
X158521411Y-81635285D01*
X158878554Y-81635285D02*
X158878554Y-81135285D01*
X158878554Y-80885285D02*
X158842840Y-80921000D01*
X158878554Y-80956714D01*
X158914268Y-80921000D01*
X158878554Y-80885285D01*
X158878554Y-80956714D01*
X159557125Y-81599571D02*
X159485697Y-81635285D01*
X159342840Y-81635285D01*
X159271411Y-81599571D01*
X159235697Y-81563857D01*
X159199982Y-81492428D01*
X159199982Y-81278142D01*
X159235697Y-81206714D01*
X159271411Y-81171000D01*
X159342840Y-81135285D01*
X159485697Y-81135285D01*
X159557125Y-81171000D01*
X159878554Y-81635285D02*
X159878554Y-81135285D01*
X159878554Y-81278142D02*
X159914268Y-81206714D01*
X159949982Y-81171000D01*
X160021411Y-81135285D01*
X160092840Y-81135285D01*
X160449982Y-81635285D02*
X160378554Y-81599571D01*
X160342840Y-81563857D01*
X160307125Y-81492428D01*
X160307125Y-81278142D01*
X160342840Y-81206714D01*
X160378554Y-81171000D01*
X160449982Y-81135285D01*
X160557125Y-81135285D01*
X160628554Y-81171000D01*
X160664268Y-81206714D01*
X160699982Y-81278142D01*
X160699982Y-81492428D01*
X160664268Y-81563857D01*
X160628554Y-81599571D01*
X160557125Y-81635285D01*
X160449982Y-81635285D01*
X161021411Y-80885285D02*
X161021411Y-81492428D01*
X161057125Y-81563857D01*
X161092840Y-81599571D01*
X161164268Y-81635285D01*
X161307125Y-81635285D01*
X161378554Y-81599571D01*
X161414268Y-81563857D01*
X161449982Y-81492428D01*
X161449982Y-80885285D01*
X161771411Y-81599571D02*
X161878554Y-81635285D01*
X162057125Y-81635285D01*
X162128554Y-81599571D01*
X162164268Y-81563857D01*
X162199982Y-81492428D01*
X162199982Y-81421000D01*
X162164268Y-81349571D01*
X162128554Y-81313857D01*
X162057125Y-81278142D01*
X161914268Y-81242428D01*
X161842840Y-81206714D01*
X161807125Y-81171000D01*
X161771411Y-81099571D01*
X161771411Y-81028142D01*
X161807125Y-80956714D01*
X161842840Y-80921000D01*
X161914268Y-80885285D01*
X162092840Y-80885285D01*
X162199982Y-80921000D01*
X162771411Y-81242428D02*
X162878554Y-81278142D01*
X162914268Y-81313857D01*
X162949982Y-81385285D01*
X162949982Y-81492428D01*
X162914268Y-81563857D01*
X162878554Y-81599571D01*
X162807125Y-81635285D01*
X162521411Y-81635285D01*
X162521411Y-80885285D01*
X162771411Y-80885285D01*
X162842840Y-80921000D01*
X162878554Y-80956714D01*
X162914268Y-81028142D01*
X162914268Y-81099571D01*
X162878554Y-81171000D01*
X162842840Y-81206714D01*
X162771411Y-81242428D01*
X162521411Y-81242428D01*
D13*
X154366887Y-87961000D02*
X154319268Y-87925285D01*
X154247840Y-87925285D01*
X154176411Y-87961000D01*
X154128792Y-88032428D01*
X154104982Y-88103857D01*
X154081173Y-88246714D01*
X154081173Y-88353857D01*
X154104982Y-88496714D01*
X154128792Y-88568142D01*
X154176411Y-88639571D01*
X154247840Y-88675285D01*
X154295459Y-88675285D01*
X154366887Y-88639571D01*
X154390697Y-88603857D01*
X154390697Y-88353857D01*
X154295459Y-88353857D01*
X154604982Y-88675285D02*
X154604982Y-87925285D01*
X154890697Y-88675285D01*
X154890697Y-87925285D01*
X155128792Y-88675285D02*
X155128792Y-87925285D01*
X155247840Y-87925285D01*
X155319268Y-87961000D01*
X155366887Y-88032428D01*
X155390697Y-88103857D01*
X155414506Y-88246714D01*
X155414506Y-88353857D01*
X155390697Y-88496714D01*
X155366887Y-88568142D01*
X155319268Y-88639571D01*
X155247840Y-88675285D01*
X155128792Y-88675285D01*
X165996887Y-93071000D02*
X165949268Y-93035285D01*
X165877840Y-93035285D01*
X165806411Y-93071000D01*
X165758792Y-93142428D01*
X165734982Y-93213857D01*
X165711173Y-93356714D01*
X165711173Y-93463857D01*
X165734982Y-93606714D01*
X165758792Y-93678142D01*
X165806411Y-93749571D01*
X165877840Y-93785285D01*
X165925459Y-93785285D01*
X165996887Y-93749571D01*
X166020697Y-93713857D01*
X166020697Y-93463857D01*
X165925459Y-93463857D01*
X166234982Y-93785285D02*
X166234982Y-93035285D01*
X166520697Y-93785285D01*
X166520697Y-93035285D01*
X166758792Y-93785285D02*
X166758792Y-93035285D01*
X166877840Y-93035285D01*
X166949268Y-93071000D01*
X166996887Y-93142428D01*
X167020697Y-93213857D01*
X167044506Y-93356714D01*
X167044506Y-93463857D01*
X167020697Y-93606714D01*
X166996887Y-93678142D01*
X166949268Y-93749571D01*
X166877840Y-93785285D01*
X166758792Y-93785285D01*
X166016887Y-90491000D02*
X165969268Y-90455285D01*
X165897840Y-90455285D01*
X165826411Y-90491000D01*
X165778792Y-90562428D01*
X165754982Y-90633857D01*
X165731173Y-90776714D01*
X165731173Y-90883857D01*
X165754982Y-91026714D01*
X165778792Y-91098142D01*
X165826411Y-91169571D01*
X165897840Y-91205285D01*
X165945459Y-91205285D01*
X166016887Y-91169571D01*
X166040697Y-91133857D01*
X166040697Y-90883857D01*
X165945459Y-90883857D01*
X166254982Y-91205285D02*
X166254982Y-90455285D01*
X166540697Y-91205285D01*
X166540697Y-90455285D01*
X166778792Y-91205285D02*
X166778792Y-90455285D01*
X166897840Y-90455285D01*
X166969268Y-90491000D01*
X167016887Y-90562428D01*
X167040697Y-90633857D01*
X167064506Y-90776714D01*
X167064506Y-90883857D01*
X167040697Y-91026714D01*
X167016887Y-91098142D01*
X166969268Y-91169571D01*
X166897840Y-91205285D01*
X166778792Y-91205285D01*
D11*
D13*
X154502601Y-86065285D02*
X154335935Y-85708142D01*
X154216887Y-86065285D02*
X154216887Y-85315285D01*
X154407363Y-85315285D01*
X154454982Y-85351000D01*
X154478792Y-85386714D01*
X154502601Y-85458142D01*
X154502601Y-85565285D01*
X154478792Y-85636714D01*
X154454982Y-85672428D01*
X154407363Y-85708142D01*
X154216887Y-85708142D01*
X154693078Y-85851000D02*
X154931173Y-85851000D01*
X154645459Y-86065285D02*
X154812125Y-85315285D01*
X154978792Y-86065285D01*
X155097840Y-85315285D02*
X155216887Y-86065285D01*
X155312125Y-85529571D01*
X155407363Y-86065285D01*
X155526411Y-85315285D01*
D11*
%TO.C,*%
%TO.C,Bat+r1*%
X147190000Y-82736000D02*
X145190000Y-82736000D01*
X145190000Y-84736000D02*
X147190000Y-84736000D01*
X147190000Y-84736000D02*
X147190000Y-82736000D01*
X145190000Y-82736000D02*
X145190000Y-84736000D01*
%TO.C,BatGND1*%
X135760000Y-84736000D02*
X135760000Y-82736000D01*
X133760000Y-82736000D02*
X133760000Y-84736000D01*
X135760000Y-82736000D02*
X133760000Y-82736000D01*
X133760000Y-84736000D02*
X135760000Y-84736000D01*
D15*
%TO.C,REF\u002A\u002A*%
X99464047Y-67708866D02*
G75*
G03*
X95313500Y-66675000I-7008047J-19286134D01*
G01*
X72136000Y-89852500D02*
G75*
G03*
X73169866Y-94003047I20319953J2857490D01*
G01*
X92456000Y-97790001D02*
G75*
G03*
X93584385Y-97730864I0J10794901D01*
G01*
X112776000Y-84137500D02*
G75*
G03*
X111742135Y-79986955I-20320019J-2857506D01*
G01*
X89598500Y-66675000D02*
G75*
G03*
X85447952Y-67708866I2857496J-20319983D01*
G01*
X93584385Y-76259137D02*
G75*
G03*
X92456000Y-76200000I-1128385J-10735763D01*
G01*
X73169866Y-79986952D02*
G75*
G03*
X72136000Y-84137500I19286117J-7008044D01*
G01*
X111742135Y-94003046D02*
G75*
G03*
X112776000Y-89852500I-19286185J7008058D01*
G01*
X85447954Y-106281135D02*
G75*
G03*
X89598500Y-107315000I7008046J19286135D01*
G01*
X92456000Y-76200000D02*
G75*
G03*
X91327615Y-76259136I-6J-10794921D01*
G01*
X91327615Y-97730864D02*
G75*
G03*
X92456000Y-97790000I1128379J10735785D01*
G01*
X95313500Y-107315000D02*
G75*
G03*
X99464047Y-106281134I-2857500J20320000D01*
G01*
G36*
X92529889Y-101179589D02*
G01*
X92528486Y-101072960D01*
X92527442Y-100950304D01*
X92526778Y-100813032D01*
X92526517Y-100662558D01*
X92526514Y-100650822D01*
X92526427Y-99959108D01*
X93034131Y-99449082D01*
X93034279Y-99942650D01*
X93034471Y-100046890D01*
X93034960Y-100143635D01*
X93035710Y-100230521D01*
X93036686Y-100305183D01*
X93037855Y-100365258D01*
X93039182Y-100408381D01*
X93040631Y-100432188D01*
X93041539Y-100436218D01*
X93053970Y-100429904D01*
X93078816Y-100413561D01*
X93102950Y-100396359D01*
X93217647Y-100325637D01*
X93339863Y-100276533D01*
X93470246Y-100248857D01*
X93609447Y-100242419D01*
X93627259Y-100243087D01*
X93716894Y-100249639D01*
X93793377Y-100261576D01*
X93865029Y-100281068D01*
X93940167Y-100310285D01*
X94010018Y-100342924D01*
X94137951Y-100418217D01*
X94250871Y-100510197D01*
X94347765Y-100617186D01*
X94427623Y-100737511D01*
X94489433Y-100869496D01*
X94532185Y-101011465D01*
X94554866Y-101161744D01*
X94558427Y-101251414D01*
X94548136Y-101403892D01*
X94516780Y-101548456D01*
X94463635Y-101687692D01*
X94406380Y-101794611D01*
X94320668Y-101914904D01*
X94219055Y-102019753D01*
X94103722Y-102108075D01*
X93976847Y-102178789D01*
X93840611Y-102230812D01*
X93697192Y-102263065D01*
X93548771Y-102274464D01*
X93448525Y-102269981D01*
X93303917Y-102245100D01*
X93163349Y-102198825D01*
X93030176Y-102132846D01*
X92907756Y-102048849D01*
X92799444Y-101948523D01*
X92791050Y-101939357D01*
X92709919Y-101835237D01*
X92640227Y-101717055D01*
X92585061Y-101591192D01*
X92547508Y-101464032D01*
X92538639Y-101417582D01*
X92536026Y-101389187D01*
X92533681Y-101339115D01*
X92532212Y-101288781D01*
X93028550Y-101288781D01*
X93039122Y-101386330D01*
X93069554Y-101480349D01*
X93098208Y-101534494D01*
X93165142Y-101622777D01*
X93244623Y-101693654D01*
X93334055Y-101746147D01*
X93430841Y-101779279D01*
X93532382Y-101792073D01*
X93636083Y-101783552D01*
X93708910Y-101764264D01*
X93751907Y-101748178D01*
X93792812Y-101730818D01*
X93808979Y-101723042D01*
X93854265Y-101692038D01*
X93903588Y-101645844D01*
X93951645Y-101590388D01*
X93993130Y-101531594D01*
X94014618Y-101493267D01*
X94034799Y-101449021D01*
X94047444Y-101410413D01*
X94054801Y-101368121D01*
X94059119Y-101312818D01*
X94059401Y-101307528D01*
X94056033Y-101200283D01*
X94033177Y-101102391D01*
X93989525Y-101008968D01*
X93971755Y-100980439D01*
X93907213Y-100902535D01*
X93828396Y-100840365D01*
X93738760Y-100794869D01*
X93641761Y-100766991D01*
X93540857Y-100757671D01*
X93439505Y-100767853D01*
X93341159Y-100798478D01*
X93327156Y-100804764D01*
X93239204Y-100857713D01*
X93165214Y-100925927D01*
X93106171Y-101006273D01*
X93063058Y-101095620D01*
X93036856Y-101190833D01*
X93028550Y-101288781D01*
X92532212Y-101288781D01*
X92531628Y-101268778D01*
X92529889Y-101179589D01*
G37*
D16*
X92529889Y-101179589D02*
X92528486Y-101072960D01*
X92527442Y-100950304D01*
X92526778Y-100813032D01*
X92526517Y-100662558D01*
X92526514Y-100650822D01*
X92526427Y-99959108D01*
X93034131Y-99449082D01*
X93034279Y-99942650D01*
X93034471Y-100046890D01*
X93034960Y-100143635D01*
X93035710Y-100230521D01*
X93036686Y-100305183D01*
X93037855Y-100365258D01*
X93039182Y-100408381D01*
X93040631Y-100432188D01*
X93041539Y-100436218D01*
X93053970Y-100429904D01*
X93078816Y-100413561D01*
X93102950Y-100396359D01*
X93217647Y-100325637D01*
X93339863Y-100276533D01*
X93470246Y-100248857D01*
X93609447Y-100242419D01*
X93627259Y-100243087D01*
X93716894Y-100249639D01*
X93793377Y-100261576D01*
X93865029Y-100281068D01*
X93940167Y-100310285D01*
X94010018Y-100342924D01*
X94137951Y-100418217D01*
X94250871Y-100510197D01*
X94347765Y-100617186D01*
X94427623Y-100737511D01*
X94489433Y-100869496D01*
X94532185Y-101011465D01*
X94554866Y-101161744D01*
X94558427Y-101251414D01*
X94548136Y-101403892D01*
X94516780Y-101548456D01*
X94463635Y-101687692D01*
X94406380Y-101794611D01*
X94320668Y-101914904D01*
X94219055Y-102019753D01*
X94103722Y-102108075D01*
X93976847Y-102178789D01*
X93840611Y-102230812D01*
X93697192Y-102263065D01*
X93548771Y-102274464D01*
X93448525Y-102269981D01*
X93303917Y-102245100D01*
X93163349Y-102198825D01*
X93030176Y-102132846D01*
X92907756Y-102048849D01*
X92799444Y-101948523D01*
X92791050Y-101939357D01*
X92709919Y-101835237D01*
X92640227Y-101717055D01*
X92585061Y-101591192D01*
X92547508Y-101464032D01*
X92538639Y-101417582D01*
X92536026Y-101389187D01*
X92533681Y-101339115D01*
X92532212Y-101288781D01*
X93028550Y-101288781D01*
X93039122Y-101386330D01*
X93069554Y-101480349D01*
X93098208Y-101534494D01*
X93165142Y-101622777D01*
X93244623Y-101693654D01*
X93334055Y-101746147D01*
X93430841Y-101779279D01*
X93532382Y-101792073D01*
X93636083Y-101783552D01*
X93708910Y-101764264D01*
X93751907Y-101748178D01*
X93792812Y-101730818D01*
X93808979Y-101723042D01*
X93854265Y-101692038D01*
X93903588Y-101645844D01*
X93951645Y-101590388D01*
X93993130Y-101531594D01*
X94014618Y-101493267D01*
X94034799Y-101449021D01*
X94047444Y-101410413D01*
X94054801Y-101368121D01*
X94059119Y-101312818D01*
X94059401Y-101307528D01*
X94056033Y-101200283D01*
X94033177Y-101102391D01*
X93989525Y-101008968D01*
X93971755Y-100980439D01*
X93907213Y-100902535D01*
X93828396Y-100840365D01*
X93738760Y-100794869D01*
X93641761Y-100766991D01*
X93540857Y-100757671D01*
X93439505Y-100767853D01*
X93341159Y-100798478D01*
X93327156Y-100804764D01*
X93239204Y-100857713D01*
X93165214Y-100925927D01*
X93106171Y-101006273D01*
X93063058Y-101095620D01*
X93036856Y-101190833D01*
X93028550Y-101288781D01*
X92532212Y-101288781D01*
X92531628Y-101268778D01*
X92529889Y-101179589D01*
G36*
X90829245Y-101076867D02*
G01*
X91632191Y-100274167D01*
X91920559Y-100277261D01*
X92208927Y-100280354D01*
X91361703Y-101140491D01*
X91243778Y-101260214D01*
X91128979Y-101376763D01*
X91018525Y-101488903D01*
X90913633Y-101595396D01*
X90815521Y-101695007D01*
X90725406Y-101786500D01*
X90644507Y-101868637D01*
X90574040Y-101940182D01*
X90515224Y-101999900D01*
X90469277Y-102046554D01*
X90437416Y-102078907D01*
X90423635Y-102092903D01*
X90332791Y-102185179D01*
X90332791Y-99443309D01*
X90829245Y-99443309D01*
X90829245Y-101076867D01*
G37*
X90829245Y-101076867D02*
X91632191Y-100274167D01*
X91920559Y-100277261D01*
X92208927Y-100280354D01*
X91361703Y-101140491D01*
X91243778Y-101260214D01*
X91128979Y-101376763D01*
X91018525Y-101488903D01*
X90913633Y-101595396D01*
X90815521Y-101695007D01*
X90725406Y-101786500D01*
X90644507Y-101868637D01*
X90574040Y-101940182D01*
X90515224Y-101999900D01*
X90469277Y-102046554D01*
X90437416Y-102078907D01*
X90423635Y-102092903D01*
X90332791Y-102185179D01*
X90332791Y-99443309D01*
X90829245Y-99443309D01*
X90829245Y-101076867D01*
G36*
X91636025Y-101483398D02*
G01*
X91658728Y-101506261D01*
X91693207Y-101541792D01*
X91737476Y-101587884D01*
X91789543Y-101642430D01*
X91847422Y-101703324D01*
X91909121Y-101768459D01*
X91972654Y-101835729D01*
X92036029Y-101903027D01*
X92097259Y-101968246D01*
X92154355Y-102029281D01*
X92205327Y-102084024D01*
X92248187Y-102130369D01*
X92280945Y-102166209D01*
X92301613Y-102189438D01*
X92303906Y-102192129D01*
X92332207Y-102225764D01*
X91712193Y-102225764D01*
X91538843Y-102049695D01*
X91485101Y-101994952D01*
X91434818Y-101943439D01*
X91391002Y-101898259D01*
X91356656Y-101862513D01*
X91334788Y-101839304D01*
X91331611Y-101835812D01*
X91297729Y-101797997D01*
X91458764Y-101636653D01*
X91508477Y-101587198D01*
X91552701Y-101543873D01*
X91588848Y-101509160D01*
X91614330Y-101485540D01*
X91626559Y-101475492D01*
X91627090Y-101475309D01*
X91636025Y-101483398D01*
G37*
X91636025Y-101483398D02*
X91658728Y-101506261D01*
X91693207Y-101541792D01*
X91737476Y-101587884D01*
X91789543Y-101642430D01*
X91847422Y-101703324D01*
X91909121Y-101768459D01*
X91972654Y-101835729D01*
X92036029Y-101903027D01*
X92097259Y-101968246D01*
X92154355Y-102029281D01*
X92205327Y-102084024D01*
X92248187Y-102130369D01*
X92280945Y-102166209D01*
X92301613Y-102189438D01*
X92303906Y-102192129D01*
X92332207Y-102225764D01*
X91712193Y-102225764D01*
X91538843Y-102049695D01*
X91485101Y-101994952D01*
X91434818Y-101943439D01*
X91391002Y-101898259D01*
X91356656Y-101862513D01*
X91334788Y-101839304D01*
X91331611Y-101835812D01*
X91297729Y-101797997D01*
X91458764Y-101636653D01*
X91508477Y-101587198D01*
X91552701Y-101543873D01*
X91588848Y-101509160D01*
X91614330Y-101485540D01*
X91626559Y-101475492D01*
X91627090Y-101475309D01*
X91636025Y-101483398D01*
D14*
%TO.C,RSW1*%
X133180000Y-120522000D02*
X133480000Y-120522000D01*
X130980000Y-120522000D02*
X130680000Y-120522000D01*
X133480000Y-120522000D02*
X133480000Y-117222000D01*
X130680000Y-117222000D02*
X130980000Y-117222000D01*
X133480000Y-117222000D02*
X133180000Y-117222000D01*
X130680000Y-120522000D02*
X130680000Y-117222000D01*
D11*
%TO.C,U1*%
X148994000Y-113996000D02*
X148994000Y-114996000D01*
X139944000Y-79846000D02*
X140244000Y-79846000D01*
X148994000Y-81946000D02*
X148044000Y-81946000D01*
X139844000Y-79696000D02*
X140344000Y-79696000D01*
X131194000Y-113946000D02*
X131194000Y-114996000D01*
X131194000Y-81946000D02*
X132194000Y-81946000D01*
X136344000Y-79046000D02*
X136344000Y-80346000D01*
X131194000Y-81946000D02*
X131194000Y-82946000D01*
X131194000Y-114996000D02*
X132194000Y-114996000D01*
X148994000Y-81946000D02*
X148994000Y-82946000D01*
X140594000Y-79396000D02*
X140094000Y-80046000D01*
X143844000Y-80346000D02*
X143844000Y-79046000D01*
X148994000Y-114996000D02*
X147984000Y-114996000D01*
X140094000Y-80046000D02*
X139594000Y-79396000D01*
X139744000Y-79546000D02*
X140444000Y-79546000D01*
X139594000Y-79396000D02*
X140594000Y-79396000D01*
X136344000Y-80346000D02*
X143844000Y-80346000D01*
X143844000Y-79046000D02*
X136344000Y-79046000D01*
%TO.C,BatGND4*%
X167459840Y-82482000D02*
X165459840Y-82482000D01*
X167459840Y-84482000D02*
X167459840Y-82482000D01*
X165459840Y-82482000D02*
X165459840Y-84482000D01*
X165459840Y-84482000D02*
X167459840Y-84482000D01*
D14*
%TO.C,RSW2*%
X169502000Y-120268000D02*
X169802000Y-120268000D01*
X167302000Y-120268000D02*
X167002000Y-120268000D01*
X169802000Y-120268000D02*
X169802000Y-116968000D01*
X167002000Y-120268000D02*
X167002000Y-116968000D01*
X169802000Y-116968000D02*
X169502000Y-116968000D01*
X167002000Y-116968000D02*
X167302000Y-116968000D01*
D11*
%TO.C,Bat+1*%
X156029840Y-82482000D02*
X154029840Y-82482000D01*
X154029840Y-82482000D02*
X154029840Y-84482000D01*
X156029840Y-84482000D02*
X156029840Y-82482000D01*
X154029840Y-84482000D02*
X156029840Y-84482000D01*
D15*
%TO.C,REF\u002A\u002A*%
X209408385Y-76259137D02*
G75*
G03*
X208280000Y-76200000I-1128385J-10735763D01*
G01*
X211137500Y-107315000D02*
G75*
G03*
X215288047Y-106281134I-2857500J20320000D01*
G01*
X227566135Y-94003046D02*
G75*
G03*
X228600000Y-89852500I-19286185J7008058D01*
G01*
X188993866Y-79986952D02*
G75*
G03*
X187960000Y-84137500I19286117J-7008044D01*
G01*
X208280000Y-76200000D02*
G75*
G03*
X207151615Y-76259136I-6J-10794921D01*
G01*
X201271954Y-106281135D02*
G75*
G03*
X205422500Y-107315000I7008046J19286135D01*
G01*
X205422500Y-66675000D02*
G75*
G03*
X201271952Y-67708866I2857496J-20319983D01*
G01*
X207151615Y-97730864D02*
G75*
G03*
X208280000Y-97790000I1128379J10735785D01*
G01*
X187960000Y-89852500D02*
G75*
G03*
X188993866Y-94003047I20319953J2857490D01*
G01*
X208280000Y-97790001D02*
G75*
G03*
X209408385Y-97730864I0J10794901D01*
G01*
X228600000Y-84137500D02*
G75*
G03*
X227566135Y-79986955I-20320019J-2857506D01*
G01*
X215288047Y-67708866D02*
G75*
G03*
X211137500Y-66675000I-7008047J-19286134D01*
G01*
G36*
X208353889Y-101179589D02*
G01*
X208352486Y-101072960D01*
X208351442Y-100950304D01*
X208350778Y-100813032D01*
X208350517Y-100662558D01*
X208350514Y-100650822D01*
X208350427Y-99959108D01*
X208858131Y-99449082D01*
X208858279Y-99942650D01*
X208858471Y-100046890D01*
X208858960Y-100143635D01*
X208859710Y-100230521D01*
X208860686Y-100305183D01*
X208861855Y-100365258D01*
X208863182Y-100408381D01*
X208864631Y-100432188D01*
X208865539Y-100436218D01*
X208877970Y-100429904D01*
X208902816Y-100413561D01*
X208926950Y-100396359D01*
X209041647Y-100325637D01*
X209163863Y-100276533D01*
X209294246Y-100248857D01*
X209433447Y-100242419D01*
X209451259Y-100243087D01*
X209540894Y-100249639D01*
X209617377Y-100261576D01*
X209689029Y-100281068D01*
X209764167Y-100310285D01*
X209834018Y-100342924D01*
X209961951Y-100418217D01*
X210074871Y-100510197D01*
X210171765Y-100617186D01*
X210251623Y-100737511D01*
X210313433Y-100869496D01*
X210356185Y-101011465D01*
X210378866Y-101161744D01*
X210382427Y-101251414D01*
X210372136Y-101403892D01*
X210340780Y-101548456D01*
X210287635Y-101687692D01*
X210230380Y-101794611D01*
X210144668Y-101914904D01*
X210043055Y-102019753D01*
X209927722Y-102108075D01*
X209800847Y-102178789D01*
X209664611Y-102230812D01*
X209521192Y-102263065D01*
X209372771Y-102274464D01*
X209272525Y-102269981D01*
X209127917Y-102245100D01*
X208987349Y-102198825D01*
X208854176Y-102132846D01*
X208731756Y-102048849D01*
X208623444Y-101948523D01*
X208615050Y-101939357D01*
X208533919Y-101835237D01*
X208464227Y-101717055D01*
X208409061Y-101591192D01*
X208371508Y-101464032D01*
X208362639Y-101417582D01*
X208360026Y-101389187D01*
X208357681Y-101339115D01*
X208356212Y-101288781D01*
X208852550Y-101288781D01*
X208863122Y-101386330D01*
X208893554Y-101480349D01*
X208922208Y-101534494D01*
X208989142Y-101622777D01*
X209068623Y-101693654D01*
X209158055Y-101746147D01*
X209254841Y-101779279D01*
X209356382Y-101792073D01*
X209460083Y-101783552D01*
X209532910Y-101764264D01*
X209575907Y-101748178D01*
X209616812Y-101730818D01*
X209632979Y-101723042D01*
X209678265Y-101692038D01*
X209727588Y-101645844D01*
X209775645Y-101590388D01*
X209817130Y-101531594D01*
X209838618Y-101493267D01*
X209858799Y-101449021D01*
X209871444Y-101410413D01*
X209878801Y-101368121D01*
X209883119Y-101312818D01*
X209883401Y-101307528D01*
X209880033Y-101200283D01*
X209857177Y-101102391D01*
X209813525Y-101008968D01*
X209795755Y-100980439D01*
X209731213Y-100902535D01*
X209652396Y-100840365D01*
X209562760Y-100794869D01*
X209465761Y-100766991D01*
X209364857Y-100757671D01*
X209263505Y-100767853D01*
X209165159Y-100798478D01*
X209151156Y-100804764D01*
X209063204Y-100857713D01*
X208989214Y-100925927D01*
X208930171Y-101006273D01*
X208887058Y-101095620D01*
X208860856Y-101190833D01*
X208852550Y-101288781D01*
X208356212Y-101288781D01*
X208355628Y-101268778D01*
X208353889Y-101179589D01*
G37*
D16*
X208353889Y-101179589D02*
X208352486Y-101072960D01*
X208351442Y-100950304D01*
X208350778Y-100813032D01*
X208350517Y-100662558D01*
X208350514Y-100650822D01*
X208350427Y-99959108D01*
X208858131Y-99449082D01*
X208858279Y-99942650D01*
X208858471Y-100046890D01*
X208858960Y-100143635D01*
X208859710Y-100230521D01*
X208860686Y-100305183D01*
X208861855Y-100365258D01*
X208863182Y-100408381D01*
X208864631Y-100432188D01*
X208865539Y-100436218D01*
X208877970Y-100429904D01*
X208902816Y-100413561D01*
X208926950Y-100396359D01*
X209041647Y-100325637D01*
X209163863Y-100276533D01*
X209294246Y-100248857D01*
X209433447Y-100242419D01*
X209451259Y-100243087D01*
X209540894Y-100249639D01*
X209617377Y-100261576D01*
X209689029Y-100281068D01*
X209764167Y-100310285D01*
X209834018Y-100342924D01*
X209961951Y-100418217D01*
X210074871Y-100510197D01*
X210171765Y-100617186D01*
X210251623Y-100737511D01*
X210313433Y-100869496D01*
X210356185Y-101011465D01*
X210378866Y-101161744D01*
X210382427Y-101251414D01*
X210372136Y-101403892D01*
X210340780Y-101548456D01*
X210287635Y-101687692D01*
X210230380Y-101794611D01*
X210144668Y-101914904D01*
X210043055Y-102019753D01*
X209927722Y-102108075D01*
X209800847Y-102178789D01*
X209664611Y-102230812D01*
X209521192Y-102263065D01*
X209372771Y-102274464D01*
X209272525Y-102269981D01*
X209127917Y-102245100D01*
X208987349Y-102198825D01*
X208854176Y-102132846D01*
X208731756Y-102048849D01*
X208623444Y-101948523D01*
X208615050Y-101939357D01*
X208533919Y-101835237D01*
X208464227Y-101717055D01*
X208409061Y-101591192D01*
X208371508Y-101464032D01*
X208362639Y-101417582D01*
X208360026Y-101389187D01*
X208357681Y-101339115D01*
X208356212Y-101288781D01*
X208852550Y-101288781D01*
X208863122Y-101386330D01*
X208893554Y-101480349D01*
X208922208Y-101534494D01*
X208989142Y-101622777D01*
X209068623Y-101693654D01*
X209158055Y-101746147D01*
X209254841Y-101779279D01*
X209356382Y-101792073D01*
X209460083Y-101783552D01*
X209532910Y-101764264D01*
X209575907Y-101748178D01*
X209616812Y-101730818D01*
X209632979Y-101723042D01*
X209678265Y-101692038D01*
X209727588Y-101645844D01*
X209775645Y-101590388D01*
X209817130Y-101531594D01*
X209838618Y-101493267D01*
X209858799Y-101449021D01*
X209871444Y-101410413D01*
X209878801Y-101368121D01*
X209883119Y-101312818D01*
X209883401Y-101307528D01*
X209880033Y-101200283D01*
X209857177Y-101102391D01*
X209813525Y-101008968D01*
X209795755Y-100980439D01*
X209731213Y-100902535D01*
X209652396Y-100840365D01*
X209562760Y-100794869D01*
X209465761Y-100766991D01*
X209364857Y-100757671D01*
X209263505Y-100767853D01*
X209165159Y-100798478D01*
X209151156Y-100804764D01*
X209063204Y-100857713D01*
X208989214Y-100925927D01*
X208930171Y-101006273D01*
X208887058Y-101095620D01*
X208860856Y-101190833D01*
X208852550Y-101288781D01*
X208356212Y-101288781D01*
X208355628Y-101268778D01*
X208353889Y-101179589D01*
G36*
X206653245Y-101076867D02*
G01*
X207456191Y-100274167D01*
X207744559Y-100277261D01*
X208032927Y-100280354D01*
X207185703Y-101140491D01*
X207067778Y-101260214D01*
X206952979Y-101376763D01*
X206842525Y-101488903D01*
X206737633Y-101595396D01*
X206639521Y-101695007D01*
X206549406Y-101786500D01*
X206468507Y-101868637D01*
X206398040Y-101940182D01*
X206339224Y-101999900D01*
X206293277Y-102046554D01*
X206261416Y-102078907D01*
X206247635Y-102092903D01*
X206156791Y-102185179D01*
X206156791Y-99443309D01*
X206653245Y-99443309D01*
X206653245Y-101076867D01*
G37*
X206653245Y-101076867D02*
X207456191Y-100274167D01*
X207744559Y-100277261D01*
X208032927Y-100280354D01*
X207185703Y-101140491D01*
X207067778Y-101260214D01*
X206952979Y-101376763D01*
X206842525Y-101488903D01*
X206737633Y-101595396D01*
X206639521Y-101695007D01*
X206549406Y-101786500D01*
X206468507Y-101868637D01*
X206398040Y-101940182D01*
X206339224Y-101999900D01*
X206293277Y-102046554D01*
X206261416Y-102078907D01*
X206247635Y-102092903D01*
X206156791Y-102185179D01*
X206156791Y-99443309D01*
X206653245Y-99443309D01*
X206653245Y-101076867D01*
G36*
X207460025Y-101483398D02*
G01*
X207482728Y-101506261D01*
X207517207Y-101541792D01*
X207561476Y-101587884D01*
X207613543Y-101642430D01*
X207671422Y-101703324D01*
X207733121Y-101768459D01*
X207796654Y-101835729D01*
X207860029Y-101903027D01*
X207921259Y-101968246D01*
X207978355Y-102029281D01*
X208029327Y-102084024D01*
X208072187Y-102130369D01*
X208104945Y-102166209D01*
X208125613Y-102189438D01*
X208127906Y-102192129D01*
X208156207Y-102225764D01*
X207536193Y-102225764D01*
X207362843Y-102049695D01*
X207309101Y-101994952D01*
X207258818Y-101943439D01*
X207215002Y-101898259D01*
X207180656Y-101862513D01*
X207158788Y-101839304D01*
X207155611Y-101835812D01*
X207121729Y-101797997D01*
X207282764Y-101636653D01*
X207332477Y-101587198D01*
X207376701Y-101543873D01*
X207412848Y-101509160D01*
X207438330Y-101485540D01*
X207450559Y-101475492D01*
X207451090Y-101475309D01*
X207460025Y-101483398D01*
G37*
X207460025Y-101483398D02*
X207482728Y-101506261D01*
X207517207Y-101541792D01*
X207561476Y-101587884D01*
X207613543Y-101642430D01*
X207671422Y-101703324D01*
X207733121Y-101768459D01*
X207796654Y-101835729D01*
X207860029Y-101903027D01*
X207921259Y-101968246D01*
X207978355Y-102029281D01*
X208029327Y-102084024D01*
X208072187Y-102130369D01*
X208104945Y-102166209D01*
X208125613Y-102189438D01*
X208127906Y-102192129D01*
X208156207Y-102225764D01*
X207536193Y-102225764D01*
X207362843Y-102049695D01*
X207309101Y-101994952D01*
X207258818Y-101943439D01*
X207215002Y-101898259D01*
X207180656Y-101862513D01*
X207158788Y-101839304D01*
X207155611Y-101835812D01*
X207121729Y-101797997D01*
X207282764Y-101636653D01*
X207332477Y-101587198D01*
X207376701Y-101543873D01*
X207412848Y-101509160D01*
X207438330Y-101485540D01*
X207450559Y-101475492D01*
X207451090Y-101475309D01*
X207460025Y-101483398D01*
D11*
%TO.C,J1*%
X154267840Y-115684000D02*
X154267840Y-121784000D01*
X152267840Y-115934000D02*
X152267840Y-121534000D01*
X154267840Y-115934000D02*
X152267840Y-115934000D01*
X154267840Y-121784000D02*
X166367840Y-121784000D01*
X166367840Y-115684000D02*
X166367840Y-121784000D01*
X154267840Y-121534000D02*
X152267840Y-121534000D01*
X154267840Y-115684000D02*
X166367840Y-115684000D01*
%TO.C,U2*%
X156767840Y-79046000D02*
X156767840Y-80346000D01*
X169417840Y-81946000D02*
X169417840Y-82946000D01*
X169417840Y-114996000D02*
X168407840Y-114996000D01*
X151617840Y-81946000D02*
X151617840Y-82946000D01*
X164267840Y-80346000D02*
X164267840Y-79046000D01*
X160167840Y-79546000D02*
X160867840Y-79546000D01*
X151617840Y-114996000D02*
X152617840Y-114996000D01*
X160017840Y-79396000D02*
X161017840Y-79396000D01*
X160367840Y-79846000D02*
X160667840Y-79846000D01*
X151617840Y-81946000D02*
X152617840Y-81946000D01*
X169417840Y-81946000D02*
X168467840Y-81946000D01*
X164267840Y-79046000D02*
X156767840Y-79046000D01*
X160517840Y-80046000D02*
X160017840Y-79396000D01*
X156767840Y-80346000D02*
X164267840Y-80346000D01*
X161017840Y-79396000D02*
X160517840Y-80046000D01*
X160267840Y-79696000D02*
X160767840Y-79696000D01*
X169417840Y-113996000D02*
X169417840Y-114996000D01*
X151617840Y-113946000D02*
X151617840Y-114996000D01*
D12*
%TO.C,mouse-bite-5mm-slot*%
X149241000Y-87757000D02*
G75*
G03*
X151241000Y-87757000I1000000J0D01*
G01*
X151241000Y-93599000D02*
G75*
G03*
X149241000Y-93599000I-1000000J0D01*
G01*
X149241000Y-108267500D02*
G75*
G03*
X151241000Y-108267500I1000000J0D01*
G01*
X151241000Y-114109500D02*
G75*
G03*
X149241000Y-114109500I-1000000J0D01*
G01*
D11*
%TO.C,J2*%
X146190000Y-121534000D02*
X148190000Y-121534000D01*
X134090000Y-121784000D02*
X134090000Y-115684000D01*
X148190000Y-121534000D02*
X148190000Y-115934000D01*
X146190000Y-115684000D02*
X134090000Y-115684000D01*
X146190000Y-121784000D02*
X146190000Y-115684000D01*
X146190000Y-121784000D02*
X134090000Y-121784000D01*
X146190000Y-115934000D02*
X148190000Y-115934000D01*
%TD*%
D17*
%TO.C,Bat+r1*%
X146190000Y-83736000D03*
%TD*%
%TO.C,BatGND1*%
X134760000Y-83736000D03*
%TD*%
D18*
%TO.C,U1*%
X147705400Y-85768000D03*
X147705400Y-88308000D03*
X147705400Y-90848000D03*
X147705400Y-93388000D03*
X147705400Y-95928000D03*
X147705400Y-98468000D03*
X147705400Y-101008000D03*
X147705400Y-103548000D03*
X147705400Y-106088000D03*
X147705400Y-108628000D03*
X147705400Y-111168000D03*
X147705400Y-113708000D03*
X132485400Y-113708000D03*
X132485400Y-111168000D03*
X132485400Y-108628000D03*
X132485400Y-106088000D03*
X132485400Y-103548000D03*
X132485400Y-101008000D03*
X132485400Y-98468000D03*
X132485400Y-95928000D03*
X132485400Y-93388000D03*
X132485400Y-90848000D03*
X132485400Y-88308000D03*
X132485400Y-85768000D03*
%TD*%
D17*
%TO.C,BatGND4*%
X166459840Y-83482000D03*
%TD*%
%TO.C,Bat+1*%
X155029840Y-83482000D03*
%TD*%
D18*
%TO.C,U2*%
X168129240Y-85768000D03*
X168129240Y-88308000D03*
X168129240Y-90848000D03*
X168129240Y-93388000D03*
X168129240Y-95928000D03*
X168129240Y-98468000D03*
X168129240Y-101008000D03*
X168129240Y-103548000D03*
X168129240Y-106088000D03*
X168129240Y-108628000D03*
X168129240Y-111168000D03*
X168129240Y-113708000D03*
X152909240Y-113708000D03*
X152909240Y-111168000D03*
X152909240Y-108628000D03*
X152909240Y-106088000D03*
X152909240Y-103548000D03*
X152909240Y-101008000D03*
X152909240Y-98468000D03*
X152909240Y-95928000D03*
X152909240Y-93388000D03*
X152909240Y-90848000D03*
X152909240Y-88308000D03*
X152909240Y-85768000D03*
%TD*%
M02*
