%TF.GenerationSoftware,KiCad,Pcbnew,6.0.4+dfsg-1+b1*%
%TF.CreationDate,2022-04-14T14:18:00+01:00*%
%TF.ProjectId,sweep-mid,73776565-702d-46d6-9964-2e6b69636164,rev?*%
%TF.SameCoordinates,Original*%
%TF.FileFunction,Legend,Bot*%
%TF.FilePolarity,Positive*%
%FSLAX46Y46*%
G04 Gerber Fmt 4.6, Leading zero omitted, Abs format (unit mm)*
G04 Created by KiCad (PCBNEW 6.0.4+dfsg-1+b1) date 2022-04-14 14:18:00*
%MOMM*%
%LPD*%
G01*
G04 APERTURE LIST*
%ADD10C,1.000000*%
%ADD11C,0.150000*%
%ADD12C,0.100000*%
%ADD13C,0.125000*%
%ADD14C,0.200000*%
%ADD15C,0.010000*%
G04 APERTURE END LIST*
D10*
X250582857Y-105011428D02*
X250582857Y-75011428D01*
X240582857Y-96440000D01*
X230582857Y-75011428D01*
X230582857Y-105011428D01*
X216297142Y-105011428D02*
X216297142Y-75011428D01*
X202011428Y-105011428D02*
X202011428Y-75011428D01*
X194868571Y-75011428D01*
X190582857Y-76440000D01*
X187725714Y-79297142D01*
X186297142Y-82154285D01*
X184868571Y-87868571D01*
X184868571Y-92154285D01*
X186297142Y-97868571D01*
X187725714Y-100725714D01*
X190582857Y-103582857D01*
X194868571Y-105011428D01*
X202011428Y-105011428D01*
X116216857Y-103487428D02*
X116216857Y-73487428D01*
X106216857Y-94916000D01*
X96216857Y-73487428D01*
X96216857Y-103487428D01*
X81931142Y-103487428D02*
X81931142Y-73487428D01*
X67645428Y-103487428D02*
X67645428Y-73487428D01*
X60502571Y-73487428D01*
X56216857Y-74916000D01*
X53359714Y-77773142D01*
X51931142Y-80630285D01*
X50502571Y-86344571D01*
X50502571Y-90630285D01*
X51931142Y-96344571D01*
X53359714Y-99201714D01*
X56216857Y-102058857D01*
X60502571Y-103487428D01*
X67645428Y-103487428D01*
D11*
%TO.C,Bat+r1*%
X146499638Y-84941895D02*
X146499638Y-85135419D01*
X146693161Y-85058009D02*
X146499638Y-85135419D01*
X146306114Y-85058009D01*
X146615752Y-85290238D02*
X146499638Y-85135419D01*
X146383523Y-85290238D01*
X145880361Y-84941895D02*
X145880361Y-85135419D01*
X146073885Y-85058009D02*
X145880361Y-85135419D01*
X145686838Y-85058009D01*
X145996476Y-85290238D02*
X145880361Y-85135419D01*
X145764247Y-85290238D01*
%TO.C,BatGND1*%
X135069638Y-84941895D02*
X135069638Y-85135419D01*
X135263161Y-85058009D02*
X135069638Y-85135419D01*
X134876114Y-85058009D01*
X135185752Y-85290238D02*
X135069638Y-85135419D01*
X134953523Y-85290238D01*
X134450361Y-84941895D02*
X134450361Y-85135419D01*
X134643885Y-85058009D02*
X134450361Y-85135419D01*
X134256838Y-85058009D01*
X134566476Y-85290238D02*
X134450361Y-85135419D01*
X134334247Y-85290238D01*
D12*
%TO.C,REF\u002A\u002A*%
X91987714Y-77573500D02*
X91987714Y-77954452D01*
X91654380Y-77716357D02*
X92511523Y-77716357D01*
X92606761Y-77763976D01*
X92654380Y-77859214D01*
X92654380Y-77954452D01*
X92606761Y-78668738D02*
X92654380Y-78573500D01*
X92654380Y-78383023D01*
X92606761Y-78287785D01*
X92511523Y-78240166D01*
X92130571Y-78240166D01*
X92035333Y-78287785D01*
X91987714Y-78383023D01*
X91987714Y-78573500D01*
X92035333Y-78668738D01*
X92130571Y-78716357D01*
X92225809Y-78716357D01*
X92321047Y-78240166D01*
X91987714Y-79144928D02*
X92654380Y-79144928D01*
X92082952Y-79144928D02*
X92035333Y-79192547D01*
X91987714Y-79287785D01*
X91987714Y-79430642D01*
X92035333Y-79525880D01*
X92130571Y-79573500D01*
X92654380Y-79573500D01*
X91987714Y-79906833D02*
X91987714Y-80287785D01*
X91654380Y-80049690D02*
X92511523Y-80049690D01*
X92606761Y-80097309D01*
X92654380Y-80192547D01*
X92654380Y-80287785D01*
X92654380Y-80621119D02*
X91987714Y-80621119D01*
X91654380Y-80621119D02*
X91702000Y-80573500D01*
X91749619Y-80621119D01*
X91702000Y-80668738D01*
X91654380Y-80621119D01*
X91749619Y-80621119D01*
X91987714Y-81097309D02*
X92654380Y-81097309D01*
X92082952Y-81097309D02*
X92035333Y-81144928D01*
X91987714Y-81240166D01*
X91987714Y-81383023D01*
X92035333Y-81478261D01*
X92130571Y-81525880D01*
X92654380Y-81525880D01*
X91987714Y-82430642D02*
X92797238Y-82430642D01*
X92892476Y-82383023D01*
X92940095Y-82335404D01*
X92987714Y-82240166D01*
X92987714Y-82097309D01*
X92940095Y-82002071D01*
X92606761Y-82430642D02*
X92654380Y-82335404D01*
X92654380Y-82144928D01*
X92606761Y-82049690D01*
X92559142Y-82002071D01*
X92463904Y-81954452D01*
X92178190Y-81954452D01*
X92082952Y-82002071D01*
X92035333Y-82049690D01*
X91987714Y-82144928D01*
X91987714Y-82335404D01*
X92035333Y-82430642D01*
X92051214Y-91527500D02*
X93051214Y-91527500D01*
X92098833Y-91527500D02*
X92051214Y-91622738D01*
X92051214Y-91813214D01*
X92098833Y-91908452D01*
X92146452Y-91956071D01*
X92241690Y-92003690D01*
X92527404Y-92003690D01*
X92622642Y-91956071D01*
X92670261Y-91908452D01*
X92717880Y-91813214D01*
X92717880Y-91622738D01*
X92670261Y-91527500D01*
X92051214Y-92860833D02*
X92717880Y-92860833D01*
X92051214Y-92432261D02*
X92575023Y-92432261D01*
X92670261Y-92479880D01*
X92717880Y-92575119D01*
X92717880Y-92717976D01*
X92670261Y-92813214D01*
X92622642Y-92860833D01*
X92670261Y-93765595D02*
X92717880Y-93670357D01*
X92717880Y-93479880D01*
X92670261Y-93384642D01*
X92622642Y-93337023D01*
X92527404Y-93289404D01*
X92241690Y-93289404D01*
X92146452Y-93337023D01*
X92098833Y-93384642D01*
X92051214Y-93479880D01*
X92051214Y-93670357D01*
X92098833Y-93765595D01*
X92717880Y-94194166D02*
X91717880Y-94194166D01*
X92336928Y-94289404D02*
X92717880Y-94575119D01*
X92051214Y-94575119D02*
X92432166Y-94194166D01*
D11*
%TO.C,RSW1*%
X132532380Y-117292619D02*
X132056190Y-116959285D01*
X132532380Y-116721190D02*
X131532380Y-116721190D01*
X131532380Y-117102142D01*
X131580000Y-117197380D01*
X131627619Y-117245000D01*
X131722857Y-117292619D01*
X131865714Y-117292619D01*
X131960952Y-117245000D01*
X132008571Y-117197380D01*
X132056190Y-117102142D01*
X132056190Y-116721190D01*
X132008571Y-117721190D02*
X132008571Y-118054523D01*
X132532380Y-118197380D02*
X132532380Y-117721190D01*
X131532380Y-117721190D01*
X131532380Y-118197380D01*
X132484761Y-118578333D02*
X132532380Y-118721190D01*
X132532380Y-118959285D01*
X132484761Y-119054523D01*
X132437142Y-119102142D01*
X132341904Y-119149761D01*
X132246666Y-119149761D01*
X132151428Y-119102142D01*
X132103809Y-119054523D01*
X132056190Y-118959285D01*
X132008571Y-118768809D01*
X131960952Y-118673571D01*
X131913333Y-118625952D01*
X131818095Y-118578333D01*
X131722857Y-118578333D01*
X131627619Y-118625952D01*
X131580000Y-118673571D01*
X131532380Y-118768809D01*
X131532380Y-119006904D01*
X131580000Y-119149761D01*
X132008571Y-119578333D02*
X132008571Y-119911666D01*
X132532380Y-120054523D02*
X132532380Y-119578333D01*
X131532380Y-119578333D01*
X131532380Y-120054523D01*
X131532380Y-120340238D02*
X131532380Y-120911666D01*
X132532380Y-120625952D02*
X131532380Y-120625952D01*
%TO.C,U1*%
D13*
X146354952Y-90521000D02*
X146402571Y-90485285D01*
X146474000Y-90485285D01*
X146545428Y-90521000D01*
X146593047Y-90592428D01*
X146616857Y-90663857D01*
X146640666Y-90806714D01*
X146640666Y-90913857D01*
X146616857Y-91056714D01*
X146593047Y-91128142D01*
X146545428Y-91199571D01*
X146474000Y-91235285D01*
X146426380Y-91235285D01*
X146354952Y-91199571D01*
X146331142Y-91163857D01*
X146331142Y-90913857D01*
X146426380Y-90913857D01*
X146116857Y-91235285D02*
X146116857Y-90485285D01*
X145831142Y-91235285D01*
X145831142Y-90485285D01*
X145593047Y-91235285D02*
X145593047Y-90485285D01*
X145474000Y-90485285D01*
X145402571Y-90521000D01*
X145354952Y-90592428D01*
X145331142Y-90663857D01*
X145307333Y-90806714D01*
X145307333Y-90913857D01*
X145331142Y-91056714D01*
X145354952Y-91128142D01*
X145402571Y-91199571D01*
X145474000Y-91235285D01*
X145593047Y-91235285D01*
X134799238Y-86065285D02*
X134965904Y-85708142D01*
X135084952Y-86065285D02*
X135084952Y-85315285D01*
X134894476Y-85315285D01*
X134846857Y-85351000D01*
X134823047Y-85386714D01*
X134799238Y-85458142D01*
X134799238Y-85565285D01*
X134823047Y-85636714D01*
X134846857Y-85672428D01*
X134894476Y-85708142D01*
X135084952Y-85708142D01*
X134608761Y-85851000D02*
X134370666Y-85851000D01*
X134656380Y-86065285D02*
X134489714Y-85315285D01*
X134323047Y-86065285D01*
X134204000Y-85315285D02*
X134084952Y-86065285D01*
X133989714Y-85529571D01*
X133894476Y-86065285D01*
X133775428Y-85315285D01*
X146334952Y-93101000D02*
X146382571Y-93065285D01*
X146454000Y-93065285D01*
X146525428Y-93101000D01*
X146573047Y-93172428D01*
X146596857Y-93243857D01*
X146620666Y-93386714D01*
X146620666Y-93493857D01*
X146596857Y-93636714D01*
X146573047Y-93708142D01*
X146525428Y-93779571D01*
X146454000Y-93815285D01*
X146406380Y-93815285D01*
X146334952Y-93779571D01*
X146311142Y-93743857D01*
X146311142Y-93493857D01*
X146406380Y-93493857D01*
X146096857Y-93815285D02*
X146096857Y-93065285D01*
X145811142Y-93815285D01*
X145811142Y-93065285D01*
X145573047Y-93815285D02*
X145573047Y-93065285D01*
X145454000Y-93065285D01*
X145382571Y-93101000D01*
X145334952Y-93172428D01*
X145311142Y-93243857D01*
X145287333Y-93386714D01*
X145287333Y-93493857D01*
X145311142Y-93636714D01*
X145334952Y-93708142D01*
X145382571Y-93779571D01*
X145454000Y-93815285D01*
X145573047Y-93815285D01*
X134704952Y-87991000D02*
X134752571Y-87955285D01*
X134824000Y-87955285D01*
X134895428Y-87991000D01*
X134943047Y-88062428D01*
X134966857Y-88133857D01*
X134990666Y-88276714D01*
X134990666Y-88383857D01*
X134966857Y-88526714D01*
X134943047Y-88598142D01*
X134895428Y-88669571D01*
X134824000Y-88705285D01*
X134776380Y-88705285D01*
X134704952Y-88669571D01*
X134681142Y-88633857D01*
X134681142Y-88383857D01*
X134776380Y-88383857D01*
X134466857Y-88705285D02*
X134466857Y-87955285D01*
X134181142Y-88705285D01*
X134181142Y-87955285D01*
X133943047Y-88705285D02*
X133943047Y-87955285D01*
X133824000Y-87955285D01*
X133752571Y-87991000D01*
X133704952Y-88062428D01*
X133681142Y-88133857D01*
X133657333Y-88276714D01*
X133657333Y-88383857D01*
X133681142Y-88526714D01*
X133704952Y-88598142D01*
X133752571Y-88669571D01*
X133824000Y-88705285D01*
X133943047Y-88705285D01*
D11*
%TO.C,BatGND4*%
X166769478Y-84687895D02*
X166769478Y-84881419D01*
X166963001Y-84804009D02*
X166769478Y-84881419D01*
X166575954Y-84804009D01*
X166885592Y-85036238D02*
X166769478Y-84881419D01*
X166653363Y-85036238D01*
X166150201Y-84687895D02*
X166150201Y-84881419D01*
X166343725Y-84804009D02*
X166150201Y-84881419D01*
X165956678Y-84804009D01*
X166266316Y-85036238D02*
X166150201Y-84881419D01*
X166034087Y-85036238D01*
%TO.C,RSW2*%
X168854380Y-117038619D02*
X168378190Y-116705285D01*
X168854380Y-116467190D02*
X167854380Y-116467190D01*
X167854380Y-116848142D01*
X167902000Y-116943380D01*
X167949619Y-116991000D01*
X168044857Y-117038619D01*
X168187714Y-117038619D01*
X168282952Y-116991000D01*
X168330571Y-116943380D01*
X168378190Y-116848142D01*
X168378190Y-116467190D01*
X168330571Y-117467190D02*
X168330571Y-117800523D01*
X168854380Y-117943380D02*
X168854380Y-117467190D01*
X167854380Y-117467190D01*
X167854380Y-117943380D01*
X168806761Y-118324333D02*
X168854380Y-118467190D01*
X168854380Y-118705285D01*
X168806761Y-118800523D01*
X168759142Y-118848142D01*
X168663904Y-118895761D01*
X168568666Y-118895761D01*
X168473428Y-118848142D01*
X168425809Y-118800523D01*
X168378190Y-118705285D01*
X168330571Y-118514809D01*
X168282952Y-118419571D01*
X168235333Y-118371952D01*
X168140095Y-118324333D01*
X168044857Y-118324333D01*
X167949619Y-118371952D01*
X167902000Y-118419571D01*
X167854380Y-118514809D01*
X167854380Y-118752904D01*
X167902000Y-118895761D01*
X168330571Y-119324333D02*
X168330571Y-119657666D01*
X168854380Y-119800523D02*
X168854380Y-119324333D01*
X167854380Y-119324333D01*
X167854380Y-119800523D01*
X167854380Y-120086238D02*
X167854380Y-120657666D01*
X168854380Y-120371952D02*
X167854380Y-120371952D01*
%TO.C,Bat+1*%
X155339478Y-84687895D02*
X155339478Y-84881419D01*
X155533001Y-84804009D02*
X155339478Y-84881419D01*
X155145954Y-84804009D01*
X155455592Y-85036238D02*
X155339478Y-84881419D01*
X155223363Y-85036238D01*
X154720201Y-84687895D02*
X154720201Y-84881419D01*
X154913725Y-84804009D02*
X154720201Y-84881419D01*
X154526678Y-84804009D01*
X154836316Y-85036238D02*
X154720201Y-84881419D01*
X154604087Y-85036238D01*
D12*
%TO.C,REF\u002A\u002A*%
X207875214Y-91527500D02*
X208875214Y-91527500D01*
X207922833Y-91527500D02*
X207875214Y-91622738D01*
X207875214Y-91813214D01*
X207922833Y-91908452D01*
X207970452Y-91956071D01*
X208065690Y-92003690D01*
X208351404Y-92003690D01*
X208446642Y-91956071D01*
X208494261Y-91908452D01*
X208541880Y-91813214D01*
X208541880Y-91622738D01*
X208494261Y-91527500D01*
X207875214Y-92860833D02*
X208541880Y-92860833D01*
X207875214Y-92432261D02*
X208399023Y-92432261D01*
X208494261Y-92479880D01*
X208541880Y-92575119D01*
X208541880Y-92717976D01*
X208494261Y-92813214D01*
X208446642Y-92860833D01*
X208494261Y-93765595D02*
X208541880Y-93670357D01*
X208541880Y-93479880D01*
X208494261Y-93384642D01*
X208446642Y-93337023D01*
X208351404Y-93289404D01*
X208065690Y-93289404D01*
X207970452Y-93337023D01*
X207922833Y-93384642D01*
X207875214Y-93479880D01*
X207875214Y-93670357D01*
X207922833Y-93765595D01*
X208541880Y-94194166D02*
X207541880Y-94194166D01*
X208160928Y-94289404D02*
X208541880Y-94575119D01*
X207875214Y-94575119D02*
X208256166Y-94194166D01*
X207811714Y-77573500D02*
X207811714Y-77954452D01*
X207478380Y-77716357D02*
X208335523Y-77716357D01*
X208430761Y-77763976D01*
X208478380Y-77859214D01*
X208478380Y-77954452D01*
X208430761Y-78668738D02*
X208478380Y-78573500D01*
X208478380Y-78383023D01*
X208430761Y-78287785D01*
X208335523Y-78240166D01*
X207954571Y-78240166D01*
X207859333Y-78287785D01*
X207811714Y-78383023D01*
X207811714Y-78573500D01*
X207859333Y-78668738D01*
X207954571Y-78716357D01*
X208049809Y-78716357D01*
X208145047Y-78240166D01*
X207811714Y-79144928D02*
X208478380Y-79144928D01*
X207906952Y-79144928D02*
X207859333Y-79192547D01*
X207811714Y-79287785D01*
X207811714Y-79430642D01*
X207859333Y-79525880D01*
X207954571Y-79573500D01*
X208478380Y-79573500D01*
X207811714Y-79906833D02*
X207811714Y-80287785D01*
X207478380Y-80049690D02*
X208335523Y-80049690D01*
X208430761Y-80097309D01*
X208478380Y-80192547D01*
X208478380Y-80287785D01*
X208478380Y-80621119D02*
X207811714Y-80621119D01*
X207478380Y-80621119D02*
X207526000Y-80573500D01*
X207573619Y-80621119D01*
X207526000Y-80668738D01*
X207478380Y-80621119D01*
X207573619Y-80621119D01*
X207811714Y-81097309D02*
X208478380Y-81097309D01*
X207906952Y-81097309D02*
X207859333Y-81144928D01*
X207811714Y-81240166D01*
X207811714Y-81383023D01*
X207859333Y-81478261D01*
X207954571Y-81525880D01*
X208478380Y-81525880D01*
X207811714Y-82430642D02*
X208621238Y-82430642D01*
X208716476Y-82383023D01*
X208764095Y-82335404D01*
X208811714Y-82240166D01*
X208811714Y-82097309D01*
X208764095Y-82002071D01*
X208430761Y-82430642D02*
X208478380Y-82335404D01*
X208478380Y-82144928D01*
X208430761Y-82049690D01*
X208383142Y-82002071D01*
X208287904Y-81954452D01*
X208002190Y-81954452D01*
X207906952Y-82002071D01*
X207859333Y-82049690D01*
X207811714Y-82144928D01*
X207811714Y-82335404D01*
X207859333Y-82430642D01*
D11*
%TO.C,J1*%
X160765904Y-118197380D02*
X160194476Y-118197380D01*
X160480190Y-119197380D02*
X160480190Y-118197380D01*
X159289714Y-119197380D02*
X159623047Y-118721190D01*
X159861142Y-119197380D02*
X159861142Y-118197380D01*
X159480190Y-118197380D01*
X159384952Y-118245000D01*
X159337333Y-118292619D01*
X159289714Y-118387857D01*
X159289714Y-118530714D01*
X159337333Y-118625952D01*
X159384952Y-118673571D01*
X159480190Y-118721190D01*
X159861142Y-118721190D01*
X158289714Y-119197380D02*
X158623047Y-118721190D01*
X158861142Y-119197380D02*
X158861142Y-118197380D01*
X158480190Y-118197380D01*
X158384952Y-118245000D01*
X158337333Y-118292619D01*
X158289714Y-118387857D01*
X158289714Y-118530714D01*
X158337333Y-118625952D01*
X158384952Y-118673571D01*
X158480190Y-118721190D01*
X158861142Y-118721190D01*
X157908761Y-119149761D02*
X157765904Y-119197380D01*
X157527809Y-119197380D01*
X157432571Y-119149761D01*
X157384952Y-119102142D01*
X157337333Y-119006904D01*
X157337333Y-118911666D01*
X157384952Y-118816428D01*
X157432571Y-118768809D01*
X157527809Y-118721190D01*
X157718285Y-118673571D01*
X157813523Y-118625952D01*
X157861142Y-118578333D01*
X157908761Y-118483095D01*
X157908761Y-118387857D01*
X157861142Y-118292619D01*
X157813523Y-118245000D01*
X157718285Y-118197380D01*
X157480190Y-118197380D01*
X157337333Y-118245000D01*
D13*
%TO.C,U2*%
X155128792Y-87991000D02*
X155176411Y-87955285D01*
X155247840Y-87955285D01*
X155319268Y-87991000D01*
X155366887Y-88062428D01*
X155390697Y-88133857D01*
X155414506Y-88276714D01*
X155414506Y-88383857D01*
X155390697Y-88526714D01*
X155366887Y-88598142D01*
X155319268Y-88669571D01*
X155247840Y-88705285D01*
X155200220Y-88705285D01*
X155128792Y-88669571D01*
X155104982Y-88633857D01*
X155104982Y-88383857D01*
X155200220Y-88383857D01*
X154890697Y-88705285D02*
X154890697Y-87955285D01*
X154604982Y-88705285D01*
X154604982Y-87955285D01*
X154366887Y-88705285D02*
X154366887Y-87955285D01*
X154247840Y-87955285D01*
X154176411Y-87991000D01*
X154128792Y-88062428D01*
X154104982Y-88133857D01*
X154081173Y-88276714D01*
X154081173Y-88383857D01*
X154104982Y-88526714D01*
X154128792Y-88598142D01*
X154176411Y-88669571D01*
X154247840Y-88705285D01*
X154366887Y-88705285D01*
X155223078Y-86065285D02*
X155389744Y-85708142D01*
X155508792Y-86065285D02*
X155508792Y-85315285D01*
X155318316Y-85315285D01*
X155270697Y-85351000D01*
X155246887Y-85386714D01*
X155223078Y-85458142D01*
X155223078Y-85565285D01*
X155246887Y-85636714D01*
X155270697Y-85672428D01*
X155318316Y-85708142D01*
X155508792Y-85708142D01*
X155032601Y-85851000D02*
X154794506Y-85851000D01*
X155080220Y-86065285D02*
X154913554Y-85315285D01*
X154746887Y-86065285D01*
X154627840Y-85315285D02*
X154508792Y-86065285D01*
X154413554Y-85529571D01*
X154318316Y-86065285D01*
X154199268Y-85315285D01*
X166778792Y-90521000D02*
X166826411Y-90485285D01*
X166897840Y-90485285D01*
X166969268Y-90521000D01*
X167016887Y-90592428D01*
X167040697Y-90663857D01*
X167064506Y-90806714D01*
X167064506Y-90913857D01*
X167040697Y-91056714D01*
X167016887Y-91128142D01*
X166969268Y-91199571D01*
X166897840Y-91235285D01*
X166850220Y-91235285D01*
X166778792Y-91199571D01*
X166754982Y-91163857D01*
X166754982Y-90913857D01*
X166850220Y-90913857D01*
X166540697Y-91235285D02*
X166540697Y-90485285D01*
X166254982Y-91235285D01*
X166254982Y-90485285D01*
X166016887Y-91235285D02*
X166016887Y-90485285D01*
X165897840Y-90485285D01*
X165826411Y-90521000D01*
X165778792Y-90592428D01*
X165754982Y-90663857D01*
X165731173Y-90806714D01*
X165731173Y-90913857D01*
X165754982Y-91056714D01*
X165778792Y-91128142D01*
X165826411Y-91199571D01*
X165897840Y-91235285D01*
X166016887Y-91235285D01*
X166758792Y-93101000D02*
X166806411Y-93065285D01*
X166877840Y-93065285D01*
X166949268Y-93101000D01*
X166996887Y-93172428D01*
X167020697Y-93243857D01*
X167044506Y-93386714D01*
X167044506Y-93493857D01*
X167020697Y-93636714D01*
X166996887Y-93708142D01*
X166949268Y-93779571D01*
X166877840Y-93815285D01*
X166830220Y-93815285D01*
X166758792Y-93779571D01*
X166734982Y-93743857D01*
X166734982Y-93493857D01*
X166830220Y-93493857D01*
X166520697Y-93815285D02*
X166520697Y-93065285D01*
X166234982Y-93815285D01*
X166234982Y-93065285D01*
X165996887Y-93815285D02*
X165996887Y-93065285D01*
X165877840Y-93065285D01*
X165806411Y-93101000D01*
X165758792Y-93172428D01*
X165734982Y-93243857D01*
X165711173Y-93386714D01*
X165711173Y-93493857D01*
X165734982Y-93636714D01*
X165758792Y-93708142D01*
X165806411Y-93779571D01*
X165877840Y-93815285D01*
X165996887Y-93815285D01*
D11*
%TO.C,J2*%
X143239904Y-118197380D02*
X142668476Y-118197380D01*
X142954190Y-119197380D02*
X142954190Y-118197380D01*
X141763714Y-119197380D02*
X142097047Y-118721190D01*
X142335142Y-119197380D02*
X142335142Y-118197380D01*
X141954190Y-118197380D01*
X141858952Y-118245000D01*
X141811333Y-118292619D01*
X141763714Y-118387857D01*
X141763714Y-118530714D01*
X141811333Y-118625952D01*
X141858952Y-118673571D01*
X141954190Y-118721190D01*
X142335142Y-118721190D01*
X140763714Y-119197380D02*
X141097047Y-118721190D01*
X141335142Y-119197380D02*
X141335142Y-118197380D01*
X140954190Y-118197380D01*
X140858952Y-118245000D01*
X140811333Y-118292619D01*
X140763714Y-118387857D01*
X140763714Y-118530714D01*
X140811333Y-118625952D01*
X140858952Y-118673571D01*
X140954190Y-118721190D01*
X141335142Y-118721190D01*
X140382761Y-119149761D02*
X140239904Y-119197380D01*
X140001809Y-119197380D01*
X139906571Y-119149761D01*
X139858952Y-119102142D01*
X139811333Y-119006904D01*
X139811333Y-118911666D01*
X139858952Y-118816428D01*
X139906571Y-118768809D01*
X140001809Y-118721190D01*
X140192285Y-118673571D01*
X140287523Y-118625952D01*
X140335142Y-118578333D01*
X140382761Y-118483095D01*
X140382761Y-118387857D01*
X140335142Y-118292619D01*
X140287523Y-118245000D01*
X140192285Y-118197380D01*
X139954190Y-118197380D01*
X139811333Y-118245000D01*
%TO.C,SW_POWERR1*%
X145363904Y-83394761D02*
X145221047Y-83442380D01*
X144982952Y-83442380D01*
X144887714Y-83394761D01*
X144840095Y-83347142D01*
X144792476Y-83251904D01*
X144792476Y-83156666D01*
X144840095Y-83061428D01*
X144887714Y-83013809D01*
X144982952Y-82966190D01*
X145173428Y-82918571D01*
X145268666Y-82870952D01*
X145316285Y-82823333D01*
X145363904Y-82728095D01*
X145363904Y-82632857D01*
X145316285Y-82537619D01*
X145268666Y-82490000D01*
X145173428Y-82442380D01*
X144935333Y-82442380D01*
X144792476Y-82490000D01*
X144459142Y-82442380D02*
X144221047Y-83442380D01*
X144030571Y-82728095D01*
X143840095Y-83442380D01*
X143602000Y-82442380D01*
X143459142Y-83537619D02*
X142697238Y-83537619D01*
X142459142Y-83442380D02*
X142459142Y-82442380D01*
X142078190Y-82442380D01*
X141982952Y-82490000D01*
X141935333Y-82537619D01*
X141887714Y-82632857D01*
X141887714Y-82775714D01*
X141935333Y-82870952D01*
X141982952Y-82918571D01*
X142078190Y-82966190D01*
X142459142Y-82966190D01*
X141268666Y-82442380D02*
X141078190Y-82442380D01*
X140982952Y-82490000D01*
X140887714Y-82585238D01*
X140840095Y-82775714D01*
X140840095Y-83109047D01*
X140887714Y-83299523D01*
X140982952Y-83394761D01*
X141078190Y-83442380D01*
X141268666Y-83442380D01*
X141363904Y-83394761D01*
X141459142Y-83299523D01*
X141506761Y-83109047D01*
X141506761Y-82775714D01*
X141459142Y-82585238D01*
X141363904Y-82490000D01*
X141268666Y-82442380D01*
X140506761Y-82442380D02*
X140268666Y-83442380D01*
X140078190Y-82728095D01*
X139887714Y-83442380D01*
X139649619Y-82442380D01*
X139268666Y-82918571D02*
X138935333Y-82918571D01*
X138792476Y-83442380D02*
X139268666Y-83442380D01*
X139268666Y-82442380D01*
X138792476Y-82442380D01*
X137792476Y-83442380D02*
X138125809Y-82966190D01*
X138363904Y-83442380D02*
X138363904Y-82442380D01*
X137982952Y-82442380D01*
X137887714Y-82490000D01*
X137840095Y-82537619D01*
X137792476Y-82632857D01*
X137792476Y-82775714D01*
X137840095Y-82870952D01*
X137887714Y-82918571D01*
X137982952Y-82966190D01*
X138363904Y-82966190D01*
X136792476Y-83442380D02*
X137125809Y-82966190D01*
X137363904Y-83442380D02*
X137363904Y-82442380D01*
X136982952Y-82442380D01*
X136887714Y-82490000D01*
X136840095Y-82537619D01*
X136792476Y-82632857D01*
X136792476Y-82775714D01*
X136840095Y-82870952D01*
X136887714Y-82918571D01*
X136982952Y-82966190D01*
X137363904Y-82966190D01*
X135840095Y-83442380D02*
X136411523Y-83442380D01*
X136125809Y-83442380D02*
X136125809Y-82442380D01*
X136221047Y-82585238D01*
X136316285Y-82680476D01*
X136411523Y-82728095D01*
%TO.C,SW_POWER1*%
X165133744Y-83902761D02*
X164990887Y-83950380D01*
X164752792Y-83950380D01*
X164657554Y-83902761D01*
X164609935Y-83855142D01*
X164562316Y-83759904D01*
X164562316Y-83664666D01*
X164609935Y-83569428D01*
X164657554Y-83521809D01*
X164752792Y-83474190D01*
X164943268Y-83426571D01*
X165038506Y-83378952D01*
X165086125Y-83331333D01*
X165133744Y-83236095D01*
X165133744Y-83140857D01*
X165086125Y-83045619D01*
X165038506Y-82998000D01*
X164943268Y-82950380D01*
X164705173Y-82950380D01*
X164562316Y-82998000D01*
X164228982Y-82950380D02*
X163990887Y-83950380D01*
X163800411Y-83236095D01*
X163609935Y-83950380D01*
X163371840Y-82950380D01*
X163228982Y-84045619D02*
X162467078Y-84045619D01*
X162228982Y-83950380D02*
X162228982Y-82950380D01*
X161848030Y-82950380D01*
X161752792Y-82998000D01*
X161705173Y-83045619D01*
X161657554Y-83140857D01*
X161657554Y-83283714D01*
X161705173Y-83378952D01*
X161752792Y-83426571D01*
X161848030Y-83474190D01*
X162228982Y-83474190D01*
X161038506Y-82950380D02*
X160848030Y-82950380D01*
X160752792Y-82998000D01*
X160657554Y-83093238D01*
X160609935Y-83283714D01*
X160609935Y-83617047D01*
X160657554Y-83807523D01*
X160752792Y-83902761D01*
X160848030Y-83950380D01*
X161038506Y-83950380D01*
X161133744Y-83902761D01*
X161228982Y-83807523D01*
X161276601Y-83617047D01*
X161276601Y-83283714D01*
X161228982Y-83093238D01*
X161133744Y-82998000D01*
X161038506Y-82950380D01*
X160276601Y-82950380D02*
X160038506Y-83950380D01*
X159848030Y-83236095D01*
X159657554Y-83950380D01*
X159419459Y-82950380D01*
X159038506Y-83426571D02*
X158705173Y-83426571D01*
X158562316Y-83950380D02*
X159038506Y-83950380D01*
X159038506Y-82950380D01*
X158562316Y-82950380D01*
X157562316Y-83950380D02*
X157895649Y-83474190D01*
X158133744Y-83950380D02*
X158133744Y-82950380D01*
X157752792Y-82950380D01*
X157657554Y-82998000D01*
X157609935Y-83045619D01*
X157562316Y-83140857D01*
X157562316Y-83283714D01*
X157609935Y-83378952D01*
X157657554Y-83426571D01*
X157752792Y-83474190D01*
X158133744Y-83474190D01*
X156609935Y-83950380D02*
X157181363Y-83950380D01*
X156895649Y-83950380D02*
X156895649Y-82950380D01*
X156990887Y-83093238D01*
X157086125Y-83188476D01*
X157181363Y-83236095D01*
%TO.C,Bat+r1*%
X145190000Y-84736000D02*
X145190000Y-82736000D01*
X147190000Y-84736000D02*
X145190000Y-84736000D01*
X147190000Y-82736000D02*
X147190000Y-84736000D01*
X145190000Y-82736000D02*
X147190000Y-82736000D01*
%TO.C,BatGND1*%
X133760000Y-82736000D02*
X135760000Y-82736000D01*
X135760000Y-84736000D02*
X133760000Y-84736000D01*
X135760000Y-82736000D02*
X135760000Y-84736000D01*
X133760000Y-84736000D02*
X133760000Y-82736000D01*
D14*
%TO.C,REF\u002A\u002A*%
X91327615Y-97730864D02*
G75*
G03*
X92456000Y-97790000I1128379J10735785D01*
G01*
X99464049Y-67708867D02*
G75*
G03*
X95313500Y-66675000I-7008049J-19286133D01*
G01*
X93584385Y-76259137D02*
G75*
G03*
X92456000Y-76200000I-1128385J-10735763D01*
G01*
X85447955Y-106281135D02*
G75*
G03*
X89598500Y-107315000I7008045J19286135D01*
G01*
X95313500Y-107315000D02*
G75*
G03*
X99464045Y-106281135I-2857506J20320019D01*
G01*
X112776000Y-84137500D02*
G75*
G03*
X111742134Y-79986952I-20320000J-2857500D01*
G01*
X111742134Y-94003048D02*
G75*
G03*
X112776000Y-89852500I-19286134J7008048D01*
G01*
X92456000Y-97790001D02*
G75*
G03*
X93584385Y-97730864I0J10794901D01*
G01*
X89598500Y-66674999D02*
G75*
G03*
X85447954Y-67708865I2857500J-20320001D01*
G01*
X73169865Y-79986956D02*
G75*
G03*
X72136000Y-84137500I19286255J-7008074D01*
G01*
X92456000Y-76200000D02*
G75*
G03*
X91327615Y-76259136I-6J-10794921D01*
G01*
X72135999Y-89852500D02*
G75*
G03*
X73169865Y-94003046I20320001J2857500D01*
G01*
G36*
X92333717Y-101425364D02*
G01*
X92331104Y-101453759D01*
X92322235Y-101500209D01*
X92284682Y-101627369D01*
X92229516Y-101753232D01*
X92159824Y-101871414D01*
X92078693Y-101975534D01*
X92070299Y-101984700D01*
X91961987Y-102085026D01*
X91839567Y-102169023D01*
X91706394Y-102235002D01*
X91565826Y-102281277D01*
X91421218Y-102306158D01*
X91320972Y-102310641D01*
X91172551Y-102299242D01*
X91029132Y-102266989D01*
X90892896Y-102214966D01*
X90766021Y-102144252D01*
X90650688Y-102055930D01*
X90549075Y-101951081D01*
X90463363Y-101830788D01*
X90406108Y-101723869D01*
X90352963Y-101584633D01*
X90321607Y-101440069D01*
X90315103Y-101343705D01*
X90810342Y-101343705D01*
X90810624Y-101348995D01*
X90814942Y-101404298D01*
X90822299Y-101446590D01*
X90834944Y-101485198D01*
X90855125Y-101529444D01*
X90876613Y-101567771D01*
X90918098Y-101626565D01*
X90966155Y-101682021D01*
X91015478Y-101728215D01*
X91060764Y-101759219D01*
X91076931Y-101766995D01*
X91117836Y-101784355D01*
X91160833Y-101800441D01*
X91233660Y-101819729D01*
X91337361Y-101828250D01*
X91438902Y-101815456D01*
X91535688Y-101782324D01*
X91625120Y-101729831D01*
X91704601Y-101658954D01*
X91771535Y-101570671D01*
X91800189Y-101516526D01*
X91830621Y-101422507D01*
X91841193Y-101324958D01*
X91832887Y-101227010D01*
X91806685Y-101131797D01*
X91763572Y-101042450D01*
X91704529Y-100962104D01*
X91630539Y-100893890D01*
X91542587Y-100840941D01*
X91528584Y-100834655D01*
X91430238Y-100804030D01*
X91328886Y-100793848D01*
X91227982Y-100803168D01*
X91130983Y-100831046D01*
X91041347Y-100876542D01*
X90962530Y-100938712D01*
X90897988Y-101016616D01*
X90880218Y-101045145D01*
X90836566Y-101138568D01*
X90813710Y-101236460D01*
X90810342Y-101343705D01*
X90315103Y-101343705D01*
X90311316Y-101287591D01*
X90314877Y-101197921D01*
X90337558Y-101047642D01*
X90380310Y-100905673D01*
X90442120Y-100773688D01*
X90521978Y-100653363D01*
X90618872Y-100546374D01*
X90731792Y-100454394D01*
X90859725Y-100379101D01*
X90929576Y-100346462D01*
X91004714Y-100317245D01*
X91076366Y-100297753D01*
X91152849Y-100285816D01*
X91242484Y-100279264D01*
X91260296Y-100278596D01*
X91399497Y-100285034D01*
X91529880Y-100312710D01*
X91652096Y-100361814D01*
X91766793Y-100432536D01*
X91790927Y-100449738D01*
X91815773Y-100466081D01*
X91828204Y-100472395D01*
X91829112Y-100468365D01*
X91830561Y-100444558D01*
X91831888Y-100401435D01*
X91833057Y-100341360D01*
X91834033Y-100266698D01*
X91834783Y-100179812D01*
X91835272Y-100083067D01*
X91835464Y-99978827D01*
X91835612Y-99485259D01*
X92343316Y-99995285D01*
X92343229Y-100686999D01*
X92343226Y-100698735D01*
X92342965Y-100849209D01*
X92342301Y-100986481D01*
X92341257Y-101109137D01*
X92339854Y-101215766D01*
X92338115Y-101304955D01*
X92337531Y-101324958D01*
X92336062Y-101375292D01*
X92333717Y-101425364D01*
G37*
D15*
X92333717Y-101425364D02*
X92331104Y-101453759D01*
X92322235Y-101500209D01*
X92284682Y-101627369D01*
X92229516Y-101753232D01*
X92159824Y-101871414D01*
X92078693Y-101975534D01*
X92070299Y-101984700D01*
X91961987Y-102085026D01*
X91839567Y-102169023D01*
X91706394Y-102235002D01*
X91565826Y-102281277D01*
X91421218Y-102306158D01*
X91320972Y-102310641D01*
X91172551Y-102299242D01*
X91029132Y-102266989D01*
X90892896Y-102214966D01*
X90766021Y-102144252D01*
X90650688Y-102055930D01*
X90549075Y-101951081D01*
X90463363Y-101830788D01*
X90406108Y-101723869D01*
X90352963Y-101584633D01*
X90321607Y-101440069D01*
X90315103Y-101343705D01*
X90810342Y-101343705D01*
X90810624Y-101348995D01*
X90814942Y-101404298D01*
X90822299Y-101446590D01*
X90834944Y-101485198D01*
X90855125Y-101529444D01*
X90876613Y-101567771D01*
X90918098Y-101626565D01*
X90966155Y-101682021D01*
X91015478Y-101728215D01*
X91060764Y-101759219D01*
X91076931Y-101766995D01*
X91117836Y-101784355D01*
X91160833Y-101800441D01*
X91233660Y-101819729D01*
X91337361Y-101828250D01*
X91438902Y-101815456D01*
X91535688Y-101782324D01*
X91625120Y-101729831D01*
X91704601Y-101658954D01*
X91771535Y-101570671D01*
X91800189Y-101516526D01*
X91830621Y-101422507D01*
X91841193Y-101324958D01*
X91832887Y-101227010D01*
X91806685Y-101131797D01*
X91763572Y-101042450D01*
X91704529Y-100962104D01*
X91630539Y-100893890D01*
X91542587Y-100840941D01*
X91528584Y-100834655D01*
X91430238Y-100804030D01*
X91328886Y-100793848D01*
X91227982Y-100803168D01*
X91130983Y-100831046D01*
X91041347Y-100876542D01*
X90962530Y-100938712D01*
X90897988Y-101016616D01*
X90880218Y-101045145D01*
X90836566Y-101138568D01*
X90813710Y-101236460D01*
X90810342Y-101343705D01*
X90315103Y-101343705D01*
X90311316Y-101287591D01*
X90314877Y-101197921D01*
X90337558Y-101047642D01*
X90380310Y-100905673D01*
X90442120Y-100773688D01*
X90521978Y-100653363D01*
X90618872Y-100546374D01*
X90731792Y-100454394D01*
X90859725Y-100379101D01*
X90929576Y-100346462D01*
X91004714Y-100317245D01*
X91076366Y-100297753D01*
X91152849Y-100285816D01*
X91242484Y-100279264D01*
X91260296Y-100278596D01*
X91399497Y-100285034D01*
X91529880Y-100312710D01*
X91652096Y-100361814D01*
X91766793Y-100432536D01*
X91790927Y-100449738D01*
X91815773Y-100466081D01*
X91828204Y-100472395D01*
X91829112Y-100468365D01*
X91830561Y-100444558D01*
X91831888Y-100401435D01*
X91833057Y-100341360D01*
X91834033Y-100266698D01*
X91834783Y-100179812D01*
X91835272Y-100083067D01*
X91835464Y-99978827D01*
X91835612Y-99485259D01*
X92343316Y-99995285D01*
X92343229Y-100686999D01*
X92343226Y-100698735D01*
X92342965Y-100849209D01*
X92342301Y-100986481D01*
X92341257Y-101109137D01*
X92339854Y-101215766D01*
X92338115Y-101304955D01*
X92337531Y-101324958D01*
X92336062Y-101375292D01*
X92333717Y-101425364D01*
G36*
X94536952Y-102221356D02*
G01*
X94446108Y-102129080D01*
X94432327Y-102115084D01*
X94400466Y-102082731D01*
X94354519Y-102036077D01*
X94295703Y-101976359D01*
X94225236Y-101904814D01*
X94144337Y-101822677D01*
X94054222Y-101731184D01*
X93956110Y-101631573D01*
X93851218Y-101525080D01*
X93740764Y-101412940D01*
X93625965Y-101296391D01*
X93508040Y-101176668D01*
X92660816Y-100316531D01*
X92949184Y-100313438D01*
X93237552Y-100310344D01*
X94040498Y-101113044D01*
X94040498Y-99479486D01*
X94536952Y-99479486D01*
X94536952Y-102221356D01*
G37*
X94536952Y-102221356D02*
X94446108Y-102129080D01*
X94432327Y-102115084D01*
X94400466Y-102082731D01*
X94354519Y-102036077D01*
X94295703Y-101976359D01*
X94225236Y-101904814D01*
X94144337Y-101822677D01*
X94054222Y-101731184D01*
X93956110Y-101631573D01*
X93851218Y-101525080D01*
X93740764Y-101412940D01*
X93625965Y-101296391D01*
X93508040Y-101176668D01*
X92660816Y-100316531D01*
X92949184Y-100313438D01*
X93237552Y-100310344D01*
X94040498Y-101113044D01*
X94040498Y-99479486D01*
X94536952Y-99479486D01*
X94536952Y-102221356D01*
G36*
X93243184Y-101511669D02*
G01*
X93255413Y-101521717D01*
X93280895Y-101545337D01*
X93317042Y-101580050D01*
X93361266Y-101623375D01*
X93410979Y-101672830D01*
X93572014Y-101834174D01*
X93538132Y-101871989D01*
X93534955Y-101875481D01*
X93513087Y-101898690D01*
X93478741Y-101934436D01*
X93434925Y-101979616D01*
X93384642Y-102031129D01*
X93330900Y-102085872D01*
X93157550Y-102261941D01*
X92537536Y-102261941D01*
X92565837Y-102228306D01*
X92568130Y-102225615D01*
X92588798Y-102202386D01*
X92621556Y-102166546D01*
X92664416Y-102120201D01*
X92715388Y-102065458D01*
X92772484Y-102004423D01*
X92833714Y-101939204D01*
X92897089Y-101871906D01*
X92960622Y-101804636D01*
X93022321Y-101739501D01*
X93080200Y-101678607D01*
X93132267Y-101624061D01*
X93176536Y-101577969D01*
X93211015Y-101542438D01*
X93233718Y-101519575D01*
X93242653Y-101511486D01*
X93243184Y-101511669D01*
G37*
X93243184Y-101511669D02*
X93255413Y-101521717D01*
X93280895Y-101545337D01*
X93317042Y-101580050D01*
X93361266Y-101623375D01*
X93410979Y-101672830D01*
X93572014Y-101834174D01*
X93538132Y-101871989D01*
X93534955Y-101875481D01*
X93513087Y-101898690D01*
X93478741Y-101934436D01*
X93434925Y-101979616D01*
X93384642Y-102031129D01*
X93330900Y-102085872D01*
X93157550Y-102261941D01*
X92537536Y-102261941D01*
X92565837Y-102228306D01*
X92568130Y-102225615D01*
X92588798Y-102202386D01*
X92621556Y-102166546D01*
X92664416Y-102120201D01*
X92715388Y-102065458D01*
X92772484Y-102004423D01*
X92833714Y-101939204D01*
X92897089Y-101871906D01*
X92960622Y-101804636D01*
X93022321Y-101739501D01*
X93080200Y-101678607D01*
X93132267Y-101624061D01*
X93176536Y-101577969D01*
X93211015Y-101542438D01*
X93233718Y-101519575D01*
X93242653Y-101511486D01*
X93243184Y-101511669D01*
D11*
%TO.C,BatGND4*%
X167459840Y-84482000D02*
X165459840Y-84482000D01*
X165459840Y-84482000D02*
X165459840Y-82482000D01*
X165459840Y-82482000D02*
X167459840Y-82482000D01*
X167459840Y-82482000D02*
X167459840Y-84482000D01*
%TO.C,Bat+1*%
X154029840Y-82482000D02*
X156029840Y-82482000D01*
X154029840Y-84482000D02*
X154029840Y-82482000D01*
X156029840Y-82482000D02*
X156029840Y-84482000D01*
X156029840Y-84482000D02*
X154029840Y-84482000D01*
D14*
%TO.C,REF\u002A\u002A*%
X205422500Y-66674999D02*
G75*
G03*
X201271954Y-67708865I2857500J-20320001D01*
G01*
X211137500Y-107315000D02*
G75*
G03*
X215288045Y-106281135I-2857506J20320019D01*
G01*
X228600000Y-84137500D02*
G75*
G03*
X227566134Y-79986952I-20320000J-2857500D01*
G01*
X209408385Y-76259137D02*
G75*
G03*
X208280000Y-76200000I-1128385J-10735763D01*
G01*
X227566134Y-94003048D02*
G75*
G03*
X228600000Y-89852500I-19286134J7008048D01*
G01*
X187959999Y-89852500D02*
G75*
G03*
X188993865Y-94003046I20320001J2857500D01*
G01*
X215288049Y-67708867D02*
G75*
G03*
X211137500Y-66675000I-7008049J-19286133D01*
G01*
X208280000Y-97790001D02*
G75*
G03*
X209408385Y-97730864I0J10794901D01*
G01*
X207151615Y-97730864D02*
G75*
G03*
X208280000Y-97790000I1128379J10735785D01*
G01*
X208280000Y-76200000D02*
G75*
G03*
X207151615Y-76259136I-6J-10794921D01*
G01*
X188993865Y-79986956D02*
G75*
G03*
X187960000Y-84137500I19286255J-7008074D01*
G01*
X201271955Y-106281135D02*
G75*
G03*
X205422500Y-107315000I7008045J19286135D01*
G01*
G36*
X208157717Y-101425364D02*
G01*
X208155104Y-101453759D01*
X208146235Y-101500209D01*
X208108682Y-101627369D01*
X208053516Y-101753232D01*
X207983824Y-101871414D01*
X207902693Y-101975534D01*
X207894299Y-101984700D01*
X207785987Y-102085026D01*
X207663567Y-102169023D01*
X207530394Y-102235002D01*
X207389826Y-102281277D01*
X207245218Y-102306158D01*
X207144972Y-102310641D01*
X206996551Y-102299242D01*
X206853132Y-102266989D01*
X206716896Y-102214966D01*
X206590021Y-102144252D01*
X206474688Y-102055930D01*
X206373075Y-101951081D01*
X206287363Y-101830788D01*
X206230108Y-101723869D01*
X206176963Y-101584633D01*
X206145607Y-101440069D01*
X206139103Y-101343705D01*
X206634342Y-101343705D01*
X206634624Y-101348995D01*
X206638942Y-101404298D01*
X206646299Y-101446590D01*
X206658944Y-101485198D01*
X206679125Y-101529444D01*
X206700613Y-101567771D01*
X206742098Y-101626565D01*
X206790155Y-101682021D01*
X206839478Y-101728215D01*
X206884764Y-101759219D01*
X206900931Y-101766995D01*
X206941836Y-101784355D01*
X206984833Y-101800441D01*
X207057660Y-101819729D01*
X207161361Y-101828250D01*
X207262902Y-101815456D01*
X207359688Y-101782324D01*
X207449120Y-101729831D01*
X207528601Y-101658954D01*
X207595535Y-101570671D01*
X207624189Y-101516526D01*
X207654621Y-101422507D01*
X207665193Y-101324958D01*
X207656887Y-101227010D01*
X207630685Y-101131797D01*
X207587572Y-101042450D01*
X207528529Y-100962104D01*
X207454539Y-100893890D01*
X207366587Y-100840941D01*
X207352584Y-100834655D01*
X207254238Y-100804030D01*
X207152886Y-100793848D01*
X207051982Y-100803168D01*
X206954983Y-100831046D01*
X206865347Y-100876542D01*
X206786530Y-100938712D01*
X206721988Y-101016616D01*
X206704218Y-101045145D01*
X206660566Y-101138568D01*
X206637710Y-101236460D01*
X206634342Y-101343705D01*
X206139103Y-101343705D01*
X206135316Y-101287591D01*
X206138877Y-101197921D01*
X206161558Y-101047642D01*
X206204310Y-100905673D01*
X206266120Y-100773688D01*
X206345978Y-100653363D01*
X206442872Y-100546374D01*
X206555792Y-100454394D01*
X206683725Y-100379101D01*
X206753576Y-100346462D01*
X206828714Y-100317245D01*
X206900366Y-100297753D01*
X206976849Y-100285816D01*
X207066484Y-100279264D01*
X207084296Y-100278596D01*
X207223497Y-100285034D01*
X207353880Y-100312710D01*
X207476096Y-100361814D01*
X207590793Y-100432536D01*
X207614927Y-100449738D01*
X207639773Y-100466081D01*
X207652204Y-100472395D01*
X207653112Y-100468365D01*
X207654561Y-100444558D01*
X207655888Y-100401435D01*
X207657057Y-100341360D01*
X207658033Y-100266698D01*
X207658783Y-100179812D01*
X207659272Y-100083067D01*
X207659464Y-99978827D01*
X207659612Y-99485259D01*
X208167316Y-99995285D01*
X208167229Y-100686999D01*
X208167226Y-100698735D01*
X208166965Y-100849209D01*
X208166301Y-100986481D01*
X208165257Y-101109137D01*
X208163854Y-101215766D01*
X208162115Y-101304955D01*
X208161531Y-101324958D01*
X208160062Y-101375292D01*
X208157717Y-101425364D01*
G37*
D15*
X208157717Y-101425364D02*
X208155104Y-101453759D01*
X208146235Y-101500209D01*
X208108682Y-101627369D01*
X208053516Y-101753232D01*
X207983824Y-101871414D01*
X207902693Y-101975534D01*
X207894299Y-101984700D01*
X207785987Y-102085026D01*
X207663567Y-102169023D01*
X207530394Y-102235002D01*
X207389826Y-102281277D01*
X207245218Y-102306158D01*
X207144972Y-102310641D01*
X206996551Y-102299242D01*
X206853132Y-102266989D01*
X206716896Y-102214966D01*
X206590021Y-102144252D01*
X206474688Y-102055930D01*
X206373075Y-101951081D01*
X206287363Y-101830788D01*
X206230108Y-101723869D01*
X206176963Y-101584633D01*
X206145607Y-101440069D01*
X206139103Y-101343705D01*
X206634342Y-101343705D01*
X206634624Y-101348995D01*
X206638942Y-101404298D01*
X206646299Y-101446590D01*
X206658944Y-101485198D01*
X206679125Y-101529444D01*
X206700613Y-101567771D01*
X206742098Y-101626565D01*
X206790155Y-101682021D01*
X206839478Y-101728215D01*
X206884764Y-101759219D01*
X206900931Y-101766995D01*
X206941836Y-101784355D01*
X206984833Y-101800441D01*
X207057660Y-101819729D01*
X207161361Y-101828250D01*
X207262902Y-101815456D01*
X207359688Y-101782324D01*
X207449120Y-101729831D01*
X207528601Y-101658954D01*
X207595535Y-101570671D01*
X207624189Y-101516526D01*
X207654621Y-101422507D01*
X207665193Y-101324958D01*
X207656887Y-101227010D01*
X207630685Y-101131797D01*
X207587572Y-101042450D01*
X207528529Y-100962104D01*
X207454539Y-100893890D01*
X207366587Y-100840941D01*
X207352584Y-100834655D01*
X207254238Y-100804030D01*
X207152886Y-100793848D01*
X207051982Y-100803168D01*
X206954983Y-100831046D01*
X206865347Y-100876542D01*
X206786530Y-100938712D01*
X206721988Y-101016616D01*
X206704218Y-101045145D01*
X206660566Y-101138568D01*
X206637710Y-101236460D01*
X206634342Y-101343705D01*
X206139103Y-101343705D01*
X206135316Y-101287591D01*
X206138877Y-101197921D01*
X206161558Y-101047642D01*
X206204310Y-100905673D01*
X206266120Y-100773688D01*
X206345978Y-100653363D01*
X206442872Y-100546374D01*
X206555792Y-100454394D01*
X206683725Y-100379101D01*
X206753576Y-100346462D01*
X206828714Y-100317245D01*
X206900366Y-100297753D01*
X206976849Y-100285816D01*
X207066484Y-100279264D01*
X207084296Y-100278596D01*
X207223497Y-100285034D01*
X207353880Y-100312710D01*
X207476096Y-100361814D01*
X207590793Y-100432536D01*
X207614927Y-100449738D01*
X207639773Y-100466081D01*
X207652204Y-100472395D01*
X207653112Y-100468365D01*
X207654561Y-100444558D01*
X207655888Y-100401435D01*
X207657057Y-100341360D01*
X207658033Y-100266698D01*
X207658783Y-100179812D01*
X207659272Y-100083067D01*
X207659464Y-99978827D01*
X207659612Y-99485259D01*
X208167316Y-99995285D01*
X208167229Y-100686999D01*
X208167226Y-100698735D01*
X208166965Y-100849209D01*
X208166301Y-100986481D01*
X208165257Y-101109137D01*
X208163854Y-101215766D01*
X208162115Y-101304955D01*
X208161531Y-101324958D01*
X208160062Y-101375292D01*
X208157717Y-101425364D01*
G36*
X209067184Y-101511669D02*
G01*
X209079413Y-101521717D01*
X209104895Y-101545337D01*
X209141042Y-101580050D01*
X209185266Y-101623375D01*
X209234979Y-101672830D01*
X209396014Y-101834174D01*
X209362132Y-101871989D01*
X209358955Y-101875481D01*
X209337087Y-101898690D01*
X209302741Y-101934436D01*
X209258925Y-101979616D01*
X209208642Y-102031129D01*
X209154900Y-102085872D01*
X208981550Y-102261941D01*
X208361536Y-102261941D01*
X208389837Y-102228306D01*
X208392130Y-102225615D01*
X208412798Y-102202386D01*
X208445556Y-102166546D01*
X208488416Y-102120201D01*
X208539388Y-102065458D01*
X208596484Y-102004423D01*
X208657714Y-101939204D01*
X208721089Y-101871906D01*
X208784622Y-101804636D01*
X208846321Y-101739501D01*
X208904200Y-101678607D01*
X208956267Y-101624061D01*
X209000536Y-101577969D01*
X209035015Y-101542438D01*
X209057718Y-101519575D01*
X209066653Y-101511486D01*
X209067184Y-101511669D01*
G37*
X209067184Y-101511669D02*
X209079413Y-101521717D01*
X209104895Y-101545337D01*
X209141042Y-101580050D01*
X209185266Y-101623375D01*
X209234979Y-101672830D01*
X209396014Y-101834174D01*
X209362132Y-101871989D01*
X209358955Y-101875481D01*
X209337087Y-101898690D01*
X209302741Y-101934436D01*
X209258925Y-101979616D01*
X209208642Y-102031129D01*
X209154900Y-102085872D01*
X208981550Y-102261941D01*
X208361536Y-102261941D01*
X208389837Y-102228306D01*
X208392130Y-102225615D01*
X208412798Y-102202386D01*
X208445556Y-102166546D01*
X208488416Y-102120201D01*
X208539388Y-102065458D01*
X208596484Y-102004423D01*
X208657714Y-101939204D01*
X208721089Y-101871906D01*
X208784622Y-101804636D01*
X208846321Y-101739501D01*
X208904200Y-101678607D01*
X208956267Y-101624061D01*
X209000536Y-101577969D01*
X209035015Y-101542438D01*
X209057718Y-101519575D01*
X209066653Y-101511486D01*
X209067184Y-101511669D01*
G36*
X210360952Y-102221356D02*
G01*
X210270108Y-102129080D01*
X210256327Y-102115084D01*
X210224466Y-102082731D01*
X210178519Y-102036077D01*
X210119703Y-101976359D01*
X210049236Y-101904814D01*
X209968337Y-101822677D01*
X209878222Y-101731184D01*
X209780110Y-101631573D01*
X209675218Y-101525080D01*
X209564764Y-101412940D01*
X209449965Y-101296391D01*
X209332040Y-101176668D01*
X208484816Y-100316531D01*
X208773184Y-100313438D01*
X209061552Y-100310344D01*
X209864498Y-101113044D01*
X209864498Y-99479486D01*
X210360952Y-99479486D01*
X210360952Y-102221356D01*
G37*
X210360952Y-102221356D02*
X210270108Y-102129080D01*
X210256327Y-102115084D01*
X210224466Y-102082731D01*
X210178519Y-102036077D01*
X210119703Y-101976359D01*
X210049236Y-101904814D01*
X209968337Y-101822677D01*
X209878222Y-101731184D01*
X209780110Y-101631573D01*
X209675218Y-101525080D01*
X209564764Y-101412940D01*
X209449965Y-101296391D01*
X209332040Y-101176668D01*
X208484816Y-100316531D01*
X208773184Y-100313438D01*
X209061552Y-100310344D01*
X209864498Y-101113044D01*
X209864498Y-99479486D01*
X210360952Y-99479486D01*
X210360952Y-102221356D01*
%TD*%
M02*
